<?xml version="1.0" standalone="no"?>
<!DOCTYPE svg PUBLIC "-//W3C//DTD SVG 20010904//EN"
 "http://www.w3.org/TR/2001/REC-SVG-20010904/DTD/svg10.dtd">
<svg version="1.0" xmlns="http://www.w3.org/2000/svg"
 width="1280.000000pt" height="905.000000pt" viewBox="0 0 1280.000000 905.000000"
 preserveAspectRatio="xMidYMid meet">
<metadata>
Created by potrace 1.16, written by Peter Selinger 2001-2019
</metadata>
<g transform="translate(0.000000,905.000000) scale(0.100000,-0.100000)"
fill="#000000" stroke="none">
<path d="M3380 7705 c0 -32 -2 -35 -24 -29 -35 8 -64 -11 -71 -49 -12 -64 28
-112 74 -88 13 8 22 8 26 1 16 -26 25 9 25 101 0 81 -3 99 -15 99 -10 0 -15
-11 -15 -35z"/>
<path d="M1112 7633 l3 -98 32 -3 c61 -6 102 35 79 79 -7 14 -11 41 -8 62 4
32 1 38 -23 47 -14 5 -40 10 -56 10 l-30 0 3 -97z"/>
<path d="M2980 7660 c-29 -29 -27 -94 2 -114 51 -36 108 -4 108 59 0 42 -29
75 -65 75 -14 0 -34 -9 -45 -20z"/>
<path d="M3743 7654 c-45 -45 -17 -124 44 -124 30 0 73 42 73 70 0 73 -67 104
-117 54z"/>
<path d="M3910 7662 c-28 -22 -30 -84 -4 -113 44 -48 121 1 110 71 -9 58 -61
78 -106 42z"/>
<path d="M11041 7017 c-1 -17 -12 -18 -148 -15 l-148 3 2 -182 2 -183 -262 0
-262 0 -2 176 c0 96 -3 177 -6 180 -3 3 -8034 7 -9359 4 -92 0 -98 -1 -98 -20
0 -11 -7 -23 -15 -26 -13 -5 -15 -192 -15 -1600 l0 -1594 26 -10 c14 -6 30
-10 35 -10 14 0 11 28 -3 33 -10 4 -10 7 0 15 10 7 13 120 13 555 1 501 2 547
18 549 9 0 -4 4 -29 7 l-45 6 0 140 0 140 30 0 30 0 -1 233 -1 232 274 0 c180
0 272 -3 268 -10 -3 -5 1 -10 10 -10 9 0 15 6 13 13 -4 9 -71 13 -269 18 -145
3 -265 6 -266 7 -2 1 -3 36 -3 78 0 71 1 76 20 71 11 -3 20 -1 20 4 0 5 -9 9
-20 9 -18 0 -20 7 -20 70 0 61 2 70 18 70 23 0 42 19 42 42 0 14 8 18 34 18
28 0 35 -4 39 -22 l4 -23 2 23 c1 22 1 22 190 22 189 0 190 0 194 -22 2 -13 4
2 4 32 0 30 -2 45 -4 33 -2 -12 -11 -23 -20 -25 -9 -2 -94 -2 -189 0 -169 3
-173 3 -177 25 l-4 22 -2 -22 c-1 -19 -7 -23 -36 -23 -25 0 -35 4 -35 16 0 20
-24 44 -44 44 -13 0 -16 13 -16 69 0 64 2 70 22 74 l23 4 -22 2 c-22 1 -23 5
-23 75 l0 74 30 6 c24 4 30 11 30 31 0 24 3 26 32 23 25 -2 34 -9 39 -28 l7
-25 1 27 1 28 187 -3 187 -2 7 -25 c5 -17 7 -7 7 30 -1 30 -3 45 -5 33 -4 -23
-5 -23 -193 -23 -188 0 -189 0 -193 23 l-4 22 -2 -22 c-1 -19 -7 -23 -36 -23
-27 0 -35 4 -35 18 0 23 -19 42 -42 42 -16 0 -18 9 -18 70 0 63 2 70 20 70 11
0 20 5 20 10 0 6 -3 9 -7 9 -29 -5 -33 4 -33 70 l0 69 31 6 c17 3 181 6 365 6
l333 0 3 28 c2 16 9 27 18 27 10 0 16 13 18 43 l3 42 130 0 129 0 0 -40 0 -40
109 0 c61 0 112 3 114 8 3 4 -18 5 -45 3 -35 -2 -48 0 -44 8 4 6 3 11 -3 11
-5 0 -12 -6 -14 -12 -4 -10 -6 -10 -6 0 -1 6 -6 12 -12 12 -5 0 -7 -4 -4 -10
4 -6 -12 -10 -39 -10 -47 0 -54 8 -40 44 5 13 24 16 100 16 83 0 94 -2 95 -17
0 -14 2 -13 9 5 9 22 10 22 240 22 l230 0 0 -40 0 -40 48 2 47 1 -42 4 c-40 4
-43 6 -43 34 0 30 1 30 48 27 46 -3 47 -4 47 -35 0 -18 3 -33 7 -33 5 0 8 18
8 40 l0 40 180 0 c178 0 181 0 190 -22 7 -18 9 -19 9 -5 1 15 12 17 95 17 76
0 95 -3 100 -16 14 -36 7 -44 -40 -44 -27 0 -43 4 -39 10 3 6 2 10 -4 10 -5 0
-12 -6 -14 -12 -4 -10 -6 -10 -6 0 -1 6 -6 12 -12 12 -5 0 -7 -4 -4 -10 4 -6
-11 -10 -39 -10 -24 0 -47 5 -49 10 -3 6 -4 5 -3 -2 2 -9 34 -14 114 -16 l112
-3 0 41 0 40 129 0 130 0 3 -42 c2 -25 8 -44 16 -44 6 -1 16 -2 20 -3 5 0 8
-11 8 -23 l-1 -23 360 -6 c198 -3 361 -6 363 -7 1 -1 2 -33 2 -72 0 -63 -2
-70 -20 -70 -11 0 -20 -4 -20 -10 0 -5 9 -10 20 -10 18 0 20 -7 20 -70 0 -61
-2 -70 -18 -70 -23 0 -42 -19 -42 -42 0 -14 -8 -18 -34 -18 -28 0 -35 4 -39
23 l-4 22 -2 -22 c-1 -22 -5 -23 -91 -23 -83 0 -90 1 -90 20 0 11 -4 20 -9 20
-5 0 -7 -9 -4 -20 5 -19 0 -20 -90 -20 -91 0 -96 1 -100 23 -2 12 -4 -3 -4
-33 0 -30 2 -42 4 -27 l4 28 92 -3 c88 -3 92 -4 91 -25 0 -13 3 -23 8 -23 4 0
8 11 8 25 0 25 1 25 90 25 l90 0 1 -27 1 -28 7 25 c5 19 14 26 39 28 29 3 32
1 32 -23 0 -20 6 -27 30 -32 l30 -5 0 -74 c0 -67 -2 -73 -22 -77 l-23 -4 23
-2 c21 -1 22 -5 22 -71 0 -61 -2 -70 -18 -70 -23 0 -42 -19 -42 -42 0 -14 -8
-18 -34 -18 -28 0 -35 4 -39 23 l-4 22 -2 -22 c-1 -22 -5 -23 -91 -23 -83 0
-90 1 -90 20 0 11 -4 20 -9 20 -5 0 -7 -9 -4 -20 5 -19 0 -20 -90 -20 -91 0
-96 1 -100 23 -2 12 -4 -3 -4 -33 0 -30 2 -45 4 -32 4 21 9 22 100 22 90 0 95
-1 90 -20 -3 -11 -1 -20 4 -20 5 0 9 9 9 20 0 19 7 20 89 20 85 0 90 -1 94
-22 l4 -23 2 23 c1 18 7 22 36 22 27 0 35 -4 35 -18 0 -23 19 -42 42 -42 16 0
18 -9 18 -69 0 -64 -2 -70 -22 -74 l-23 -4 23 -2 c21 -1 22 -5 22 -75 l0 -75
-42 -5 c-24 -3 -56 -7 -73 -9 -16 -2 11 -4 60 -5 50 0 84 2 78 5 -9 3 -13 29
-13 80 0 70 1 75 20 70 15 -4 20 0 20 13 0 11 4 21 9 24 4 3 99 6 210 6 112 1
201 4 198 6 -3 3 -96 6 -208 7 l-204 2 -3 33 c-2 20 -9 32 -18 32 -8 0 -14 8
-14 18 0 9 -2 215 -3 456 l-2 440 -32 8 c-26 7 -33 14 -33 33 l0 24 -349 3
c-192 2 -353 6 -356 10 -4 4 -5 19 -1 33 l6 25 438 -2 437 -3 6 -35 6 -35 2
43 1 42 130 0 130 0 1 -42 2 -43 6 35 6 35 194 3 c149 2 196 -1 203 -10 5 -10
8 -8 8 5 0 15 13 17 128 17 71 0 131 -2 134 -5 8 -9 468 -11 468 -2 0 4 81 7
180 7 l180 0 0 -40 c0 -22 5 -40 11 -40 5 0 7 5 4 11 -4 5 -4 21 -1 35 6 21
12 24 49 24 24 0 48 -5 55 -12 9 -9 12 -8 12 5 0 15 12 17 85 17 47 0 85 -3
85 -7 0 -5 90 -7 200 -5 l199 3 7 -25 c3 -14 3 -30 -1 -35 -3 -6 -1 -11 4 -11
6 0 11 18 11 40 l0 40 180 0 c99 0 180 -3 180 -7 0 -5 69 -8 152 -8 l153 0 0
-32 c0 -18 3 -33 7 -33 5 0 8 18 8 40 l0 40 85 0 c47 0 85 -3 85 -7 0 -5 46
-8 102 -8 l103 0 6 -35 6 -35 2 43 1 42 230 0 230 0 1 -42 2 -43 6 35 6 35 95
0 95 0 6 -35 6 -35 2 43 1 42 85 0 85 0 2 -42 1 -43 4 38 4 38 147 -3 147 -3
6 -35 6 -35 2 43 1 42 128 0 c71 0 131 -3 135 -6 3 -3 52 -7 109 -7 l103 -2 0
-32 c0 -18 3 -33 7 -33 5 0 8 18 8 40 l0 40 80 0 80 0 1 -42 2 -43 6 35 6 35
58 0 c31 0 57 3 57 7 0 5 16 8 35 8 26 0 35 -4 36 -17 0 -11 3 -13 6 -5 6 15
183 17 183 2 0 -5 -8 -10 -19 -10 -13 0 -20 -10 -25 -31 -10 -51 -8 -59 19
-59 l25 0 0 -130 c0 -129 0 -130 23 -130 17 0 23 -6 25 -27 3 -43 12 -40 12 5
l0 42 225 0 225 0 1 -42 1 -43 9 33 c7 22 16 32 29 32 19 0 20 7 20 130 l0
130 25 0 c24 0 26 3 24 45 -2 40 -5 45 -26 45 -13 0 -23 5 -23 10 0 6 17 10
38 10 32 0 40 -4 49 -27 7 -16 12 -21 11 -13 -2 50 -2 50 80 50 43 0 81 -3 85
-6 3 -3 73 -5 156 -5 l150 2 4 -38 4 -38 1 43 2 42 135 0 c122 0 135 -2 136
-17 0 -11 3 -13 6 -5 3 7 24 12 53 12 l49 0 4 -37 4 -38 1 43 c2 41 3 42 37
42 34 0 35 -1 36 -42 l2 -43 6 35 6 35 100 0 100 0 2 -572 c1 -358 -2 -573 -7
-573 -6 0 -10 214 -10 565 0 558 0 565 -20 565 -18 0 -20 -7 -20 -84 0 -119
-6 -144 -39 -149 l-26 -4 27 -2 26 -1 1 -124 c1 -122 1 -125 -21 -129 l-23 -4
23 -2 c16 -1 22 -7 22 -25 0 -13 -6 -27 -12 -29 -10 -4 -10 -6 0 -6 6 -1 12
-14 12 -30 0 -25 -5 -30 -27 -34 l-28 -4 26 -2 26 -1 6 -147 c3 -82 6 -194 7
-250 l1 -103 -460 0 c-403 0 -461 -2 -461 -15 0 -10 11 -15 38 -16 20 -1 42 0
47 1 6 1 99 2 209 2 156 0 200 -3 207 -13 7 -11 9 -11 9 1 0 12 16 14 95 12
56 -2 93 -7 90 -13 -4 -5 -2 -9 4 -9 5 0 11 4 13 10 2 5 63 10 146 11 l142 1
1 76 c0 43 0 134 -1 205 -1 104 2 127 13 127 18 0 30 27 17 35 -6 4 -10 -1
-10 -10 0 -9 -5 -13 -10 -10 -7 4 -10 108 -10 292 1 245 3 284 15 279 8 -3 15
-1 15 4 0 6 -6 10 -14 10 -10 0 -14 21 -15 92 -1 51 -3 94 -5 96 -2 1 -227 3
-499 3 -462 -1 -496 0 -500 17 -4 16 -5 16 -6 -1z m-9465 -52 c-3 -8 -1 -15 4
-15 5 0 7 -7 4 -15 -9 -22 -34 -18 -34 5 0 16 -7 20 -35 20 -31 0 -35 -3 -35
-25 l0 -25 -300 0 -300 0 0 -25 c0 -20 -6 -27 -30 -31 l-30 -6 0 -158 c0 -87
-2 -164 -3 -172 -2 -7 -2 -10 0 -5 7 12 33 8 34 -5 0 -10 2 -10 6 0 9 24 23 1
23 -40 0 -32 -3 -39 -15 -34 -8 3 -15 1 -15 -4 0 -13 -27 -13 -32 0 -1 6 -3
-73 -3 -174 0 -101 3 -180 6 -174 4 5 17 8 30 6 21 -3 24 -8 24 -48 0 -40 -3
-45 -24 -48 -13 -2 -26 1 -30 6 -3 6 -5 -68 -3 -164 2 -117 0 -174 -7 -174 -7
0 -11 53 -11 155 0 131 -2 155 -15 155 -13 0 -15 56 -15 445 l0 445 25 0 c23
0 25 3 25 50 0 43 -3 50 -20 50 -11 0 -20 5 -20 10 0 7 140 10 401 10 352 0
400 -2 395 -15z"/>
<path d="M3572 6943 c3 -17 31 -18 401 -21 392 -2 397 -2 397 18 0 20 -6 20
-401 20 -376 0 -400 -1 -397 -17z"/>
<path d="M7817 6614 c-4 -4 -7 -166 -7 -361 0 -333 -1 -353 -18 -353 -10 0
-23 5 -30 12 -9 9 -12 7 -12 -13 0 -14 -3 -19 -8 -13 -4 7 -38 13 -77 15 -69
4 -70 4 -70 -21 0 -25 0 -25 78 -20 42 3 78 3 80 0 1 -3 23 -4 50 -2 l47 4 -2
376 c-3 359 -6 400 -31 376z"/>
<path d="M6620 5880 c0 -13 7 -20 19 -20 18 0 19 -9 20 -121 1 -85 -2 -126
-11 -137 -10 -12 -10 -16 -1 -19 14 -5 6 -33 -9 -33 -6 0 -8 6 -5 13 3 8 1 20
-4 28 -6 10 -9 4 -9 -18 0 -26 4 -33 20 -33 18 0 19 -9 22 -162 3 -150 2 -163
-16 -180 -11 -10 -22 -15 -25 -10 -3 4 -17 7 -31 6 -14 0 -38 -2 -53 -2 -16
-1 -26 -6 -22 -12 3 -5 15 -6 29 0 13 5 29 4 37 -1 19 -12 79 -11 79 1 0 6 84
11 228 12 l227 3 -222 2 -222 3 0 323 -1 322 21 -25 21 -25 -16 27 c-9 15 -16
30 -16 33 0 3 98 5 218 5 670 -2 682 -2 682 20 0 20 -7 20 -480 20 -473 0
-480 0 -480 -20z"/>
<path d="M1507 5653 c-5 -7 -11 -131 -8 -161 1 -7 5 -11 10 -7 5 3 7 30 4 59
-6 59 2 106 17 106 6 0 10 -11 10 -25 l0 -25 690 0 690 0 0 25 c0 23 3 25 50
25 29 0 50 -5 50 -11 0 -5 5 -7 10 -4 6 4 8 11 5 16 -7 11 -1522 13 -1528 2z"/>
<path d="M5748 5496 c-5 -77 -8 -177 -8 -223 0 -82 0 -83 25 -83 23 0 25 -3
25 -50 0 -27 3 -50 8 -50 4 0 7 21 7 47 l0 48 90 0 90 0 0 -48 c0 -61 15 -61
17 1 l1 47 7 -50 7 -50 1 53 2 52 90 0 90 0 2 -52 1 -53 7 55 7 55 1 -52 c2
-68 22 -70 22 -3 l0 51 88 -3 87 -3 0 -48 c0 -26 3 -47 8 -47 4 0 7 23 7 50 0
38 4 50 15 50 8 0 15 4 15 10 0 5 28 11 63 13 62 3 62 3 -15 5 -43 1 -80 -2
-83 -8 -9 -15 -188 -13 -203 2 -9 9 -12 9 -12 0 0 -17 -196 -17 -204 1 -5 10
-7 10 -12 0 -4 -9 -34 -13 -100 -13 -61 0 -93 4 -89 10 9 14 -29 12 -43 -2 -9
-9 -12 15 -12 109 0 140 -2 137 101 131 34 -2 58 1 56 7 -1 5 -33 8 -74 6
l-72 -3 -3 89 c-3 84 -3 81 -10 -51z"/>
<path d="M10170 5546 l0 -87 -72 2 c-40 1 -74 -2 -75 -7 -2 -5 24 -7 56 -6
103 6 101 9 101 -129 0 -117 0 -119 -22 -119 -19 0 -20 2 -8 10 11 7 5 8 -20
5 -40 -4 -103 -8 -110 -6 -15 5 -130 5 -130 1 0 -3 -33 -4 -72 -3 -98 3 -306
1 -583 -6 l-230 -7 237 -2 237 -2 4 -52 3 -53 2 53 2 52 90 0 90 0 2 -52 1
-53 7 55 7 55 1 -52 c2 -67 22 -70 22 -3 l0 50 39 0 c29 0 41 -5 44 -17 4 -17
5 -17 6 0 1 15 8 18 44 15 l42 -3 0 -47 c0 -37 3 -48 17 -51 16 -5 18 2 18 49
l0 54 90 0 90 0 0 -52 c0 -61 12 -58 14 4 1 42 1 43 40 46 l38 3 -5 216 c-3
118 -8 217 -11 221 -3 3 -6 -34 -6 -82z"/>
<path d="M8087 5493 c-4 -71 -7 -167 -7 -215 0 -87 0 -88 25 -88 23 0 25 -3
25 -50 0 -27 3 -50 8 -50 4 0 7 21 7 47 l0 48 42 3 c33 2 42 -1 46 -15 5 -17
5 -17 6 0 1 15 8 18 44 15 l42 -3 0 -48 c0 -61 15 -61 17 1 l1 47 7 -50 7 -50
1 53 2 52 44 0 c34 0 46 -4 49 -17 4 -17 5 -17 6 0 1 13 10 17 41 17 l40 0 2
-52 1 -53 7 55 7 55 1 -52 c2 -67 22 -70 22 -3 l0 50 89 0 90 0 4 -52 3 -53 2
53 2 52 38 1 c30 1 32 3 12 8 -17 4 -1 8 45 12 l70 5 -82 2 c-46 1 -85 -2 -88
-8 -9 -15 -188 -13 -203 2 -9 9 -12 9 -12 0 0 -17 -196 -17 -204 1 -5 10 -7
10 -12 0 -4 -9 -34 -13 -100 -13 -61 0 -93 4 -89 10 8 13 -11 13 -36 0 -18
-10 -19 -6 -19 109 0 138 -2 135 101 129 34 -2 58 1 56 7 -1 5 -34 8 -75 6
l-74 -3 4 81 c2 45 0 81 -3 81 -3 0 -9 -57 -12 -127z"/>
<path d="M2940 5320 l0 -50 -707 -3 -708 -2 709 -3 708 -2 -4 -25 c-3 -14 -1
-25 3 -25 5 0 9 36 9 80 0 44 -2 80 -5 80 -3 0 -5 -22 -5 -50z"/>
<path d="M8850 4910 c0 -6 -84 -10 -232 -10 l-233 0 4 -57 c2 -32 0 -140 -4
-240 -7 -175 -8 -182 -29 -186 -20 -4 -20 -4 2 -6 16 -1 22 -7 22 -25 0 -18
-7 -26 -22 -29 l-23 -4 23 -2 c22 -1 22 -2 22 -160 0 -158 0 -160 -22 -164
-22 -4 -22 -4 -2 -6 28 -1 34 -33 34 -172 l0 -109 25 0 25 0 0 555 0 555 230
0 230 0 0 -375 0 -375 54 0 c54 0 55 0 58 33 3 31 5 32 58 38 l55 6 -57 1 -58
2 0 97 c0 53 -2 94 -4 92 -3 -3 -6 -53 -7 -112 l-1 -107 -29 0 -28 0 1 350 c2
326 3 350 19 350 14 0 19 -10 22 -47 3 -40 4 -37 5 20 3 90 22 87 22 -3 0 -94
14 -90 17 5 2 60 -1 75 -13 75 -7 0 -14 5 -14 10 0 13 -39 13 -79 -1 -24 -9
-35 -9 -44 0 -14 14 -27 14 -27 1z"/>
<path d="M12042 4893 c-1 -10 -37 -13 -136 -13 -74 0 -137 -4 -140 -8 -2 -4
-1 -14 5 -22 6 -10 9 -11 9 -2 0 9 25 12 90 12 l90 0 0 -50 c0 -47 2 -50 25
-50 23 0 25 3 25 50 0 28 4 50 10 50 6 0 10 -69 9 -180 0 -159 -2 -181 -17
-189 -14 -9 -13 -10 11 -11 l27 0 0 84 c0 72 3 85 18 89 16 4 16 5 0 6 -15 1
-18 16 -21 124 -1 67 -4 116 -5 110z"/>
<path d="M3089 3815 c-1 -16 -1 -34 0 -39 1 -5 -21 -6 -49 -4 -27 3 -50 1 -50
-3 0 -5 -61 -9 -135 -9 -117 0 -135 2 -144 18 -6 9 -11 11 -11 5 0 -8 -15 -13
-40 -13 -25 0 -40 5 -40 13 -1 7 -6 5 -14 -5 -16 -22 -86 -25 -86 -4 0 10 -12
13 -45 12 -53 -3 -61 1 -68 34 -4 15 -5 10 -3 -12 2 -38 2 -38 -36 -38 -24 0
-38 5 -38 13 -1 7 -6 5 -14 -5 -11 -15 -29 -18 -100 -18 l-86 0 -1 43 c-1 27
-3 33 -6 17 -3 -14 -10 -28 -15 -31 -6 -4 -56 -7 -112 -7 -55 -1 -107 -1 -113
-2 -7 0 -13 -6 -13 -14 0 -8 -8 -16 -17 -18 -9 -2 1341 -2 3000 0 l3017 2 0
-250 c0 -216 2 -250 15 -250 12 0 15 13 15 55 0 30 -4 55 -10 55 -15 0 -12 77
3 84 10 5 10 7 0 12 -10 4 -13 43 -13 145 l0 139 43 2 c36 1 38 2 10 5 -20 3
-33 10 -33 19 0 10 -14 14 -52 15 -29 1 -56 1 -60 0 -5 0 -8 16 -8 36 0 46 -8
39 -12 -10 -2 -36 -3 -37 -40 -37 -24 0 -38 5 -38 13 -1 7 -6 5 -14 -5 -8 -12
-27 -18 -50 -18 -30 0 -36 3 -36 21 0 16 -3 19 -12 12 -7 -6 -34 -9 -60 -8
-31 2 -46 -1 -41 -7 4 -7 -12 -9 -46 -6 -28 3 -51 1 -51 -3 0 -5 -63 -9 -140
-9 -77 0 -140 3 -140 8 0 4 -25 7 -55 7 -30 0 -55 -3 -55 -7 0 -5 -40 -8 -90
-8 l-90 0 -1 48 c-2 44 -2 45 -8 12 l-6 -35 -140 0 -140 0 -6 35 -6 35 -2 -42
-1 -43 -41 0 c-24 0 -38 4 -34 10 3 6 1 10 -5 10 -6 0 -13 -7 -16 -15 -5 -12
-25 -15 -88 -15 -46 0 -85 3 -89 6 -8 9 -117 10 -117 2 0 -5 -60 -8 -134 -8
-117 0 -135 2 -140 17 -6 14 -9 15 -16 4 -5 -10 -21 -12 -54 -9 -25 3 -46 2
-46 -3 0 -5 -18 -9 -40 -9 l-40 0 -1 48 c-2 43 -2 44 -8 13 l-6 -35 -90 -1
c-49 -1 -69 0 -42 2 42 4 47 7 47 28 0 21 -5 23 -55 27 l-55 3 0 -37 c0 -38 0
-38 -40 -38 -25 0 -40 5 -40 13 -1 7 -6 5 -14 -5 -14 -19 -86 -26 -86 -9 0 5
-7 12 -16 15 -8 3 -12 2 -9 -4 4 -6 -10 -10 -35 -10 -30 0 -39 3 -35 13 4 6 0
4 -8 -5 -12 -16 -33 -18 -151 -18 -103 0 -136 3 -136 13 0 8 -20 12 -65 13
-35 0 -59 -4 -52 -8 7 -4 -5 -8 -28 -8 -23 0 -46 5 -53 12 -9 9 -12 8 -12 -5
0 -15 -12 -17 -90 -17 l-90 0 -1 48 c-2 44 -2 45 -8 12 l-6 -35 -140 0 -140 0
-6 35 -6 35 -2 -42 -1 -43 -41 0 c-24 0 -38 4 -34 10 3 6 1 10 -5 10 -6 0 -13
-7 -16 -15 -9 -21 -70 -20 -84 3 -8 12 -13 13 -16 5 -3 -7 -21 -13 -40 -13
-20 0 -34 5 -34 13 -1 7 -6 5 -14 -5 -11 -15 -29 -18 -96 -18 -67 0 -85 3 -96
18 -8 10 -13 12 -14 5 0 -8 -14 -13 -34 -13 -19 0 -37 6 -40 13 -3 8 -8 7 -16
-5 -10 -16 -28 -18 -145 -18 l-135 0 -1 48 c-2 44 -2 45 -8 12 l-6 -34 -90 -1
c-49 -1 -69 0 -42 2 42 4 47 7 47 28 0 21 -5 23 -55 27 -55 3 -55 3 -56 -27z"/>
<path d="M10790 3415 l0 -25 550 0 c360 0 550 3 550 10 0 6 5 10 10 10 6 0 10
-33 10 -80 l0 -80 28 0 c18 0 23 3 14 9 -9 5 -13 30 -11 83 1 41 -1 80 -5 87
-5 8 -163 11 -577 11 l-569 0 0 -25z"/>
<path d="M578 3062 l-198 -2 0 -625 c0 -410 3 -625 10 -625 7 0 10 212 10 615
l0 615 199 0 c150 0 205 3 225 14 l27 14 -38 -2 c-21 0 -127 -2 -235 -4z"/>
<path d="M1813 3063 c22 -4 27 -9 27 -34 0 -24 -4 -29 -25 -29 -23 0 -25 -4
-25 -41 0 -39 1 -41 26 -36 23 4 25 2 22 -27 -3 -27 -7 -31 -30 -29 -16 1 -28
-2 -28 -8 0 -7 47 -14 73 -10 4 0 7 -17 7 -40 0 -24 -4 -38 -10 -34 -5 3 -10
1 -10 -5 0 -6 7 -10 16 -8 15 3 17 23 18 153 l1 150 -45 1 c-25 1 -33 0 -17
-3z"/>
<path d="M1861 2308 c-1 -10 -7 -18 -15 -18 -8 0 -17 -6 -19 -12 -4 -10 -6
-10 -6 0 -2 24 -17 12 -19 -15 -1 -20 1 -24 7 -14 12 19 31 5 31 -25 0 -19 -5
-24 -25 -24 -22 0 -25 -4 -25 -40 0 -33 3 -40 20 -40 10 0 24 8 30 18 8 13 9
11 4 -13 -8 -37 -13 -42 -44 -48 -21 -4 -20 -4 8 -6 18 0 32 -6 32 -13 0 -9 4
-8 10 2 7 11 10 6 10 -22 0 -20 -6 -39 -12 -41 -10 -4 -9 -8 2 -16 13 -9 16
-1 21 52 9 87 9 237 -1 267 -5 17 -8 19 -9 8z"/>
</g>
</svg>
