<?xml version="1.0" standalone="no"?>
<!DOCTYPE svg PUBLIC "-//W3C//DTD SVG 20010904//EN"
 "http://www.w3.org/TR/2001/REC-SVG-20010904/DTD/svg10.dtd">
<svg version="1.0" xmlns="http://www.w3.org/2000/svg"
 width="1280.000000pt" height="905.000000pt" viewBox="0 0 1280.000000 905.000000"
 preserveAspectRatio="xMidYMid meet">
<metadata>
Created by potrace 1.16, written by Peter Selinger 2001-2019
</metadata>
<g transform="translate(0.000000,905.000000) scale(0.100000,-0.100000)"
fill="#000000" stroke="none">
<path d="M1083 7563 c-9 -3 -13 -33 -13 -99 l0 -94 48 0 c71 0 102 39 68 85
-10 14 -11 25 -5 38 15 27 2 54 -33 66 -33 12 -45 12 -65 4z"/>
<path d="M3516 7503 c-49 -26 -45 -106 7 -131 40 -19 79 2 91 50 17 67 -38
112 -98 81z"/>
<path d="M3336 7488 c-43 -61 11 -144 78 -118 40 15 54 89 23 128 -5 6 -27 12
-48 12 -28 0 -42 -6 -53 -22z"/>
<path d="M1081 6868 c-1 -16 -16 -18 -177 -18 -96 0 -173 -4 -170 -8 3 -5 -4
-15 -15 -22 -19 -14 -19 -34 -17 -1040 1 -564 4 -963 5 -887 l4 137 42 0 c31
0 38 3 27 10 -12 8 -9 10 13 10 26 0 27 2 25 48 l-1 47 -4 -42 c-3 -33 -8 -43
-22 -43 -16 0 -18 16 -18 205 0 177 3 205 16 205 11 0 10 3 -5 15 -18 13 -15
14 29 15 44 0 48 -2 45 -22 -2 -13 0 -24 5 -25 4 -2 7 -1 7 2 0 3 0 16 0 30 0
23 -4 25 -40 25 l-40 0 0 133 c0 182 9 287 26 287 8 0 14 -17 17 -47 2 -27 4
50 5 170 1 132 6 217 12 217 5 0 7 7 3 16 -8 21 11 31 48 26 24 -4 30 -9 26
-23 -3 -11 -1 -19 4 -19 5 0 9 9 9 20 0 19 7 20 89 20 85 0 90 -1 94 -22 l4
-23 2 23 c1 21 5 22 95 22 90 0 95 -1 99 -22 l4 -23 2 23 c1 21 5 22 90 22 85
0 90 -1 94 -22 2 -13 4 2 4 32 0 30 -2 45 -4 33 -4 -22 -9 -23 -93 -23 -84 0
-89 1 -93 23 l-4 22 -2 -22 c-1 -22 -5 -23 -95 -23 -90 0 -95 1 -99 23 l-4 22
-2 -22 c-1 -22 -5 -23 -90 -23 -85 0 -90 1 -94 23 l-4 22 -2 -22 c-1 -20 -7
-23 -42 -23 -36 0 -41 2 -36 20 3 11 1 20 -4 20 -5 0 -9 73 -9 165 l0 165 339
0 339 0 4 28 c7 52 -5 77 -40 80 -29 3 -32 0 -32 -22 l0 -26 -304 0 -305 0 -3
-27 c-2 -20 -9 -29 -25 -31 -23 -3 -23 -5 -23 -162 0 -157 0 -159 23 -162 19
-3 22 -10 25 -51 3 -43 1 -48 -22 -57 l-26 -10 -1 -187 c-1 -104 -5 -273 -8
-378 l-7 -190 -2 158 c-2 133 -4 157 -17 157 -13 0 -15 53 -13 443 3 385 5
442 18 442 11 0 16 14 18 53 2 42 0 52 -12 52 -9 0 -16 5 -16 10 0 7 140 10
401 10 l402 0 -6 -41 c-4 -28 -2 -39 6 -36 7 2 13 22 15 45 l3 42 130 0 129 0
0 -40 c0 -22 3 -40 8 -40 4 0 7 15 7 33 l0 32 98 3 c93 3 97 2 97 -18 0 -12 4
-19 9 -16 5 3 7 15 4 26 -5 20 0 20 231 20 220 0 237 -1 235 -17 -3 -34 1 -63
9 -63 4 0 6 16 4 36 l-4 35 48 -3 c48 -3 49 -4 49 -35 0 -18 3 -33 7 -33 8 0
12 30 9 63 -2 16 12 17 178 17 l181 0 0 -40 c0 -31 4 -40 18 -40 13 0 14 2 4
9 -9 5 -11 17 -6 34 6 27 7 27 100 27 91 0 94 -1 100 -24 3 -14 3 -30 -1 -35
-3 -6 -1 -11 4 -11 6 0 11 18 11 40 l0 40 130 0 130 0 0 -39 c0 -22 5 -43 12
-47 8 -5 9 -2 5 10 -4 10 -4 29 -1 42 l6 24 437 -2 436 -3 6 -35 c5 -29 7 -30
9 -10 1 14 2 33 1 43 -2 15 10 17 128 17 l131 0 0 -42 c0 -46 7 -48 13 -3 l4
30 201 0 c111 0 202 3 202 8 0 4 61 7 136 7 123 0 135 -2 133 -17 -1 -10 0
-29 1 -43 2 -20 4 -19 9 10 l6 35 220 0 220 0 6 -35 6 -35 2 43 1 42 180 0
c99 0 180 -4 180 -8 0 -5 25 -7 55 -4 54 4 55 4 55 -22 0 -14 4 -26 9 -26 4 0
8 12 7 28 -1 27 -1 27 73 30 41 2 81 0 89 -3 23 -9 422 -11 422 -2 0 8 354 10
362 1 9 -8 318 -10 318 -1 0 4 38 7 85 7 47 0 85 -3 85 -7 0 -9 219 -7 228 2
8 8 462 6 462 -2 0 -5 50 -8 110 -8 61 0 110 3 110 8 0 4 38 7 85 7 47 0 85
-3 85 -7 0 -5 69 -8 152 -8 l153 0 6 -35 6 -35 2 43 1 42 130 0 130 0 1 -42 2
-43 6 35 6 35 100 0 100 0 6 -35 6 -35 2 43 1 42 80 0 80 0 1 -42 2 -43 6 35
c6 35 7 35 56 35 49 0 50 0 56 -35 5 -29 7 -30 9 -10 1 14 2 33 1 43 -2 13 5
17 33 17 35 0 36 -1 37 -42 l2 -43 6 35 6 35 88 3 c55 2 87 -1 87 -8 0 -5 -9
-10 -20 -10 -17 0 -20 -7 -20 -45 0 -38 3 -45 20 -45 19 0 20 -7 20 -130 l0
-130 24 0 c13 0 27 -6 29 -12 3 -7 6 -3 6 10 l1 22 227 -2 228 -3 -2 -40 -2
-40 10 33 c6 22 16 32 29 32 19 0 20 7 20 130 l0 130 25 0 c23 0 25 4 25 45 0
42 -2 45 -27 45 -19 0 -24 3 -16 11 6 6 26 9 44 7 30 -3 35 -7 40 -38 l6 -35
2 43 1 43 83 -3 c71 -3 82 -5 81 -20 -2 -22 12 -24 20 -3 5 13 28 15 148 13
l143 -3 6 -35 6 -35 2 43 1 42 130 0 c72 0 130 -3 130 -8 0 -4 26 -7 58 -7
l57 0 6 -35 6 -35 2 43 c1 41 1 42 37 42 31 0 36 -3 31 -20 -6 -23 8 -27 17
-5 4 12 25 15 101 15 l95 0 0 -575 c0 -377 -3 -575 -10 -575 -7 0 -10 195 -10
565 0 531 -1 565 -17 565 -17 0 -18 -33 -17 -565 l1 -565 -468 0 -469 0 0 -34
c0 -26 4 -33 18 -32 15 1 17 -10 17 -99 0 -89 -2 -100 -17 -99 -10 1 -18 -2
-18 -7 0 -5 9 -9 20 -9 19 0 20 -7 20 -100 0 -93 -1 -100 -20 -100 -11 0 -20
-4 -20 -10 0 -5 9 -10 20 -10 19 0 20 -7 20 -100 0 -93 -1 -100 -20 -100 -11
0 -20 -4 -20 -10 0 -5 9 -10 20 -10 19 0 20 -7 20 -100 0 -93 -1 -100 -20
-100 -11 0 -20 -4 -20 -10 0 -5 12 -10 28 -10 l27 0 0 445 c0 245 -3 445 -7
445 -5 0 -8 5 -8 10 0 6 85 10 235 10 150 0 235 -4 235 -10 0 -5 5 -10 11 -10
5 0 7 5 4 10 -4 6 29 10 92 10 67 0 93 -3 83 -10 -12 -8 -10 -10 8 -10 13 0
20 4 17 10 -4 6 49 10 142 12 81 2 146 7 145 12 -2 5 2 13 10 17 7 5 8 9 2 9
-7 0 -11 56 -11 175 -1 157 1 177 18 196 11 12 17 25 14 28 -4 3 -10 -1 -14
-8 -14 -21 -18 -1 -19 91 l-1 87 37 4 37 4 -35 1 -36 2 1 188 c0 144 3 186 13
184 6 -1 12 2 12 8 0 5 -6 10 -14 10 -10 0 -13 21 -12 95 l1 95 -80 1 c-272 1
-1219 -1 -1221 -4 -2 -2 -5 -84 -6 -183 -2 -98 -6 -178 -10 -176 -5 1 -123 2
-264 2 l-256 0 18 28 c12 18 13 23 3 15 -13 -10 -15 9 -14 153 l0 164 -100 0
c-55 1 -295 1 -534 0 -401 0 -435 1 -447 18 -13 16 -14 16 -8 0 6 -17 -34 -18
-675 -18 -442 0 -680 4 -676 10 3 6 1 10 -4 10 -6 0 -11 -4 -11 -10 0 -6 -251
-10 -725 -10 -674 1 -725 2 -735 18 -11 16 -11 16 -6 0 5 -16 -14 -17 -231
-18 -214 0 -237 1 -249 17 -13 17 -14 17 -8 0 6 -16 -1 -18 -74 -16 -65 1 -82
5 -85 18 -4 14 -5 14 -6 -1 -1 -16 -133 -17 -2270 -17 -2129 0 -2270 1 -2274
17 -4 16 -5 16 -6 0z"/>
<path d="M3547 6796 c-3 -8 -3 -17 0 -20 4 -3 183 -6 400 -6 386 0 393 0 393
20 0 20 -7 20 -394 20 -329 0 -395 -2 -399 -14z"/>
<path d="M3538 6730 l4 -30 337 0 336 0 -3 -61 c-5 -84 2 -106 36 -111 21 -3
28 0 28 13 0 13 -4 15 -13 7 -7 -5 -20 -8 -28 -4 -11 4 -15 22 -15 76 0 69 0
70 28 71 27 1 27 1 2 8 -15 4 -27 16 -30 31 l-6 25 -340 3 -341 2 5 -30z"/>
<path d="M4213 6443 c0 -35 -3 -66 -6 -70 -4 -3 -7 -15 -7 -25 0 -14 -8 -18
-34 -18 -29 0 -34 3 -31 20 2 11 0 20 -6 20 -5 0 -9 -9 -9 -20 0 -19 -7 -20
-90 -20 -83 0 -90 1 -90 20 0 11 -4 20 -9 20 -6 0 -8 -9 -6 -20 4 -19 -2 -20
-92 -20 -90 0 -95 1 -90 20 3 11 1 20 -4 20 -5 0 -9 -9 -9 -20 0 -19 -7 -20
-89 -20 -85 0 -90 1 -94 23 -2 12 -4 -3 -4 -33 0 -30 2 -45 4 -32 4 21 9 22
84 22 43 0 82 0 87 0 4 1 8 -8 10 -20 2 -11 7 -20 12 -20 4 0 6 9 3 20 -5 20
-2 21 88 18 83 -3 94 -5 91 -20 -2 -10 2 -18 8 -18 5 0 10 9 10 19 0 17 9 20
80 23 95 4 100 2 100 -23 0 -10 4 -19 9 -19 5 0 7 9 4 20 -5 17 0 20 31 20 29
0 36 -4 36 -20 0 -11 4 -20 8 -20 5 0 7 -26 6 -57 l-1 -58 6 50 c5 43 9 50 28
49 12 0 20 3 17 8 -3 4 -14 8 -25 8 -18 0 -20 6 -17 52 3 46 6 53 28 59 l25 7
-27 1 c-26 1 -27 4 -31 59 l-4 57 0 -62z"/>
<path d="M7790 6110 l0 -362 -30 4 c-22 3 -30 0 -30 -10 0 -10 -4 -12 -12 -4
-7 6 -43 12 -81 14 -66 3 -67 3 -67 -22 0 -25 0 -25 80 -20 44 3 80 3 80 0 0
-3 23 -3 50 -2 l50 4 -2 376 c-3 350 -4 377 -20 380 -17 3 -18 -19 -18 -358z"/>
<path d="M4213 5963 c3 -13 1 -23 -4 -23 -5 0 -9 -12 -9 -26 0 -23 -3 -25 -32
-22 -27 2 -33 7 -31 26 2 12 -2 22 -7 22 -6 0 -10 -11 -10 -25 0 -25 -1 -25
-90 -25 -89 0 -90 0 -90 25 0 14 -4 25 -10 25 -5 0 -10 -11 -10 -25 l0 -26
-87 3 c-84 3 -88 4 -87 26 0 12 -3 22 -8 22 -4 0 -8 -11 -8 -25 0 -25 -1 -25
-89 -25 l-90 0 -4 28 c-2 15 -4 2 -4 -28 0 -30 2 -45 4 -32 4 21 9 22 94 22
82 0 89 -1 89 -20 0 -11 4 -20 9 -20 5 0 7 9 4 20 -5 20 -2 21 88 18 83 -3 94
-5 91 -20 -2 -10 2 -18 8 -18 5 0 10 9 10 20 0 19 7 20 90 20 83 0 90 -1 90
-20 0 -11 4 -20 9 -20 5 0 8 8 7 18 -1 12 8 18 32 20 26 3 32 0 32 -17 0 -11
5 -23 10 -26 6 -4 8 -10 6 -14 -3 -4 9 -5 27 -2 31 4 31 5 7 11 -22 5 -25 11
-25 55 0 44 3 50 25 56 23 6 23 7 3 8 -12 1 -27 9 -33 19 -10 15 -11 14 -7 -5z"/>
<path d="M6595 5740 c-3 -5 -3 -14 0 -20 4 -6 177 -10 486 -10 472 0 479 0
479 20 0 20 -7 20 -479 20 -309 0 -482 -4 -486 -10z"/>
<path d="M8063 5370 l-2 -329 22 -3 c19 -3 22 -10 25 -55 2 -29 6 -53 10 -53
4 0 5 22 4 50 l-4 50 91 0 91 0 0 -52 c0 -31 4 -48 8 -40 5 7 8 30 7 52 -2 60
13 48 18 -12 l3 -53 2 53 2 52 90 0 90 0 2 -52 1 -53 7 55 7 55 1 -52 c1 -29
5 -53 10 -53 4 0 5 22 4 49 l-4 49 42 4 c35 3 44 0 50 -17 7 -17 9 -17 9 -2 1
14 10 17 47 17 l46 0 -4 -50 c-1 -28 0 -50 5 -50 4 0 7 25 7 55 0 42 3 55 15
55 8 0 15 3 15 8 0 4 -150 6 -332 5 -220 -2 -328 0 -318 7 13 8 13 10 -1 10
-9 0 -19 -3 -23 -7 -3 -4 -13 -8 -21 -9 -13 -2 -15 18 -15 116 0 137 -2 134
101 128 35 -2 58 1 56 7 -1 6 -31 9 -74 6 l-73 -3 1 103 c1 57 4 115 8 129 l7
25 8 -22 c7 -23 26 -32 26 -13 0 6 -4 10 -10 10 -5 0 -10 7 -10 15 0 9 -7 18
-15 21 -9 4 -15 20 -16 43 -1 20 -4 46 -7 58 -4 13 -8 -125 -9 -307z"/>
<path d="M1780 5448 c0 -5 396 -8 880 -8 484 0 880 3 880 8 0 4 -396 7 -880 7
-484 0 -880 -3 -880 -7z"/>
<path d="M3739 5188 c-1 -7 -1 -32 1 -55 1 -34 -2 -43 -14 -43 -9 0 -16 -4
-16 -10 0 -5 6 -10 13 -10 9 0 8 -3 -2 -9 -11 -7 -11 -9 0 -14 8 -3 -447 -6
-1010 -6 -964 -1 -1025 0 -1037 17 -12 15 -15 15 -23 2 -9 -13 -62 -15 -357
-18 -235 -2 -350 0 -357 7 -6 6 -24 11 -39 11 -44 0 -33 18 15 23 41 3 41 4
-9 5 -44 2 -52 -1 -57 -18 -5 -18 0 -20 38 -20 24 0 45 -5 47 -10 4 -12 3378
-19 3378 -7 0 7 -44 8 -372 8 -179 -1 -188 0 -188 19 0 14 9 20 38 23 l37 4
-37 1 c-35 2 -38 5 -38 30 0 15 5 33 11 39 9 9 8 16 -5 28 -12 12 -16 13 -17
3z"/>
<path d="M5740 5056 l-24 -14 24 -4 c22 -3 26 -9 31 -58 l6 -55 1 53 2 52 90
0 90 0 2 -52 1 -53 7 55 7 55 1 -52 c2 -67 22 -70 22 -3 l0 50 39 0 c22 0 42
-5 44 -12 4 -10 6 -10 6 0 1 8 17 12 47 12 l46 0 -4 -50 c-1 -28 0 -50 5 -50
4 0 8 24 9 53 l1 52 7 -55 7 -55 1 53 2 52 90 0 90 0 0 -51 c0 -27 4 -48 8
-45 5 3 8 26 7 51 -2 39 2 48 19 55 29 12 38 12 -329 11 -218 -1 -325 3 -315
9 25 16 -10 12 -40 -4z"/>
<path d="M9417 5048 c-5 -3 1 -8 14 -10 21 -3 25 -9 30 -58 l6 -55 1 53 2 52
91 0 91 0 -4 -50 c-1 -28 0 -50 5 -50 4 0 7 23 7 50 l0 50 106 0 106 0 -4 -50
c-1 -28 0 -50 5 -50 4 0 8 24 9 53 l1 52 7 -55 7 -55 1 53 2 52 90 0 90 0 1
-52 c0 -46 2 -50 10 -28 6 14 9 38 6 53 -3 22 1 31 17 37 12 5 17 9 11 10 -48
5 -699 3 -708 -2z"/>
<path d="M1860 4748 c0 -5 5 -8 10 -8 14 0 12 -37 -2 -43 -7 -3 20 -6 60 -6
58 -1 72 2 72 14 0 8 6 15 13 15 8 0 7 4 -3 10 -10 6 140 10 433 10 296 0 446
-3 442 -10 -4 -6 27 -10 84 -10 74 0 91 -3 91 -15 0 -12 13 -15 55 -15 40 0
57 4 61 15 5 12 25 15 90 15 49 0 84 4 84 10 0 7 153 10 440 10 l440 0 0 -25
c0 -24 3 -25 60 -25 57 0 60 1 60 25 l0 25 440 0 c287 0 440 -3 440 -10 0 -6
35 -10 84 -10 65 0 85 -3 90 -15 4 -11 21 -15 61 -15 42 0 55 3 55 15 0 12 16
15 85 15 50 0 85 4 85 10 0 7 153 10 440 10 l440 0 6 -25 c6 -23 11 -25 60
-25 51 0 54 1 54 25 l0 25 455 0 c297 0 455 -3 455 -10 0 -6 35 -10 84 -10 67
0 85 -3 90 -16 4 -11 18 -14 58 -12 46 3 53 6 56 26 3 20 9 22 57 22 34 0 55
-5 58 -12 2 -7 8 -9 13 -5 19 18 -27 27 -138 27 -72 0 -118 -4 -118 -10 0 -13
-133 -13 -146 0 -15 15 -1927 15 -1932 1 -5 -14 -152 -15 -152 -1 0 6 -30 10
-70 10 -40 0 -70 -4 -70 -10 0 -13 -133 -13 -146 0 -15 15 -1893 15 -1908 0
-13 -13 -143 -13 -151 0 -3 6 -35 10 -70 10 -35 0 -67 -4 -70 -10 -8 -13 -142
-13 -147 -1 -4 12 -1038 20 -1038 9z"/>
<path d="M8525 4750 c-170 -3 -275 -6 -232 -8 l77 -2 0 -570 0 -570 -187 -3
-188 -2 213 -3 212 -2 0 359 c0 278 3 360 13 364 10 4 10 6 0 6 -10 1 -13 45
-13 186 l0 185 230 0 230 0 -2 -325 c-1 -226 -5 -325 -12 -325 -6 0 -5 -4 2
-9 8 -4 13 -14 12 -22 -1 -8 -2 -31 -1 -51 l1 -38 55 0 c52 0 55 1 55 25 0 22
-4 25 -35 25 l-34 0 2 360 c2 331 3 360 19 360 13 0 18 -11 21 -42 2 -31 4
-24 5 25 3 90 22 87 22 -3 0 -93 15 -90 18 4 2 86 1 87 -108 84 -36 -2 -204
-5 -375 -8z"/>
<path d="M700 4175 c0 -504 2 -575 15 -575 13 0 15 -46 15 -350 l0 -350 -185
0 c-117 0 -185 -4 -185 -10 0 -6 77 -10 210 -10 180 0 210 2 210 15 0 8 -9 15
-20 15 -18 0 -20 7 -20 88 0 82 2 90 23 100 17 8 18 11 5 11 -14 1 -18 10 -18
43 0 29 3 39 11 31 11 -11 59 -5 59 8 0 5 -13 9 -28 9 -28 0 -28 0 -22 50 6
44 4 50 -12 50 -17 0 -18 11 -18 140 l0 140 43 1 c25 1 33 4 18 6 -13 3 -32
13 -43 23 -18 16 -18 19 -3 27 15 9 16 59 17 554 0 403 3 546 11 551 7 4 -9 8
-35 8 l-48 0 0 -575z"/>
<path d="M10213 4735 c0 -12 16 -15 80 -15 l80 0 -5 -70 c-3 -39 -1 -73 3 -76
11 -6 12 5 9 73 -3 80 4 93 51 93 l39 0 0 -575 0 -575 -135 0 c-88 0 -135 4
-135 11 0 5 -4 7 -10 4 -6 -4 -10 5 -10 19 0 23 -4 26 -39 26 -35 0 -39 -3
-45 -31 -5 -27 -8 -30 -21 -19 -10 8 -15 9 -15 1 0 -8 -112 -12 -387 -14 -301
-2 -254 -3 208 -5 511 -2 598 0 609 13 9 11 9 35 1 102 -7 52 -11 286 -11 571
l0 482 -49 0 c-28 0 -53 -4 -56 -10 -3 -5 -37 -10 -76 -10 -39 0 -69 4 -69 10
0 6 -4 10 -8 10 -5 0 -9 -7 -9 -15z"/>
<path d="M10771 4278 c1 -260 -1 -500 -6 -533 -12 -89 -13 -139 -2 -152 5 -7
27 -13 48 -13 l38 0 4 -52 3 -53 2 58 2 57 44 0 c34 0 46 -4 49 -17 4 -17 5
-17 6 0 1 14 10 17 51 17 l50 0 2 -47 c1 -48 1 -48 5 -8 5 47 15 55 70 55 31
0 43 -4 46 -17 4 -16 5 -16 6 0 1 16 9 19 59 17 71 -3 82 -2 82 8 0 4 -115 7
-255 7 -140 0 -255 -3 -255 -7 0 -5 -9 -8 -20 -8 -15 0 -20 7 -20 26 0 17 6
28 20 31 16 4 20 14 20 44 0 32 -3 39 -20 39 -30 0 -28 63 3 78 18 9 19 11 4
11 -17 1 -18 9 -15 76 2 41 0 75 -5 75 -4 0 -7 173 -7 384 l1 385 37 4 c37 4
36 4 -7 5 l-43 2 3 -472z"/>
<path d="M11464 4737 c5 -17 -8 -17 -219 -15 -124 2 -225 0 -225 -4 0 -5 14
-8 30 -8 19 0 30 -5 29 -12 -3 -26 1 -39 11 -33 6 4 8 15 5 26 -6 18 0 19 129
19 114 0 136 -2 136 -15 0 -8 5 -15 10 -15 6 0 10 7 10 15 0 11 12 15 45 15
31 0 45 -4 44 -12 -3 -26 1 -39 11 -33 6 4 8 15 5 26 -6 18 0 19 129 19 l136
0 1 -27 1 -28 11 28 c11 28 11 28 97 25 l85 -3 0 -50 c0 -45 2 -50 23 -51 20
-1 22 3 22 52 0 30 5 54 10 54 6 0 10 -68 10 -185 0 -158 -2 -185 -15 -185 -8
0 -15 -3 -15 -7 0 -5 13 -8 28 -8 l28 0 -3 88 c-2 75 0 88 12 83 8 -3 15 -1
15 3 0 5 -5 11 -12 13 -8 3 -13 35 -14 100 -1 101 -6 120 -28 112 -8 -3 -16 2
-19 13 -4 16 -5 16 -6 1 -1 -16 -22 -17 -251 -17 -226 -1 -250 1 -260 17 -11
16 -11 16 -6 -1z"/>
<path d="M918 4375 c-2 -129 -1 -235 2 -235 3 0 3 -113 0 -250 -3 -138 -4
-255 -2 -260 5 -15 22 -12 22 4 0 11 15 16 53 19 l52 3 -57 2 -57 2 0 100 c0
61 4 100 10 100 6 0 8 4 4 9 -3 6 17 12 47 14 l53 3 -57 2 -57 2 0 100 0 100
57 2 57 2 -52 3 c-48 4 -53 6 -53 28 0 22 5 24 53 28 l52 3 -57 2 -57 2 0 100
c0 83 2 100 15 100 14 0 13 2 -1 16 -13 13 -15 36 -13 125 2 60 0 109 -4 109
-4 0 -9 -106 -10 -235z"/>
<path d="M10777 3260 c-5 -20 -3 -20 559 -18 l564 3 0 -77 c0 -70 2 -77 19
-75 14 1 17 5 11 17 -4 8 -7 39 -6 68 l1 54 165 1 c91 0 127 2 80 4 -51 2 -87
9 -92 16 -6 9 -8 9 -8 0 0 -9 -18 -13 -55 -13 -32 0 -55 4 -55 11 0 6 -9 8
-20 4 -21 -7 -28 10 -7 18 6 3 -250 6 -569 6 -576 1 -582 1 -587 -19z"/>
<path d="M1778 1733 c31 -4 33 -7 30 -36 l-3 -32 -534 -2 c-380 -2 -538 0
-548 8 -9 8 -13 8 -13 0 0 -8 -54 -12 -177 -13 l-178 -2 180 -6 180 -5 0 -68
c0 -37 3 -67 8 -67 4 0 7 32 7 70 l0 70 130 0 130 0 0 -72 c0 -87 12 -84 14 4
l1 63 418 3 417 2 0 45 0 45 -47 -2 c-38 -1 -41 -2 -15 -5z"/>
</g>
</svg>
