<?xml version="1.0" standalone="no"?>
<!DOCTYPE svg PUBLIC "-//W3C//DTD SVG 20010904//EN"
 "http://www.w3.org/TR/2001/REC-SVG-20010904/DTD/svg10.dtd">
<svg version="1.0" xmlns="http://www.w3.org/2000/svg"
 width="1280.000000pt" height="905.000000pt" viewBox="0 0 1280.000000 905.000000"
 preserveAspectRatio="xMidYMid meet">
<metadata>
Created by potrace 1.16, written by Peter Selinger 2001-2019
</metadata>
<g transform="translate(0.000000,905.000000) scale(0.100000,-0.100000)"
fill="#000000" stroke="none">
<path d="M1052 7392 c-8 -2 -12 -30 -12 -88 l0 -84 38 0 c58 0 94 49 57 80
-11 9 -12 16 -2 31 9 14 9 24 1 36 -11 18 -60 33 -82 25z"/>
<path d="M1578 6719 l-3 -64 -217 -1 c-120 0 -218 3 -218 8 0 4 7 8 15 8 8 0
15 8 14 18 0 10 -3 12 -6 5 -2 -7 -11 -13 -19 -13 -8 0 -14 -7 -14 -15 0 -21
-30 -19 -31 3 -1 9 -1 20 0 25 1 4 -8 2 -19 -5 -17 -11 -18 -14 -5 -16 8 -2
13 -8 10 -12 -3 -5 -86 -9 -185 -9 -161 -1 -179 1 -183 17 -3 9 -5 3 -6 -15
-1 -36 -30 -58 -62 -50 -10 3 -22 1 -25 -4 -7 -12 -171 -12 -179 1 -3 5 -13 6
-22 3 -9 -4 -14 -2 -11 3 4 5 -7 9 -23 9 -27 0 -29 -2 -28 -40 0 -22 3 -34 6
-27 2 6 20 12 40 12 l35 0 -4 -89 c-1 -49 0 -84 4 -78 4 7 8 49 8 95 l0 82 63
0 c34 0 92 -3 129 -6 l68 -7 -3 -616 -2 -616 -62 0 c-34 0 -65 -3 -69 -8 -4
-4 25 -7 64 -7 l71 0 0 -120 0 -120 -70 0 c-44 0 -68 -4 -64 -10 3 -5 35 -10
71 -10 l64 0 -2 -820 -3 -820 128 0 127 0 0 -70 c0 -40 4 -70 10 -70 6 0 10
30 10 70 l0 70 198 -2 197 -3 6 -60 6 -60 1 63 2 62 59 0 c38 0 61 -4 64 -12
4 -10 6 -10 6 0 1 8 18 12 51 12 l50 0 0 -66 c0 -41 4 -63 10 -59 6 3 10 33
10 66 l0 59 2715 0 2715 0 0 -60 c0 -33 4 -60 10 -60 6 0 10 27 10 60 l0 59
115 0 114 0 4 -67 3 -67 2 68 2 67 245 0 c157 0 245 -4 245 -10 0 -6 -28 -10
-65 -10 -36 0 -65 -4 -65 -9 0 -5 29 -9 65 -8 l65 2 0 -117 0 -118 -67 0 c-36
0 -63 -3 -59 -7 3 -4 28 -6 55 -4 75 4 84 -10 75 -125 -7 -91 -6 -94 15 -94
19 0 21 6 21 49 0 46 1 48 25 43 24 -4 25 -3 25 57 l0 61 -35 0 -35 0 0 134
c0 120 2 135 18 140 9 2 118 6 242 8 l225 3 -1 78 c0 42 -5 77 -10 77 -5 0 -7
-32 -5 -71 l3 -71 -76 4 c-42 2 -76 0 -76 -4 0 -5 -67 -8 -150 -8 l-150 0 0
43 0 44 -44 -2 c-49 -2 -66 -10 -66 -31 0 -8 -4 -14 -10 -14 -5 0 -10 -7 -10
-15 0 -19 -75 -21 -84 -2 -5 10 -7 10 -12 0 -3 -7 -23 -13 -44 -13 -21 0 -41
6 -44 13 -5 10 -7 10 -12 0 -9 -19 -84 -17 -84 2 0 8 -4 15 -10 15 -5 0 -10
-4 -10 -10 0 -5 -16 -10 -35 -10 -27 0 -33 3 -29 15 5 11 2 13 -10 9 -9 -3
-16 -13 -16 -20 0 -12 -24 -14 -134 -13 -91 0 -137 5 -140 12 -5 9 -8 9 -12 0
-3 -7 -23 -13 -44 -13 -21 0 -41 6 -44 13 -5 10 -7 9 -12 0 -4 -9 -33 -13 -94
-13 -76 0 -89 2 -93 18 -4 16 -5 16 -6 0 -1 -16 -15 -18 -137 -18 -119 0 -139
2 -150 18 -8 10 -13 12 -14 5 0 -8 -14 -13 -35 -13 -21 0 -35 5 -35 13 -1 7
-6 5 -14 -5 -18 -24 -181 -27 -190 -3 -3 8 -13 15 -23 15 -15 0 -16 -2 -3 -10
11 -7 5 -10 -22 -10 -24 0 -38 5 -38 13 -1 7 -6 5 -14 -5 -11 -16 -31 -18
-146 -18 -115 0 -135 2 -146 18 -8 10 -13 12 -14 5 0 -8 -14 -13 -35 -13 -21
0 -35 5 -35 13 -1 7 -6 5 -14 -5 -16 -21 -91 -25 -99 -5 -4 10 -6 10 -6 0 -1
-18 -181 -18 -181 -1 0 9 -3 9 -12 0 -16 -16 -85 -15 -91 1 -4 9 -6 9 -6 0 -1
-20 -91 -17 -91 2 0 8 -8 15 -17 15 -15 0 -16 -2 -3 -10 11 -7 3 -10 -28 -10
-32 0 -41 3 -36 13 4 6 -2 4 -13 -5 -16 -15 -40 -18 -150 -18 -95 0 -133 3
-137 13 -5 10 -7 10 -12 0 -8 -19 -80 -17 -88 2 -3 8 -13 15 -23 15 -15 0 -16
-2 -3 -10 11 -7 3 -10 -28 -10 -31 0 -41 3 -37 13 4 6 0 4 -8 -5 -11 -15 -30
-18 -100 -18 -58 0 -87 4 -91 13 -5 10 -7 10 -12 0 -9 -20 -134 -18 -134 2 0
8 9 15 20 15 13 0 20 7 20 20 0 17 -7 20 -50 20 -43 0 -50 -3 -50 -20 0 -15 7
-20 26 -20 16 0 24 -5 22 -12 -6 -18 -2319 -19 -2325 -1 -2 6 6 13 19 15 12 2
24 11 26 21 3 14 -5 17 -53 17 -48 0 -56 -3 -53 -17 2 -10 13 -19 26 -21 40
-6 26 -32 -18 -32 -29 0 -40 4 -40 15 0 8 -4 15 -10 15 -5 0 -10 -7 -10 -15 0
-12 -17 -15 -90 -15 -79 0 -90 2 -90 18 -1 16 -1 16 -11 0 -9 -16 -27 -18
-139 -18 -112 0 -130 2 -139 18 -10 16 -10 16 -11 0 0 -12 -8 -18 -25 -18 -14
0 -25 6 -25 14 0 10 -21 13 -94 12 -52 -1 -92 2 -90 6 2 3 0 9 -6 13 -5 3 -10
-3 -10 -14 0 -19 -6 -21 -75 -21 -71 0 -75 1 -75 23 -1 19 -2 20 -13 7 -7 -8
-21 -15 -32 -14 -11 1 -46 2 -77 3 l-58 1 0 800 0 800 -27 0 -28 0 3 140 3
140 25 0 24 0 0 145 c0 122 -2 145 -15 145 -13 0 -15 56 -15 445 0 438 0 445
20 445 15 0 20 7 20 25 l0 25 240 0 239 -1 4 -82 3 -82 2 83 c1 47 6 82 12 82
7 0 10 -239 10 -714 0 -668 -2 -715 -18 -719 -16 -4 -16 -5 0 -6 16 -1 18 -27
21 -348 1 -192 3 132 5 720 l2 1067 103 0 c57 0 106 3 109 6 3 3 4 14 1 25 -7
27 -73 28 -73 0 0 -18 -13 -19 -330 -18 -313 0 -330 1 -330 19 0 10 -7 18 -15
18 -8 0 -15 5 -15 10 0 7 140 10 400 10 275 0 400 -3 400 -11 0 -5 5 -7 10 -4
6 4 8 11 5 16 -4 5 46 9 124 9 110 0 131 -2 131 -15 0 -8 5 -15 10 -15 6 0 10
5 10 10 0 6 38 10 94 10 l94 0 10 -37 10 -38 1 43 1 42 90 0 c79 0 90 -2 90
-17 1 -17 1 -17 14 0 11 15 31 17 140 17 105 0 126 -2 126 -15 0 -8 4 -15 9
-15 5 0 9 15 9 34 0 19 3 39 7 45 3 6 1 11 -4 11 -6 0 -11 -11 -11 -25 0 -14
-4 -25 -10 -25 -6 0 -10 28 -10 65 0 40 -4 65 -11 65 -6 0 -9 -23 -8 -62 l3
-63 -49 -3 c-32 -2 -51 1 -56 10 -7 10 -9 10 -9 1 0 -9 -17 -13 -50 -13 l-50
0 0 65 c0 37 -4 65 -10 65 -6 0 -10 -28 -10 -65 l0 -65 -215 2 -215 1 0 64 c0
35 -4 63 -10 63 -6 0 -10 -28 -10 -65 l0 -64 -109 0 -110 0 0 60 c1 82 -9 87
-13 8z"/>
<path d="M3238 6774 c-5 -4 -8 -33 -8 -64 l0 -57 -306 -2 c-296 -1 -307 -1
-321 -21 -13 -18 -12 -20 11 -20 16 0 26 6 26 15 0 13 27 15 180 15 l180 0 0
-40 c0 -22 5 -40 11 -40 5 0 8 4 4 10 -3 5 -3 21 1 35 6 25 8 25 100 25 56 0
94 -4 94 -10 0 -5 5 -10 10 -10 6 0 10 7 10 15 0 13 21 15 130 15 l130 0 1
-42 c1 -41 1 -41 9 -14 5 16 7 33 4 38 -3 4 193 8 435 8 l441 0 1 -27 c1 -28
1 -28 11 5 l11 32 128 0 c90 0 128 -3 126 -11 -1 -6 3 -13 9 -16 8 -2 13 13
16 42 2 25 0 45 -4 45 -5 0 -8 -12 -8 -26 0 -15 -4 -23 -11 -19 -6 4 -10 19
-9 33 4 53 0 92 -9 92 -5 0 -7 -21 -5 -47 5 -75 0 -83 -56 -83 -42 0 -49 3
-53 23 l-4 22 -2 -22 c-1 -21 -6 -23 -51 -23 l-50 0 0 65 c0 37 -4 65 -10 65
-6 0 -10 -28 -10 -64 l0 -65 -185 0 c-154 0 -187 2 -192 14 -3 8 -12 15 -20
15 -13 0 -13 -3 -3 -15 10 -12 10 -15 -2 -15 -8 0 -20 6 -27 13 -11 10 -13 9
-7 -1 6 -10 -41 -12 -236 -10 l-243 3 -2 58 c-2 82 -13 85 -13 4 l0 -67 -54 0
c-34 0 -56 5 -59 13 -4 10 -6 10 -6 0 -1 -9 -18 -13 -51 -13 l-49 0 -3 66 c-2
36 -6 62 -10 58z"/>
<path d="M9120 6714 l0 -65 -72 2 c-135 3 -218 -1 -218 -11 0 -6 53 -10 138
-10 92 0 132 -3 122 -10 -12 -8 -11 -10 8 -10 13 0 22 6 22 15 0 13 19 15 128
13 95 -2 126 -6 125 -15 -2 -7 4 -13 12 -13 11 0 15 11 14 48 -1 29 -4 37 -6
19 -8 -48 -23 -18 -23 45 0 34 -3 58 -6 55 -4 -4 -6 -33 -6 -66 l1 -60 -110 0
-109 0 0 64 c0 37 -4 65 -10 65 -6 0 -10 -29 -10 -66z"/>
<path d="M11000 6674 l0 -25 -122 1 c-157 1 -206 0 -190 -7 15 -6 18 -348 2
-358 -5 -3 -10 -3 -10 2 0 4 -19 8 -42 8 l-43 0 -6 75 -5 75 -2 -77 -2 -77
-140 0 -140 0 0 74 c0 43 -4 75 -10 75 -6 0 -10 -32 -10 -75 l0 -75 -50 0 -50
0 0 175 c0 133 3 175 13 176 6 1 -12 5 -42 9 -76 11 -98 1 -103 -49 -3 -39 -2
-41 29 -47 19 -4 33 -12 33 -20 0 -8 9 -14 20 -14 19 0 20 -7 20 -129 0 -127
0 -130 23 -133 18 -2 22 -9 22 -41 0 -20 3 -37 8 -37 4 0 7 23 7 50 0 49 1 50
30 50 20 0 30 -5 30 -15 0 -14 2 -14 23 0 30 19 288 17 295 -2 5 -18 22 -16
22 2 0 9 9 15 25 15 23 0 25 -4 27 -47 1 -36 2 -40 5 -16 3 24 11 34 34 42
l29 10 0 125 c0 119 1 126 20 126 14 0 20 7 20 23 0 38 -12 67 -26 67 -8 0
-14 5 -14 10 0 6 16 10 35 10 30 0 35 -4 41 -27 10 -48 12 -49 13 -5 l1 42 80
0 c64 0 80 -3 80 -15 0 -8 6 -15 13 -15 7 0 13 17 15 45 1 25 0 45 -3 45 -3 0
-5 -11 -5 -26z"/>
<path d="M5010 6663 c0 -10 -28 -13 -107 -12 -166 2 -153 6 -152 -48 1 -49 3
-49 13 0 l6 27 145 0 c156 0 148 3 148 -52 0 -10 3 -16 7 -13 4 2 6 20 5 40
l-1 35 133 0 c109 0 133 -3 133 -14 0 -8 4 -18 10 -21 6 -3 7 1 4 9 -5 14 19
16 215 16 141 0 221 -4 221 -10 0 -5 5 -10 10 -10 6 0 10 7 10 15 0 13 27 15
180 15 180 0 180 0 181 -22 1 -17 2 -19 6 -5 3 13 15 17 53 17 38 0 50 -4 53
-17 4 -14 5 -12 6 5 1 21 5 22 86 22 74 0 85 -2 86 -17 0 -11 3 -13 6 -5 3 9
53 12 199 12 169 0 194 -2 194 -16 0 -8 4 -13 10 -9 5 3 7 12 3 20 -4 13 22
15 182 15 162 0 186 -2 181 -15 -3 -8 -1 -15 4 -15 6 0 10 5 10 10 0 6 55 10
145 10 90 0 145 -4 145 -10 0 -5 5 -10 10 -10 6 0 10 7 10 15 0 12 16 15 80
15 64 0 80 -3 80 -15 0 -8 5 -15 10 -15 6 0 10 5 10 10 0 6 35 10 85 10 50 0
85 4 85 10 0 11 -6 12 -65 12 -22 0 -46 5 -54 11 -11 9 -13 9 -8 0 11 -17
-2754 -17 -2765 0 -6 9 -8 9 -8 0z"/>
<path d="M12011 6662 c-1 -10 -20 -13 -76 -11 -42 1 -78 0 -81 -3 -3 -3 -6
-24 -7 -47 -2 -29 1 -41 11 -41 7 0 11 4 7 10 -3 5 -3 21 1 35 6 24 10 26 58
23 l51 -3 2 -1232 2 -1232 -37 -8 -37 -7 30 -6 c61 -12 65 -6 65 86 0 60 3 83
12 82 6 -2 13 6 15 17 1 11 0 14 -3 8 -16 -36 -24 -2 -24 102 0 70 4 115 10
115 6 0 10 8 10 18 0 14 -2 15 -10 2 -7 -10 -10 32 -10 128 0 88 4 142 10 142
6 0 10 7 10 16 0 8 -4 13 -10 9 -5 -3 -9 49 -9 135 -1 85 3 140 9 140 6 0 10
5 10 11 0 5 -4 7 -10 4 -5 -3 -10 3 -10 14 0 10 6 22 13 24 10 4 10 6 0 6 -10
1 -13 73 -13 326 0 316 1 326 21 346 11 11 17 24 13 27 -3 4 -9 1 -11 -5 -17
-49 -23 19 -23 272 0 247 2 285 15 285 8 0 15 7 15 16 0 14 -3 14 -15 4 -13
-11 -15 -1 -15 78 0 59 4 92 12 94 6 2 8 11 5 19 -4 10 -6 10 -6 1z"/>
<path d="M7758 6613 c-21 -5 -25 -53 -4 -53 11 0 14 -53 18 -277 3 -153 3
-381 0 -507 l-5 -228 -523 7 -524 8 0 -27 0 -26 545 0 c538 0 545 0 545 20 0
20 7 20 560 20 l560 0 0 -45 c0 -41 2 -45 25 -45 24 0 25 3 25 60 0 53 -2 60
-20 60 -19 0 -20 8 -23 488 l-2 487 -3 -497 -2 -498 -296 0 c-194 0 -293 3
-289 10 3 6 1 10 -4 10 -6 0 -11 -4 -11 -10 0 -15 -197 -13 -203 3 -4 10 -6
10 -6 0 -1 -10 -39 -13 -156 -13 l-155 0 0 181 c0 117 -3 178 -10 174 -6 -4
-10 32 -10 99 0 64 4 106 10 106 6 0 10 32 10 75 0 43 -4 75 -10 75 -6 0 -10
56 -10 149 0 143 1 150 19 146 23 -4 43 16 33 31 -8 13 -59 23 -84 17z"/>
<path d="M3540 6595 c0 -8 8 -15 18 -15 50 -1 393 -1 570 0 173 0 202 2 202
15 0 13 -51 15 -395 15 -344 0 -395 -2 -395 -15z"/>
<path d="M11918 6098 c-4 -631 -3 -638 22 -638 20 0 20 11 20 575 0 567 0 575
-20 575 -19 0 -20 -9 -22 -512z"/>
<path d="M8367 4552 c-16 -3 -17 -46 -17 -578 l0 -574 25 0 25 0 0 363 c1 199
0 446 0 550 l-1 187 231 0 230 0 0 -550 0 -550 34 0 c19 0 36 -5 38 -11 3 -8
31 -9 108 0 112 11 357 17 610 13 85 -2 230 -2 323 -2 l167 0 0 70 0 70 -35 0
-35 0 0 -65 0 -65 -285 0 c-256 0 -317 5 -272 23 7 3 6 6 -5 6 -9 1 -20 -3
-23 -9 -9 -15 -128 -12 -144 3 -10 10 -11 9 -6 -5 7 -17 -6 -18 -184 -18 -163
0 -191 2 -191 15 0 10 -10 15 -30 15 l-30 0 0 120 0 120 29 0 c25 0 28 3 23
25 -3 18 -11 25 -28 25 l-24 0 0 385 0 385 25 0 c21 0 25 5 25 28 l0 27 -283
0 c-156 0 -291 -1 -300 -3z"/>
<path d="M10742 3663 l-2 -263 143 2 142 2 -137 3 -138 4 0 24 0 25 129 0 c94
0 131 -3 134 -12 4 -8 6 -7 6 3 1 11 -10 19 -34 23 l-35 7 -2 62 -1 62 -6 -64
-6 -65 -67 -3 c-54 -3 -68 0 -68 11 0 8 5 18 10 21 16 10 12 91 -5 105 -12 10
-15 10 -15 -4 0 -9 5 -16 10 -16 6 0 10 -19 10 -42 0 -23 -3 -38 -7 -34 -5 4
-8 13 -8 19 0 7 -10 11 -22 9 -23 -3 -23 -3 -26 190 -2 178 -3 173 -5 -69z"/>
<path d="M9720 3718 c-14 -5 -35 -7 -47 -5 -13 2 -23 1 -23 -4 0 -4 12 -9 27
-11 26 -3 28 -6 30 -60 l2 -58 -64 0 -63 0 8 35 c4 19 4 35 0 35 -5 0 -11 17
-13 38 -2 20 -4 -33 -5 -118 -1 -113 1 -150 9 -137 6 10 8 24 6 31 -3 8 0 19
6 26 9 10 9 14 0 17 -7 3 -13 18 -13 34 0 27 3 29 36 29 28 0 35 -3 30 -15 -3
-8 -2 -14 2 -14 4 1 19 1 35 0 26 -1 27 -2 28 -63 0 -45 3 -57 9 -43 7 17 9
17 9 3 1 -25 21 -23 21 2 0 11 -7 20 -15 20 -11 0 -15 12 -15 44 0 30 5 46 15
50 8 3 15 17 15 31 0 16 -6 25 -15 25 -22 0 -21 76 1 88 26 15 13 31 -16 20z"/>
<path d="M11910 3671 c0 -6 16 -11 35 -11 l35 0 0 -109 c0 -77 -4 -112 -12
-118 -9 -5 -1 -10 22 -14 19 -4 -142 -6 -358 -5 -215 0 -392 -2 -392 -6 0 -5
7 -8 15 -8 10 0 15 -16 18 -57 l3 -58 2 57 2 57 372 0 c254 0 374 3 376 10 2
7 79 11 225 12 122 1 214 3 205 6 -21 5 -24 29 -5 36 6 3 2 6 -10 6 -17 1 -23
-5 -23 -19 0 -19 -7 -20 -90 -20 -71 0 -90 3 -90 14 0 8 6 17 13 19 6 3 -31 5
-83 4 l-95 -1 74 -5 c46 -4 76 -11 79 -18 3 -10 -19 -13 -87 -13 -72 0 -91 3
-91 14 0 8 6 17 13 19 6 3 0 5 -16 4 -18 -1 -26 -6 -23 -14 3 -7 0 -12 -7 -10
-8 1 -14 38 -17 117 l-5 115 -42 3 c-26 2 -43 -1 -43 -7z"/>
<path d="M10749 3098 c0 -2 -2 -13 -5 -25 l-4 -23 548 0 c413 0 551 3 560 12
9 9 12 -6 12 -70 0 -66 3 -82 15 -82 12 0 15 15 15 75 0 46 4 75 11 75 5 0 7
-4 4 -10 -3 -5 0 -7 7 -5 8 3 14 14 15 24 1 15 -9 19 -65 25 -62 5 -1111 9
-1113 4z"/>
<path d="M1730 2800 l0 -80 -90 1 -90 1 0 32 c0 23 -3 27 -10 16 -5 -8 -7 -23
-4 -32 5 -17 -27 -18 -580 -18 -514 0 -586 -2 -586 -15 0 -8 9 -15 20 -15 20
0 20 -8 23 -592 l2 -593 3 592 c2 524 4 592 17 587 11 -5 13 -2 9 10 -5 14 9
16 125 16 98 0 131 -3 131 -12 0 -10 54 -12 247 -10 192 2 248 0 255 -10 6
-10 8 -9 8 4 0 9 8 18 18 20 26 6 63 -3 56 -13 -3 -5 2 -6 10 -3 9 3 16 10 16
15 0 5 45 9 100 9 55 0 100 -3 100 -7 0 -5 54 -6 120 -4 83 2 120 0 121 -8 1
-6 3 -15 4 -21 1 -5 3 -28 4 -50 1 -38 2 -40 27 -34 24 6 25 5 22 -27 -2 -27
-7 -34 -25 -34 -12 0 -25 -4 -29 -8 -4 -4 7 -7 24 -7 31 0 32 -1 32 -45 0 -33
4 -45 15 -45 13 0 15 -22 15 -140 l0 -140 -42 -1 c-30 -2 -35 -3 -15 -6 l27
-4 0 -135 0 -134 -25 0 c-22 0 -25 -4 -25 -40 0 -36 3 -40 25 -40 l25 0 0
-132 c0 -145 5 -178 26 -178 12 0 14 98 14 625 l0 625 -50 0 -50 0 0 80 c0 47
-4 80 -10 80 -6 0 -10 -33 -10 -80z"/>
</g>
</svg>
