<?xml version="1.0" standalone="no"?>
<!DOCTYPE svg PUBLIC "-//W3C//DTD SVG 20010904//EN"
 "http://www.w3.org/TR/2001/REC-SVG-20010904/DTD/svg10.dtd">
<svg version="1.0" xmlns="http://www.w3.org/2000/svg"
 width="1280.000000pt" height="905.000000pt" viewBox="0 0 1280.000000 905.000000"
 preserveAspectRatio="xMidYMid meet">
<metadata>
Created by potrace 1.16, written by Peter Selinger 2001-2019
</metadata>
<g transform="translate(0.000000,905.000000) scale(0.100000,-0.100000)"
fill="#000000" stroke="none">
<path d="M3390 7538 l-1 -453 -142 -191 c-78 -105 -187 -251 -241 -325 -55
-74 -150 -202 -211 -284 -61 -83 -151 -203 -198 -268 l-87 -117 -760 0 -760 0
0 -1025 0 -1025 1643 0 c904 0 1773 3 1930 7 l287 6 2 191 3 191 183 5 c113 3
185 9 190 16 4 6 34 32 67 59 33 26 75 61 93 76 l32 28 0 231 0 230 90 0 90 0
0 1550 0 1550 -1105 0 -1105 0 0 -452z m1160 87 l0 -345 275 0 275 0 0 -1192
-1 -1193 -40 -30 c-22 -16 -77 -61 -123 -100 -45 -38 -149 -124 -231 -190 -81
-66 -153 -125 -159 -130 -6 -6 -30 -25 -52 -43 l-42 -32 -1296 0 -1296 0 0
755 0 755 329 0 329 0 98 133 c89 120 316 426 484 652 37 50 119 161 183 247
l117 157 0 451 0 450 575 0 575 0 0 -345z m538 8 c-1 -186 -3 -314 -5 -285 -2
28 -9 52 -14 52 -6 0 -55 -22 -108 -50 -57 -29 -111 -50 -129 -50 l-32 0 0
165 c0 103 -4 165 -10 165 -6 0 -11 -64 -12 -167 l-2 -168 -3 168 c-2 97 -7
167 -13 167 -6 0 -11 -70 -13 -167 l-3 -168 -2 173 c-1 106 -6 172 -12 172 -6
0 -11 -66 -12 -172 l-2 -173 -6 170 c-4 152 -7 170 -22 171 -17 2 -18 -12 -18
-167 0 -101 -4 -169 -10 -169 -5 0 -9 67 -9 165 0 91 -3 165 -6 165 -4 0 -6
-74 -5 -165 0 -109 -3 -165 -10 -165 -6 0 -11 61 -12 173 l-2 172 -3 -172 c-2
-109 -7 -173 -14 -173 -6 0 -9 60 -8 168 1 134 -2 167 -13 167 -10 0 -14 35
-16 168 l-2 167 265 0 265 0 -2 -337z m492 -3 l0 -340 -235 0 -235 0 0 340 0
340 235 0 235 0 0 -340z m0 -660 l0 -300 -230 0 -230 0 0 187 0 187 50 97 c28
53 50 102 50 108 0 5 -24 12 -52 14 -29 2 52 4 180 5 l232 2 0 -300z m-177
-328 l177 -2 0 -405 0 -405 -230 0 -230 0 0 328 0 328 55 66 c30 36 55 69 55
72 0 3 -25 6 -56 6 -30 0 -53 4 -50 8 3 5 27 8 53 7 26 -1 128 -2 226 -3z
m-3563 -1217 l0 -455 -410 0 c-321 0 -410 3 -410 13 0 6 -1 211 -3 454 l-2
443 413 0 412 0 0 -455z m3740 -65 l0 -450 -230 0 -230 0 0 450 0 450 230 0
230 0 0 -450z m-3740 -483 c0 -86 -5 -102 -74 -264 -14 -34 -26 -65 -26 -68 0
-3 23 -5 50 -5 l50 0 0 -85 0 -85 -195 0 -195 0 0 210 0 210 -72 0 -73 0 3
-210 c2 -186 1 -210 -13 -210 -14 0 -15 24 -13 210 l3 210 -40 0 -40 0 3 -210
c2 -186 1 -210 -13 -210 -14 0 -15 24 -13 210 3 194 2 210 -14 210 -17 0 -18
-17 -18 -210 0 -133 -4 -210 -10 -210 -6 0 -10 77 -10 210 0 193 -1 210 -17
210 -17 0 -18 -16 -15 -210 2 -166 0 -210 -10 -210 -10 0 -13 45 -12 210 2
200 1 210 -17 210 -18 0 -19 -11 -19 -210 0 -180 -2 -210 -15 -210 -13 0 -15
39 -15 295 l0 295 415 0 415 0 0 -83z m3570 -209 l0 -223 -111 -94 -112 -93
-358 7 -359 8 0 42 c0 42 1 43 117 139 l117 98 26 -29 c14 -16 38 -44 53 -62
20 -24 31 -31 36 -22 4 7 14 58 21 114 7 56 17 110 22 120 8 15 25 17 133 17
69 0 125 3 125 8 0 4 -20 30 -45 59 -25 28 -45 53 -45 56 0 2 21 21 47 41 l46
36 144 0 143 0 0 -222z m-3200 -558 l0 -240 -605 0 -605 0 0 240 0 240 605 0
605 0 0 -240z m368 138 l3 -98 444 0 445 0 0 -140 0 -140 -620 0 -619 0 -3
236 c-2 130 -1 238 1 240 3 2 82 3 175 2 l171 -3 3 -97z m1472 -138 l0 -240
-285 0 -285 0 0 145 0 145 -442 2 -443 3 -3 93 -3 92 731 0 730 0 0 -240z
m400 0 l0 -240 -190 0 -190 0 0 240 0 240 190 0 190 0 0 -240z m380 -50 l0
-190 -177 2 -178 3 1 25 c1 14 2 98 3 188 l1 162 175 0 175 0 0 -190z"/>
<path d="M6537 7953 c-9 -8 -9 -1961 0 -3230 l6 -983 2629 0 2628 0 0 2110 0
2110 -2628 0 c-1446 0 -2632 -3 -2635 -7z m1683 -668 l0 -655 -40 0 -40 0 0
95 c0 52 -3 95 -7 95 -5 0 -62 -43 -128 -95 l-119 -95 -663 0 -663 0 0 655 0
655 830 0 830 0 0 -655z m1140 0 l0 -655 -402 0 -403 1 -119 94 c-66 52 -123
95 -128 95 -4 0 -8 -43 -8 -95 l0 -95 -30 0 -30 0 0 655 0 655 560 0 560 0 0
-655z m2418 -47 l-3 -703 -717 -2 -717 -2 -73 57 c-40 31 -96 75 -124 99 -28
24 -54 43 -57 43 -4 0 -8 -44 -9 -97 -3 -97 -3 -98 -28 -98 l-25 0 -3 703 -2
702 880 0 880 0 -2 -702z m-1778 642 c0 -20 -7 -20 -305 -20 -298 0 -305 0
-305 20 0 20 7 20 305 20 298 0 305 0 305 -20z m-2 -97 l3 -23 -305 0 -306 0
0 25 0 24 303 -2 302 -2 3 -22z m-8 -48 c0 -13 -40 -15 -302 -14 -167 1 -292
4 -278 7 l25 5 -25 8 c-14 4 111 7 278 8 262 1 302 -1 302 -14z m10 -50 l0
-25 -305 0 -305 0 0 25 0 25 305 0 305 0 0 -25z m-10 -50 c0 -13 -40 -15 -300
-15 -260 0 -300 2 -300 15 0 13 40 15 300 15 260 0 300 -2 300 -15z m10 -40
c0 -13 -41 -15 -305 -15 -264 0 -305 2 -305 15 0 13 41 15 305 15 264 0 305
-2 305 -15z m0 -90 l0 -25 -310 0 -310 0 0 25 0 25 310 0 310 0 0 -25z m0
-100 l0 -25 -310 0 -310 0 0 25 0 25 310 0 310 0 0 -25z m-10 -50 c0 -13 -35
-15 -277 -13 -210 2 -277 6 -281 16 -3 9 57 12 277 12 244 0 281 -2 281 -15z
m8 -47 l-3 -23 -305 0 -305 0 -3 23 -3 22 311 0 311 0 -3 -22z m-8 -53 c0 -18
-40 -20 -41 -2 0 10 -2 10 -6 0 -3 -10 -68 -13 -276 -12 -161 0 -264 4 -252 9
14 6 15 9 5 9 -9 1 -21 -4 -28 -11 -9 -9 -12 -8 -12 5 0 16 25 17 305 17 264
0 305 -2 305 -15z m12 -382 l3 -358 283 -3 282 -2 0 -705 0 -705 -765 0 -765
0 0 -670 0 -670 -360 0 -360 0 0 655 0 655 -310 0 -310 0 0 770 0 770 840 0
840 0 0 310 0 310 310 0 310 0 2 -357z m-1872 -163 l0 -80 -105 0 c-58 0 -105
2 -105 4 0 2 40 34 90 70 49 37 92 71 95 76 16 27 25 2 25 -70z m314 -13 c42
-31 76 -59 76 -62 0 -3 -45 -5 -100 -5 l-100 0 0 81 0 81 24 -19 c13 -10 58
-44 100 -76z m1791 -106 c46 -37 64 -57 54 -59 -9 -2 -56 -2 -105 0 l-89 3 -3
84 -3 84 38 -28 c21 -16 69 -53 108 -84z m-2555 -630 c0 -502 -3 -640 -12
-644 -19 -7 -242 -187 -246 -198 -2 -5 52 -9 127 -9 124 0 131 -1 131 -20 0
-20 -7 -20 -560 -20 l-560 0 0 765 0 765 560 0 560 0 0 -639z m4100 -156 l0
-705 -595 2 -595 3 0 698 c0 383 0 699 0 702 0 3 268 5 595 5 l595 0 0 -705z
m-4110 -595 l0 -80 -107 0 c-87 1 -105 3 -93 13 9 7 51 38 93 70 42 32 79 63
83 68 15 26 24 1 24 -71z m2130 -369 l0 -240 -22 -3 c-13 -2 -22 -6 -20 -10 1
-5 2 -120 2 -258 0 -244 0 -250 20 -250 20 0 20 -5 18 -157 l-3 -158 -365 0
-365 0 -3 658 -2 657 370 0 370 0 0 -239z m60 139 c0 -55 3 -100 7 -100 8 0
99 68 189 142 l71 58 826 0 827 0 -2 -657 -3 -658 -975 0 -975 0 -3 645 c-1
355 0 651 3 658 2 6 11 12 20 12 12 0 15 -17 15 -100z m220 86 c0 -5 -198
-156 -204 -156 -3 0 -6 36 -6 80 l0 80 105 0 c58 0 105 -2 105 -4z m-2135 -83
c48 -38 108 -85 134 -106 l46 -37 5 102 5 103 83 3 82 3 -2 -643 -3 -643 -867
-3 -868 -2 0 638 c0 351 3 642 7 645 3 4 295 7 649 7 l642 0 87 -67z m175 -23
c0 -44 -3 -80 -7 -80 -7 0 -180 134 -200 154 -4 3 42 6 100 6 l107 0 0 -80z"/>
<path d="M8390 5825 l0 -445 775 0 775 0 0 445 0 445 -775 0 -775 0 0 -445z
m310 -6 l0 -419 -145 0 -145 0 0 420 0 419 133 3 c72 2 138 1 145 -1 9 -2 12
-95 12 -422z m1230 251 l0 -170 -610 0 -610 0 0 170 0 170 610 0 610 0 0 -170z
m0 -240 l0 -50 -610 0 -610 0 0 50 0 50 610 0 610 0 0 -50z m0 -250 l0 -180
-610 0 -610 0 0 180 0 180 610 0 610 0 0 -180z"/>
<path d="M9079 4586 c8 -10 11 -85 9 -260 l-3 -246 28 0 27 0 0 255 c0 248 1
255 20 255 19 0 20 -7 20 -255 l0 -255 30 0 30 0 0 255 c0 248 1 255 20 255
19 0 20 -7 20 -255 l0 -255 30 0 30 0 0 260 0 260 -136 0 c-116 0 -135 -2
-125 -14z"/>
<path d="M9378 4592 c10 -7 12 -64 10 -260 l-3 -252 25 0 25 0 0 260 0 260
-35 0 c-22 0 -30 -3 -22 -8z"/>
<path d="M9460 4341 l0 -261 25 0 25 0 0 250 c0 138 0 253 0 258 0 4 -11 8
-25 10 l-25 3 0 -260z"/>
<path d="M9560 4341 l0 -261 30 0 30 0 -2 258 -3 257 -27 3 -28 3 0 -260z"/>
<path d="M9660 4341 l0 -261 28 0 27 0 -2 257 -2 258 -26 3 -25 3 0 -260z"/>
<path d="M6050 2389 c0 -29 -2 -30 -30 -24 -23 5 -35 1 -55 -19 -30 -30 -32
-64 -4 -99 17 -23 27 -26 71 -24 28 1 50 5 49 10 0 4 -1 48 -1 97 0 73 -3 90
-15 90 -10 0 -15 -10 -15 -31z"/>
<path d="M6460 2350 c-11 -11 -21 -24 -21 -30 -1 -5 -2 -16 -3 -22 -4 -25 24
-66 49 -72 57 -14 95 14 95 71 0 34 -8 46 -37 62 -32 16 -60 14 -83 -9z"/>
<path d="M6639 2360 c-9 -5 -22 -22 -28 -38 -24 -58 25 -111 91 -97 33 8 48
31 48 74 0 51 -66 87 -111 61z"/>
<path d="M4802 1993 c2 -79 6 -98 18 -98 11 0 16 16 19 65 l4 65 16 -65 c13
-52 20 -65 35 -65 16 0 23 14 37 70 l17 70 1 -72 c1 -58 4 -73 16 -73 12 0 15
18 15 100 l0 100 -28 0 c-28 0 -29 -3 -42 -72 -13 -71 -13 -72 -22 -38 -30
116 -27 110 -59 110 l-30 0 3 -97z"/>
<path d="M6774 2077 c-3 -8 -4 -52 -2 -98 l3 -84 62 -3 c52 -2 66 1 83 18 24
24 26 53 5 74 -9 9 -11 17 -5 21 18 11 11 64 -9 75 -29 15 -131 13 -137 -3z"/>
<path d="M6554 2032 c-16 -11 -34 -48 -34 -72 0 -11 12 -32 26 -47 20 -20 32
-24 55 -19 32 6 39 -7 12 -22 -10 -6 -27 -6 -45 0 -34 12 -46 5 -28 -17 17
-20 93 -20 110 0 7 9 13 48 14 96 1 79 0 80 -22 76 -12 -2 -25 0 -28 4 -6 11
-45 11 -60 1z"/>
<path d="M7061 2021 c-31 -31 -25 -87 10 -114 53 -39 123 7 112 73 -5 34 -23
50 -65 56 -28 5 -40 2 -57 -15z"/>
<path d="M5113 1755 c-45 -32 -24 -84 40 -105 42 -13 58 -37 36 -51 -22 -14
-37 -11 -58 12 -14 15 -24 18 -36 12 -14 -8 -14 -12 5 -36 41 -51 140 -30 140
30 0 39 -11 52 -61 68 -54 18 -67 45 -21 45 15 0 33 -5 39 -11 6 -6 19 -9 28
-7 16 3 16 5 -1 26 -25 30 -82 39 -111 17z"/>
<path d="M6336 1747 c-14 -15 -26 -31 -26 -37 0 -18 48 -60 68 -60 10 0 27 -6
37 -14 16 -12 17 -16 6 -30 -19 -22 -47 -20 -65 5 -9 13 -21 19 -30 16 -42
-16 7 -67 64 -67 94 0 108 106 17 125 -37 8 -59 24 -51 36 7 12 51 11 59 -1 7
-12 45 -14 45 -2 0 21 -28 43 -62 48 -30 5 -41 2 -62 -19z"/>
<path d="M5450 1660 c0 -93 1 -100 20 -100 17 0 20 7 20 40 0 39 1 40 35 40
38 0 75 28 75 58 0 10 -7 28 -16 40 -13 19 -24 22 -75 22 l-59 0 0 -100z"/>
<path d="M5642 1698 c-22 -22 -13 -28 28 -22 49 8 55 -11 8 -21 -43 -10 -58
-22 -58 -51 0 -33 34 -50 68 -34 19 8 28 8 30 1 2 -6 10 -11 18 -11 17 0 20
100 4 131 -12 22 -78 27 -98 7z"/>
<path d="M6831 1684 c-34 -43 -24 -86 26 -113 47 -25 103 14 103 71 0 65 -89
93 -129 42z"/>
<path d="M7005 1685 c-49 -48 -19 -119 50 -119 45 0 75 30 75 75 0 64 -78 92
-125 44z"/>
<path d="M11497 562 c-17 -18 -23 -76 -11 -106 7 -19 64 -22 81 -5 8 8 13 8
17 0 4 -6 23 -11 41 -11 41 0 65 30 41 52 -10 10 -11 18 -3 36 9 20 8 27 -8
38 -25 19 -41 18 -62 -3 -17 -17 -19 -17 -35 0 -23 22 -41 22 -61 -1z"/>
</g>
</svg>
