<?xml version="1.0" standalone="no"?>
<!DOCTYPE svg PUBLIC "-//W3C//DTD SVG 20010904//EN"
 "http://www.w3.org/TR/2001/REC-SVG-20010904/DTD/svg10.dtd">
<svg version="1.0" xmlns="http://www.w3.org/2000/svg"
 width="1280.000000pt" height="905.000000pt" viewBox="0 0 1280.000000 905.000000"
 preserveAspectRatio="xMidYMid meet">
<metadata>
Created by potrace 1.16, written by Peter Selinger 2001-2019
</metadata>
<g transform="translate(0.000000,905.000000) scale(0.100000,-0.100000)"
fill="#000000" stroke="none">
<path d="M8290 6935 l0 -1155 155 0 155 0 0 -75 0 -75 -1982 -2 -1983 -3 -3
-257 -2 -258 -25 0 -25 0 0 1108 c0 609 0 1261 0 1450 l0 342 -752 -2 -753 -3
-5 -354 -5 -353 -430 -239 -430 -238 -510 0 c-280 -1 -518 -1 -527 -1 -17 0
-18 -48 -18 -859 0 -763 2 -860 15 -865 9 -3 361 -6 783 -6 422 0 878 0 1015
0 l247 0 0 -195 0 -195 -885 0 -885 0 0 -1766 0 -1766 -35 5 c-42 6 -77 -15
-57 -34 9 -10 15 -10 24 -1 17 17 38 15 38 -3 0 -8 -7 -15 -15 -15 -8 0 -26
-5 -40 -12 -21 -9 -25 -18 -23 -42 3 -29 6 -31 44 -32 58 -1 64 -8 64 -73 0
-45 -4 -62 -20 -76 -26 -23 -26 -60 0 -82 27 -24 25 -43 -5 -43 -32 0 -32 -14
0 -46 l25 -25 0 -234 0 -235 1615 0 1615 0 0 410 0 410 3900 0 3900 0 -2 2293
-3 2292 -722 3 -723 2 0 75 0 75 95 0 95 0 0 1155 0 1155 -501 0 c-331 0 -498
-3 -494 -10 4 -7 -55 -10 -170 -10 -115 0 -174 3 -170 10 4 7 -262 10 -789 10
l-796 0 0 -1155z m950 770 l0 -365 -45 0 c-39 0 -55 8 -126 60 -45 34 -83 59
-86 57 -2 -3 -4 -30 -4 -61 l-1 -56 -334 0 -334 0 0 365 0 365 465 0 465 0 0
-365z m610 0 l0 -365 -158 0 -159 0 -79 60 c-43 33 -82 60 -86 60 -5 0 -8 -27
-8 -60 l0 -60 -45 0 -45 0 0 365 0 365 290 0 290 0 0 -365z m1340 0 l0 -365
-330 0 -330 0 0 60 c0 33 -3 60 -7 60 -5 0 -44 -27 -88 -60 -76 -56 -83 -60
-137 -60 l-58 0 0 365 0 365 475 0 475 0 0 -365z m-7213 195 l2 -95 -72 -35
c-40 -19 -75 -36 -79 -38 -5 -2 -8 32 -8 75 l0 78 -112 0 -113 0 -3 44 c-6 75
-14 72 195 69 l188 -3 2 -95z m583 -240 l0 -340 -201 0 -202 0 -67 50 c-37 28
-72 50 -78 50 -6 0 -9 -19 -7 -45 1 -25 -2 -48 -6 -51 -10 -6 -12 659 -2 669
3 4 132 7 285 7 l278 0 0 -340z m-980 194 l0 -135 -52 3 c-48 3 -53 5 -56 28
-2 14 -7 34 -13 46 -6 11 -9 24 -8 30 5 27 -1 32 -26 21 -17 -8 -25 -20 -24
-37 l0 -25 11 25 10 25 9 -24 c5 -13 8 -25 7 -26 -2 -2 -31 -17 -65 -34 -59
-29 -69 -31 -173 -31 l-110 0 0 135 0 135 245 0 245 0 0 -136z m-92 -152 c-15
-6 -11 -18 34 -86 l52 -79 4 -698 c3 -385 1 -699 -3 -699 -4 0 -25 10 -46 22
-21 12 -42 19 -45 15 -4 -4 1 -37 10 -74 9 -38 16 -73 16 -80 0 -6 -34 -21
-75 -34 -42 -12 -78 -26 -81 -30 -2 -4 8 -15 23 -23 25 -14 -12 -15 -389 -16
l-417 0 -3 55 -3 54 -72 -54 c-40 -30 -78 -55 -85 -55 -7 0 -44 25 -83 55
l-70 55 -3 -55 c-3 -50 -5 -54 -30 -57 -15 -2 -159 -2 -319 0 l-293 3 0 69 c0
40 -4 70 -10 70 -6 0 -10 -30 -10 -70 l0 -70 -210 0 -210 0 0 440 0 440 215 0
216 0 -1 -266 c-1 -146 1 -269 4 -272 3 -3 6 117 6 266 l0 272 298 0 297 0 95
53 c52 29 118 66 145 81 28 16 169 94 315 174 146 80 281 155 300 165 l35 20
-3 208 -3 209 208 -1 c114 0 200 -3 191 -7z m490 -199 l2 -203 120 0 120 0 0
-280 0 -280 -102 0 -103 0 3 -437 c1 -240 4 -437 5 -438 11 -6 163 -129 165
-134 1 -4 -9 -18 -23 -31 l-25 -24 -35 34 c-19 19 -36 31 -36 27 -1 -4 -2 -10
-3 -14 -1 -5 -5 -26 -9 -48 -19 -102 -10 -92 -92 -100 -41 -4 -77 -10 -80 -14
-2 -5 9 -21 25 -36 28 -27 29 -30 13 -47 -14 -16 -33 -18 -144 -18 -121 0
-130 1 -196 31 -37 17 -113 51 -167 75 l-99 44 -853 0 -854 0 0 145 0 145 927
0 928 0 62 107 62 108 1 791 c0 435 3 794 7 798 4 3 90 5 192 4 l186 -3 3
-202z m6240 67 l2 -125 -85 -55 c-46 -30 -85 -58 -85 -62 0 -4 120 -9 266 -10
l266 -3 1 -410 1 -410 -457 -3 -457 -2 0 -345 0 -345 -100 0 c-55 0 -100 -3
-99 -7 0 -5 31 -32 70 -61 52 -40 69 -59 69 -78 l0 -24 -149 0 c-147 0 -148 0
-147 22 1 15 24 40 71 76 39 30 71 58 73 63 2 4 -30 9 -70 11 l-73 3 -2 340
-3 340 -175 3 -175 2 0 415 0 415 540 0 c312 0 540 4 540 9 0 5 -38 33 -85 62
l-84 54 -1 128 0 127 173 -2 172 -3 3 -125z m-1278 -552 l-1 -303 -27 -36
c-15 -20 -42 -55 -59 -79 -18 -24 -33 -47 -33 -52 0 -4 27 -8 60 -8 57 0 60
-1 60 -25 l0 -25 -315 0 -315 0 0 415 0 415 315 0 315 0 0 -302z m2250 -113
l0 -415 -290 0 c-234 0 -290 3 -290 13 0 8 27 50 60 95 33 45 60 84 60 87 0 3
-27 5 -60 5 l-60 0 0 200 0 199 60 3 61 3 -61 82 c-42 58 -60 91 -60 113 l0
30 290 0 290 0 0 -415z m-6630 279 c0 -102 -2 -115 -16 -110 -9 3 -28 9 -42
12 -22 5 -25 4 -14 -7 17 -18 15 -39 -5 -55 -24 -18 -2 -18 42 0 l35 15 0 -45
c0 -24 -4 -44 -10 -44 -5 0 -10 9 -10 20 0 17 -6 20 -37 19 -36 -1 -36 -2 -9
-8 38 -8 47 -31 12 -31 -38 0 -42 -20 -4 -21 18 -1 39 -1 46 0 9 1 12 -23 12
-94 l0 -95 -160 0 -160 0 0 175 0 175 35 70 c19 38 35 74 35 80 0 5 -16 10
-35 10 -31 0 -35 3 -35 25 l0 25 160 0 160 0 0 -116z m0 -949 l0 -494 -171 -3
c-183 -3 -209 3 -175 40 25 28 20 32 -38 32 l-55 0 -12 55 c-7 30 -16 55 -20
55 -5 0 -16 -11 -25 -25 -9 -14 -20 -22 -25 -19 -5 3 -9 169 -9 374 l0 369 76
55 77 56 188 0 189 0 0 -495z m4505 175 c46 -33 86 -60 89 -60 3 0 6 27 6 60
l0 60 65 0 65 0 0 -335 0 -335 -490 0 -490 0 0 335 0 335 336 0 336 0 83 -60z
m645 37 c0 -38 10 -39 65 -7 64 37 74 37 129 3 36 -23 41 -30 31 -40 -11 -10
-15 -10 -19 0 -3 7 -5 3 -3 -7 2 -21 57 -33 57 -13 0 7 4 6 10 -3 7 -11 10 -6
9 20 0 29 -2 31 -9 15 -7 -16 -9 -13 -9 18 l-1 37 175 0 175 0 0 -105 0 -105
-110 0 -110 0 0 29 c0 27 -3 29 -40 29 -35 1 -40 -2 -39 -21 1 -17 2 -18 6 -4
6 21 23 23 23 1 0 -8 5 -12 10 -9 6 3 10 -1 10 -9 0 -14 -25 -16 -190 -16
l-190 0 0 105 c0 63 4 105 10 105 6 0 10 -10 10 -23z m672 -38 l3 -60 80 60
80 60 323 1 322 0 0 -335 0 -335 -425 0 -425 0 0 335 c0 326 1 335 20 335 16
0 19 -8 22 -61z m-662 -304 c0 -133 0 -135 23 -135 22 0 22 1 19 135 -3 131
-2 135 17 135 20 0 21 -5 21 -138 0 -138 0 -139 23 -137 22 2 22 4 22 138 0
130 1 137 20 137 19 0 20 -6 17 -135 l-3 -135 25 0 26 0 0 135 c0 130 1 135
21 135 19 0 20 -4 17 -135 -3 -134 -3 -135 20 -135 22 0 22 2 22 135 0 83 4
135 10 135 6 0 10 -52 10 -135 l0 -135 26 0 25 0 -3 135 c-3 134 -3 135 20
135 22 0 22 -2 22 -139 0 -138 0 -138 23 -134 22 4 22 6 19 139 -3 129 -2 134
17 134 20 0 21 -5 21 -135 l0 -135 26 0 25 0 -3 135 c-3 129 -2 135 17 135 19
0 20 -6 17 -135 -3 -131 -2 -135 17 -135 20 0 21 -6 21 -85 l0 -85 -253 0
-253 0 -38 52 c-91 121 -86 107 -86 254 0 112 2 134 15 134 13 0 15 -22 15
-135z m-8130 -257 c0 -41 -8 -66 -40 -124 -22 -40 -40 -76 -40 -79 0 -3 18 -5
40 -5 29 0 40 -4 40 -15 0 -12 -18 -15 -100 -15 l-100 0 0 85 c0 83 -1 85 -24
85 -23 0 -23 -2 -22 -81 0 -44 -2 -83 -6 -86 -5 -2 -9 35 -10 84 l-2 88 -3
-87 c-2 -52 -8 -88 -14 -88 -7 0 -9 31 -7 85 3 73 1 85 -14 89 -16 4 -18 -5
-18 -85 0 -57 -4 -89 -11 -89 -7 0 -9 29 -7 85 3 82 2 85 -19 85 -22 0 -23 -4
-23 -85 0 -54 -4 -85 -11 -85 -7 0 -9 29 -7 85 2 63 0 85 -9 85 -9 0 -13 19
-13 60 l0 60 210 0 210 0 0 -52z m7700 -143 l0 -76 -335 2 -335 1 0 74 0 74
335 0 335 0 0 -75z m1710 0 l0 -75 -668 0 -668 0 -17 29 c-9 16 -17 50 -17 75
l0 46 685 0 685 0 0 -75z m-6440 -290 c0 -192 -4 -305 -10 -305 -6 0 -11 -79
-12 -202 l-3 -203 -312 -3 -313 -2 0 122 c0 68 -3 233 -6 368 l-6 245 148 134
c82 74 151 138 152 143 2 4 84 8 183 8 l179 0 0 -305z m7898 -2080 c0 -2111
-1 -2275 -16 -2279 -34 -9 -332 -4 -332 5 0 6 -7 6 -17 1 -23 -12 -473 -12
-473 0 0 5 -9 4 -19 -2 -25 -13 -101 -13 -101 0 0 7 -6 7 -17 1 -23 -11 -1323
-11 -1323 1 0 5 -8 5 -17 0 -23 -12 -1323 -12 -1323 0 0 5 -7 5 -17 0 -24 -12
-953 -12 -953 0 0 5 -9 4 -19 -2 -25 -13 -88 -13 -96 0 -4 6 -13 7 -23 1 -23
-11 -592 -11 -592 1 0 5 -7 5 -17 0 -23 -12 -713 -12 -713 0 0 5 -7 5 -17 -1
-24 -12 -593 -12 -593 1 0 5 -7 5 -17 0 -23 -12 -582 -12 -589 -1 -3 5 -14 5
-24 -1 -25 -13 -100 -13 -100 0 0 7 -6 7 -17 2 -10 -5 -94 -9 -188 -8 l-170 1
-3 1828 c-1 1212 -5 1826 -12 1822 -7 -4 -10 149 -10 449 l0 456 3904 0 3904
0 0 -2275z m-10808 2215 c0 -22 3 -40 8 -40 4 0 38 18 76 40 37 22 70 40 71
40 2 0 34 -18 73 -40 38 -22 72 -40 76 -40 3 0 6 18 6 40 l0 40 40 0 40 0 0
-240 0 -240 -435 0 -435 0 0 240 0 240 240 0 240 0 0 -40z m550 0 c0 -22 4
-40 9 -40 5 0 39 18 77 40 37 21 72 36 78 32 76 -47 122 -72 133 -72 9 0 13
14 13 40 l0 40 70 0 70 0 -2 -237 -3 -238 -292 -3 -293 -2 0 240 0 240 70 0
70 0 0 -40z m560 0 c0 -22 4 -40 10 -40 5 0 39 18 75 40 l66 40 68 -40 c37
-22 73 -40 79 -40 7 0 12 16 12 40 l0 40 75 0 75 0 -2 -237 -3 -238 -277 -3
-278 -2 0 118 c0 65 3 174 7 240 l6 122 44 0 43 0 0 -40z m730 -37 l169 -77 3
-116 3 -115 108 -3 107 -3 0 -39 0 -40 -325 0 -325 0 0 235 0 235 45 0 c35 0
84 -17 215 -77z m390 -188 l0 -106 -97 3 -98 3 -3 103 -3 102 101 0 100 0 0
-105z m-7 -235 c4 0 7 -88 7 -195 l0 -195 -325 0 -325 0 0 194 c0 194 0 195
23 198 16 2 487 1 620 -2z m757 -195 l0 -195 -35 0 -35 0 0 195 0 195 35 0 35
0 0 -195z m20 -2440 l0 -2225 -1597 2 -1598 3 -3 226 -2 226 40 7 c80 13 81
99 2 124 -30 10 -42 19 -42 33 0 23 32 26 50 4 13 -16 50 -21 50 -7 0 20 -43
52 -70 52 l-30 0 0 1890 0 1890 1600 0 1600 0 0 -2225z"/>
<path d="M9314 7136 c-3 -7 -4 -132 -2 -277 l3 -264 435 0 435 0 0 275 0 275
-433 3 c-361 2 -433 0 -438 -12z m846 -266 l0 -260 -410 0 -410 0 0 260 0 260
410 0 410 0 0 -260z"/>
<path d="M1610 1540 c-40 -40 -19 -82 48 -100 31 -8 42 -16 42 -30 0 -29 -38
-36 -64 -11 -42 40 -73 17 -32 -24 46 -46 136 -24 136 34 0 38 -18 58 -67 71
-46 12 -57 34 -22 45 13 4 27 1 39 -10 10 -9 27 -15 37 -13 16 3 15 7 -9 31
-33 33 -79 36 -108 7z"/>
<path d="M2510 1522 c0 -26 -3 -28 -33 -24 -44 5 -67 -18 -67 -68 0 -54 19
-69 85 -69 l55 1 0 94 c0 87 -1 94 -20 94 -15 0 -20 -7 -20 -28z"/>
<path d="M2096 1478 c-22 -30 -20 -81 2 -101 25 -22 85 -22 105 1 46 50 15
122 -53 122 -29 0 -43 -6 -54 -22z"/>
<path d="M2920 1480 c-11 -11 -20 -33 -20 -49 0 -70 81 -100 127 -47 28 33 29
56 2 90 -26 33 -79 36 -109 6z"/>
<path d="M3076 1478 c-22 -30 -20 -81 2 -101 25 -22 85 -22 105 1 46 50 15
122 -53 122 -29 0 -43 -6 -54 -22z"/>
<path d="M3080 1125 l0 -95 61 0 c33 0 69 5 80 10 21 12 26 59 8 77 -8 8 -8
17 1 33 9 17 9 29 1 46 -10 22 -17 24 -81 24 l-70 0 0 -95z"/>
<path d="M2862 1164 c-26 -18 -36 -61 -21 -96 12 -31 45 -44 79 -33 18 6 21 3
18 -12 -4 -19 -46 -24 -80 -9 -13 6 -18 4 -18 -8 0 -22 47 -39 87 -31 39 7 46
25 47 120 1 68 0 70 -24 72 -14 1 -35 4 -46 6 -12 3 -31 -1 -42 -9z"/>
<path d="M3378 1164 c-43 -23 -46 -98 -4 -126 18 -12 71 -9 89 5 23 16 32 77
15 100 -20 27 -69 37 -100 21z"/>
<path d="M1757 893 c-4 -3 -7 -48 -7 -100 0 -85 2 -93 19 -93 16 0 20 8 23 38
3 35 5 37 43 40 22 2 46 10 53 19 20 27 15 70 -10 87 -22 16 -108 22 -121 9z"/>
<path d="M2642 884 c-45 -31 -20 -84 48 -101 25 -7 35 -15 35 -29 0 -24 -46
-32 -65 -10 -12 15 -50 23 -50 11 0 -3 7 -17 16 -30 31 -48 127 -41 140 10 10
42 -9 71 -58 86 -25 8 -43 20 -43 29 0 21 39 24 55 5 14 -17 50 -21 50 -5 0 6
-9 19 -20 30 -24 24 -77 26 -108 4z"/>
<path d="M3146 829 c-19 -15 -26 -30 -26 -55 0 -90 125 -101 146 -12 5 22 0
33 -24 58 -36 35 -60 38 -96 9z"/>
<path d="M3316 829 c-52 -41 -23 -129 43 -129 78 0 105 107 34 139 -34 16 -47
14 -77 -10z"/>
<path d="M1110 1125 c0 -78 3 -95 15 -95 12 0 15 15 15 72 0 39 2 69 5 66 3
-2 11 -33 18 -69 11 -53 17 -65 34 -67 19 -3 23 4 34 58 16 82 29 85 29 6 0
-52 3 -66 15 -66 12 0 15 17 15 95 l0 95 -29 0 c-31 0 -35 -5 -47 -73 -10 -58
-22 -53 -35 13 -11 57 -13 60 -40 60 l-29 0 0 -95z"/>
</g>
</svg>
