<?xml version="1.0" standalone="no"?>
<!DOCTYPE svg PUBLIC "-//W3C//DTD SVG 20010904//EN"
 "http://www.w3.org/TR/2001/REC-SVG-20010904/DTD/svg10.dtd">
<svg version="1.0" xmlns="http://www.w3.org/2000/svg"
 width="1280.000000pt" height="905.000000pt" viewBox="0 0 1280.000000 905.000000"
 preserveAspectRatio="xMidYMid meet">
<metadata>
Created by potrace 1.16, written by Peter Selinger 2001-2019
</metadata>
<g transform="translate(0.000000,905.000000) scale(0.100000,-0.100000)"
fill="#000000" stroke="none">
<path d="M3150 8588 l0 -43 -505 3 -505 3 0 -466 0 -467 -62 -89 c-35 -49 -83
-118 -108 -153 -25 -34 -79 -111 -120 -169 l-75 -107 -542 0 -543 0 0 -430 0
-430 -40 0 c-22 0 -40 -3 -40 -6 0 -4 16 -26 35 -50 19 -23 35 -46 35 -49 0
-4 -16 -25 -35 -46 -19 -22 -35 -44 -35 -49 0 -6 18 -10 40 -10 l40 0 0 -365
0 -365 665 0 665 0 0 -35 c0 -19 2 -35 5 -35 3 0 37 16 75 35 38 19 76 35 85
35 9 0 47 -16 85 -35 38 -19 72 -35 75 -35 3 0 5 16 5 35 l0 35 115 0 c70 0
115 4 115 10 0 6 -130 10 -370 10 l-370 0 -2 128 -2 127 -6 -125 -5 -125 -162
-3 -163 -2 0 330 0 330 166 0 165 0 -3 -120 c-2 -66 0 -120 5 -120 4 0 7 54 7
120 l0 120 530 0 530 0 0 -186 c0 -170 1 -185 18 -183 9 1 59 1 110 0 l92 -1
0 -145 0 -145 -189 0 c-116 0 -192 -4 -196 -10 -4 -7 62 -10 189 -10 l196 0 0
-205 0 -205 -1415 0 -1415 0 0 -2305 0 -2305 1818 2 1817 3 3 723 2 722 1788
0 c983 0 2856 0 4162 0 l2375 0 0 2035 0 2035 -927 0 -928 0 0 1265 0 1265
-120 0 c-119 0 -120 0 -120 23 0 37 -9 38 -61 6 l-48 -30 -45 30 c-25 17 -47
31 -50 31 -3 0 -6 -13 -6 -30 l0 -30 -110 0 c-110 0 -110 0 -110 24 0 14 -3
27 -8 30 -4 2 -38 -9 -75 -24 l-67 -29 -64 29 c-35 15 -67 26 -70 23 -3 -4 -6
-17 -6 -30 l0 -23 -950 0 -950 0 0 -1037 0 -1038 -51 4 c-28 1 -55 -1 -59 -5
-5 -5 18 -45 50 -89 l59 -80 1 -72 0 -73 31 0 c28 0 31 -3 25 -22 -3 -13 -6
-44 -6 -70 l0 -48 -717 1 c-395 0 -712 3 -705 6 8 3 12 27 12 69 l0 64 173 2
c170 3 172 3 175 26 3 19 9 22 53 22 29 0 49 4 49 11 0 6 -20 40 -45 75 -25
34 -48 70 -51 78 -4 9 17 46 51 93 l57 78 -55 3 -54 3 -7 46 c-3 25 -6 443 -6
929 l0 884 -650 0 -650 0 0 50 c0 28 -4 50 -8 50 -5 0 -50 -22 -101 -50 -51
-27 -101 -50 -111 -50 -11 0 -62 23 -113 50 -52 28 -97 50 -100 50 -4 0 -7
-22 -7 -50 l0 -50 -420 0 -420 0 0 181 0 181 -275 -3 -275 -4 0 37 c0 20 -4
39 -9 42 -5 4 -32 -12 -61 -35 -56 -44 -49 -45 -118 13 -18 16 -37 28 -42 28
-6 0 -10 -19 -10 -42z m-280 -233 l0 -175 29 0 c24 0 38 -13 95 -91 l66 -90
-2 -187 -3 -187 -447 -3 -448 -2 0 455 0 455 355 0 355 0 0 -175z m590 61 l0
-115 -94 -55 c-87 -51 -100 -56 -155 -56 l-61 0 0 120 0 120 -130 0 -130 0 0
50 0 50 285 0 285 0 0 -114z m460 -56 l0 -170 -65 0 -65 0 0 55 c0 30 -4 55
-8 55 -5 0 -40 -25 -79 -55 l-71 -55 -81 0 -81 0 0 170 0 170 225 0 225 0 0
-170z m4790 -217 l0 -166 -40 -53 c-22 -29 -40 -58 -40 -64 0 -5 18 -10 40
-10 l40 0 0 -60 0 -60 -80 0 -80 0 0 61 0 61 -52 -38 c-29 -21 -55 -41 -58
-44 -3 -3 -16 -14 -30 -23 -22 -15 -66 -17 -437 -17 l-413 0 0 290 0 290 575
0 575 0 0 -167z m380 17 l0 -150 -110 0 -110 0 -62 45 c-34 25 -66 45 -70 45
-4 0 -8 47 -8 105 l0 105 180 0 180 0 0 -150z m322 -17 l2 -168 3 168 3 167
120 0 c100 0 120 -3 120 -15 0 -8 8 -15 18 -14 10 0 12 3 5 6 -25 10 -12 23
22 23 l35 0 0 -290 0 -290 -189 0 -190 0 -3 47 -3 47 -58 -48 -58 -47 -54 47
c-58 49 -61 49 -68 -16 -2 -19 -4 38 -5 128 l0 162 108 0 c77 0 110 -4 113
-12 3 -7 6 30 6 82 l1 95 -110 -3 c-75 -3 -110 0 -110 7 0 7 37 11 110 11
l110 0 0 30 0 30 -117 2 -118 2 120 6 c66 3 135 7 153 8 l32 2 2 -167z m411
143 c-3 -13 0 -27 6 -30 7 -5 11 4 11 23 0 29 3 31 34 31 31 0 35 -3 34 -27
-1 -54 2 -73 12 -73 6 0 10 23 10 50 l0 50 120 0 120 0 0 -36 c0 -23 4 -33 11
-28 6 3 9 19 7 35 l-5 29 104 0 103 0 0 -120 0 -120 -95 0 -95 0 0 30 c0 17
-4 30 -10 30 -5 0 -10 -13 -10 -30 0 -29 -2 -30 -45 -30 l-45 0 2 -42 c1 -37
2 -39 5 -10 l4 32 145 0 144 0 0 -110 0 -110 -144 0 -145 0 -4 38 -4 37 -1
-42 -2 -42 148 -3 147 -3 3 -372 2 -373 -225 0 -225 0 0 45 c0 25 -2 45 -4 45
-6 0 -120 -62 -141 -76 -11 -8 -23 -14 -27 -14 -5 0 -8 79 -8 175 l0 175 35 0
c44 0 44 12 0 65 l-34 42 34 49 c19 27 35 52 35 56 0 5 -16 8 -35 8 l-35 0 2
208 3 207 83 3 83 3 -2 44 c-2 24 0 47 4 51 8 8 -11 34 -25 34 -7 0 -7 -4 -1
-12 5 -7 8 -35 5 -61 l-4 -48 -72 3 c-70 3 -71 3 -74 32 -2 16 1 32 6 35 16
11 25 52 10 49 -10 -2 -13 13 -13 59 l0 63 31 0 c28 0 31 -3 27 -24z m-6375
-1008 l2 -898 235 0 235 0 0 -211 0 -211 -117 3 -118 3 -154 -52 c-153 -51
-155 -52 -278 -52 -115 0 -123 1 -123 19 0 11 -25 42 -57 70 l-57 51 -923 0
-924 0 3 133 3 132 820 -4 820 -4 80 69 c44 38 102 87 128 109 l48 40 -1 846
c0 465 3 849 7 852 4 4 88 6 187 5 l181 -3 3 -897z m472 755 l-1 -138 -59 -74
c-33 -41 -60 -80 -60 -88 0 -9 17 -13 60 -13 l60 0 0 -240 0 -240 -225 0 -225
0 0 372 0 371 53 71 c30 39 59 81 66 94 11 21 16 22 171 22 l160 0 0 -137z
m320 2 c0 -83 -4 -135 -10 -135 -5 0 -46 27 -91 60 -44 33 -85 60 -90 60 -5 0
-9 -27 -9 -60 l0 -60 -50 0 -50 0 0 135 0 135 150 0 150 0 0 -135z m2268 -317
l2 -448 -285 0 -285 0 -2 -252 -3 -253 -377 -2 -378 -2 0 55 c0 38 -4 54 -13
54 -7 0 -48 -24 -91 -54 l-78 -54 -81 54 c-45 30 -85 54 -89 54 -4 0 -8 -25
-8 -55 l0 -56 -105 2 -105 2 0 54 c0 29 -4 53 -9 53 -5 0 -42 -25 -82 -55 -39
-30 -77 -52 -83 -48 -6 3 -41 28 -77 55 -37 26 -69 48 -73 48 -3 0 -6 -22 -6
-50 0 -27 -4 -50 -10 -50 -6 0 -10 33 -10 80 l0 80 -165 0 -165 0 0 100 0 100
160 0 160 0 0 200 0 200 -160 0 -160 0 0 58 c0 33 3 114 7 180 l6 122 159 0
158 0 0 140 0 140 1123 -2 1122 -3 3 -447z m2582 142 l0 -130 -180 0 -180 0 0
130 0 130 180 0 180 0 0 -130z m-1020 -161 c0 -6 27 -47 60 -91 l60 -79 0
-195 0 -194 -315 0 -315 0 0 285 0 285 255 0 c179 0 255 -3 255 -11z m1670
-179 l0 -190 -430 0 -430 0 0 -290 0 -290 -100 0 c-55 0 -100 -4 -100 -9 0 -5
45 -33 100 -62 69 -37 100 -59 100 -71 0 -16 10 -18 70 -18 l70 0 0 -150 0
-150 30 0 30 0 0 150 c0 98 4 150 11 150 7 0 9 -50 7 -150 l-3 -150 45 0 45 0
-3 150 c-2 100 0 150 7 150 7 0 11 -52 11 -150 l0 -150 30 0 30 0 0 150 c0 98
4 150 11 150 7 0 9 -50 7 -150 -2 -113 0 -150 9 -150 9 0 13 41 16 153 1 83 3
35 2 -108 l0 -260 -422 -3 -423 -3 0 278 0 279 96 49 c136 71 137 75 12 75
l-104 0 -62 63 -62 63 60 59 60 59 0 176 0 175 -87 88 c-82 83 -88 87 -129 87
l-44 0 0 95 0 95 770 0 770 0 0 -190z m-6680 -450 c0 -297 -3 -540 -6 -540 -4
0 -22 17 -39 38 -18 20 -36 34 -40 30 -3 -3 -11 -39 -16 -80 -5 -40 -12 -88
-15 -106 l-5 -33 -115 7 c-63 4 -114 3 -114 -1 0 -4 18 -29 41 -56 l41 -49
-506 0 -506 0 0 398 0 397 188 267 187 268 453 0 452 0 0 -540z m920 385 c0
-31 4 -55 10 -55 6 0 44 25 84 55 61 46 79 55 114 55 l42 0 0 -180 0 -180 -35
0 c-27 0 -52 13 -112 60 -43 33 -81 60 -85 60 -5 0 -8 -27 -8 -60 0 -57 -1
-60 -25 -60 l-25 0 0 180 c0 173 1 180 20 180 18 0 20 -7 20 -55z m4340 -62
c23 -60 46 -112 51 -117 5 -6 20 1 39 19 l30 29 0 -37 0 -37 -120 0 -120 0 0
125 0 125 39 0 39 0 42 -107z m1142 -205 l3 -133 235 -1 235 -1 3 -157 3 -156
-523 2 -523 3 -3 38 c-2 20 0 37 5 38 4 0 25 2 45 3 20 1 39 4 42 7 3 2 -17
44 -45 93 l-49 89 0 147 c0 80 3 150 7 153 3 4 131 7 284 7 l278 0 3 -132z
m-2952 -363 l0 -425 -90 0 -90 0 0 49 c0 28 -4 52 -9 55 -5 3 -38 -16 -73 -42
-35 -27 -69 -52 -76 -56 -15 -9 -42 6 -114 61 -31 23 -59 43 -62 43 -3 0 -6
-25 -6 -55 0 -42 -3 -55 -15 -55 -13 0 -15 54 -15 425 l0 425 275 0 275 0 0
-425z m1928 295 l2 -115 -117 -117 -118 -117 -62 51 -63 52 0 123 0 123 60 0
60 0 0 53 c0 30 3 57 7 61 4 3 57 5 117 4 l111 -3 3 -115z m-4518 -310 l0
-410 -225 0 -225 0 0 265 0 265 60 0 c33 0 60 4 60 9 0 4 -27 43 -60 86 -58
75 -60 80 -60 136 l0 59 225 0 225 0 0 -410z m3880 185 l0 -125 131 0 131 0
72 -65 72 -64 21 21 c19 19 26 20 65 10 24 -6 68 -16 98 -22 l55 -10 -3 -390
-2 -390 -440 0 -440 0 0 580 0 580 120 0 120 0 0 -125z m260 10 c0 -108 -1
-115 -20 -115 -18 0 -20 7 -20 60 0 33 -3 60 -6 60 -3 0 -41 -27 -84 -60 -43
-33 -86 -60 -94 -60 -14 0 -16 18 -16 115 l0 115 120 0 120 0 0 -115z m-6291
-320 l0 -395 -210 0 -210 0 -73 40 c-40 22 -76 40 -79 40 -4 0 -7 -18 -7 -40
0 -22 -4 -40 -10 -40 -6 0 -10 40 -10 100 l0 100 -235 0 -235 0 0 295 0 295
535 0 535 0 -1 -395z m8599 365 c22 0 22 -1 22 -155 l0 -155 -215 0 c-137 0
-215 4 -215 10 0 8 54 16 83 11 15 -2 6 24 -38 101 -38 67 -45 89 -45 133 0
29 4 55 10 57 8 2 225 2 398 -2z m-6128 -251 c0 -71 -4 -108 -10 -104 -6 4
-10 -8 -10 -30 0 -22 4 -34 10 -30 6 4 10 -8 10 -29 0 -19 -6 -36 -12 -39 -10
-3 -10 -7 -2 -18 6 -8 12 -44 13 -82 l2 -68 -148 3 -148 3 -3 190 -2 190 82
62 c82 62 84 62 151 63 l67 0 0 -111z m418 -226 c2 -113 -1 -173 -8 -173 -6 0
-10 24 -10 55 0 30 -3 55 -7 55 -3 0 -29 -17 -57 -38 -109 -81 -95 -80 -182
-17 -42 30 -81 55 -85 55 -5 0 -9 -25 -9 -55 0 -49 -2 -55 -20 -55 -20 0 -20
5 -19 175 l2 175 196 -2 196 -3 3 -172z m676 155 c3 -13 6 -40 6 -62 0 -33 -2
-37 -15 -26 -12 10 -19 10 -27 2 -12 -12 -4 -42 12 -42 6 0 8 5 5 10 -3 6 1
10 9 10 14 0 16 -17 16 -110 l0 -110 -80 0 -80 0 0 55 c0 31 -4 55 -10 55 -6
0 -46 -25 -88 -54 l-78 -55 -79 55 c-44 29 -83 54 -87 54 -5 0 -8 -25 -8 -55
l0 -55 -74 0 -73 0 -7 92 c-3 50 -6 129 -6 175 l0 83 329 0 329 0 6 -22z m606
-153 l0 -175 -80 0 -80 0 0 55 c0 30 -2 55 -5 55 -2 0 -39 -25 -82 -55 -42
-31 -83 -53 -90 -51 -7 3 -38 24 -68 47 -40 30 -55 48 -55 66 0 18 -5 24 -17
21 -19 -3 -19 -4 -21 -85 l-2 -53 -40 0 -40 0 0 45 c0 43 1 45 28 45 36 0 45
9 29 28 -9 13 -9 14 1 8 7 -4 12 -2 12 4 0 6 -10 11 -22 10 -47 -4 -48 -2 -46
58 2 31 -1 78 -5 105 l-8 47 295 0 296 0 0 -175z m3370 95 l0 -60 -205 0 -205
0 0 60 0 60 205 0 205 0 0 -60z m418 13 c2 -24 6 -43 9 -43 2 0 42 20 87 45
l83 45 242 0 241 0 0 -324 c0 -292 -2 -324 -17 -330 -9 -4 -220 -6 -469 -6
l-454 1 -12 22 c-6 12 -33 51 -60 86 l-48 64 0 244 0 243 198 -2 197 -3 3 -42z
m-8834 -295 c-1 -46 -3 -86 -3 -90 -1 -5 -43 -9 -93 -10 -121 -2 -68 -7 167
-16 159 -6 190 -9 190 -22 0 -10 -12 -16 -32 -18 -36 -4 -41 -13 -18 -32 9 -7
25 -26 36 -42 l21 -29 -36 -39 c-20 -22 -36 -45 -36 -50 0 -6 16 -10 35 -10
24 0 35 -5 35 -15 0 -13 -32 -15 -230 -15 l-230 0 0 235 0 235 98 0 97 0 -1
-82z m5616 -218 l0 -210 -945 0 -945 0 0 55 c0 30 -3 55 -6 55 -3 0 -47 -25
-98 -55 l-94 -55 -93 55 c-52 30 -97 55 -101 55 -5 0 -8 -25 -8 -55 l0 -55
-90 0 c-65 0 -90 3 -90 13 0 6 -23 50 -50 96 -28 46 -50 91 -50 99 0 8 23 52
50 98 28 46 50 88 50 93 0 5 -24 12 -52 14 -29 2 526 4 1235 5 l1287 2 0 -210z
m2266 -166 l104 -55 0 -75 0 -74 -205 0 -205 0 0 78 0 77 98 52 c53 28 99 52
101 52 2 1 50 -24 107 -55z m314 -49 l0 -95 -65 0 c-45 0 -65 4 -65 13 0 6
-16 38 -35 70 -19 32 -35 69 -35 83 0 24 1 24 100 24 l100 0 0 -95z m110 40
c41 -30 78 -55 82 -55 5 0 8 25 8 55 l0 55 550 0 550 0 0 -125 0 -125 -165 0
c-91 0 -165 2 -165 4 0 2 7 22 15 45 8 22 10 41 5 41 -5 0 -12 -10 -16 -22 -7
-22 -7 -22 -14 -3 -4 11 -12 21 -19 21 -6 1 -20 2 -30 3 -11 0 -22 9 -24 19
-3 9 -5 -8 -5 -38 0 -41 2 -47 7 -25 3 17 11 30 16 30 5 0 13 -13 16 -30 7
-30 7 -30 15 -6 l7 25 9 -24 c12 -32 -3 -40 -74 -40 -61 0 -71 7 -37 28 30 19
22 56 -13 60 -27 3 -28 2 -28 -42 l0 -46 -68 0 -67 0 3 46 c4 45 4 45 -24 42
-23 -2 -30 -9 -32 -30 -2 -20 2 -28 20 -34 l23 -8 -25 -7 c-14 -4 -157 -7
-317 -8 l-293 -1 0 125 c0 69 3 125 8 125 4 0 41 -25 82 -55z m-7990 -49 c0
-19 4 -37 9 -41 5 -3 30 13 56 35 25 22 49 40 52 40 3 0 27 -18 53 -40 26 -22
51 -40 54 -40 3 0 6 18 6 40 0 36 3 40 25 40 l25 0 0 -330 0 -330 -395 0 -395
0 0 330 0 330 255 0 255 0 0 -34z m1857 -18 l53 -52 0 -124 0 -123 -102 3
-103 3 -1 173 -2 172 51 0 c48 0 54 -3 104 -52z m774 12 l79 0 -2 -522 -3
-523 -390 0 -390 0 -3 258 -2 257 130 0 130 0 0 220 c0 121 3 220 8 220 4 0
15 -22 25 -50 10 -27 21 -50 25 -50 4 0 27 33 52 74 51 84 44 83 154 40 32
-13 62 -21 67 -19 4 3 1 21 -7 40 -23 55 -19 69 17 61 17 -3 67 -6 110 -6z
m311 -70 l3 -70 -107 0 -108 0 0 70 0 70 104 0 104 0 4 -70z m2008 10 l0 -60
-995 0 -995 0 0 60 0 60 995 0 995 0 0 -60z m1800 -10 l0 -70 -175 0 -175 0 0
70 0 70 175 0 175 0 0 -70z m480 0 l0 -70 -50 0 c-38 0 -50 4 -50 15 0 18 -16
20 -24 3 -3 -7 -3 -3 0 9 4 18 2 22 -10 17 -9 -3 -16 -13 -16 -21 0 -12 -3
-13 -14 -4 -10 9 -16 8 -26 -4 -10 -12 -38 -15 -141 -15 l-129 0 0 70 0 70
230 0 230 0 0 -70z m-5070 -105 l0 -73 -114 -1 c-97 -2 -114 1 -120 14 -8 21
-8 120 0 128 3 3 57 6 120 6 l114 -1 0 -73z m8865 -2002 l0 -2018 -1242 -2
c-842 -1 -1243 2 -1243 9 0 7 -4 7 -12 0 -18 -14 -1328 -14 -1328 0 0 7 -4 7
-12 0 -18 -14 -3028 -14 -3028 0 0 7 -4 7 -12 0 -17 -13 -586 -14 -594 -1 -4
7 -10 7 -17 0 -7 -6 -168 -9 -412 -8 l-400 2 -2 680 c-1 448 2 686 9 698 7 13
7 17 0 13 -7 -4 -10 421 -10 1318 l0 1325 42 3 c22 2 1890 2 4151 1 l4110 -2
0 -2018z m-8865 1787 l0 -120 -115 0 -115 0 0 120 0 120 115 0 115 0 0 -120z
m540 -2960 l0 -2290 -1805 0 -1805 0 0 2283 c0 1256 3 2287 7 2290 3 4 816 7
1805 7 l1798 0 0 -2290z"/>
<path d="M11080 8035 l0 -295 598 2 597 3 3 284 c2 221 -1 286 -10 293 -7 4
-277 8 -600 8 l-588 0 0 -295z m1180 0 l0 -275 -585 0 -585 0 0 268 c0 148 3
272 7 275 3 4 267 7 585 7 l578 0 0 -275z"/>
<path d="M11080 6765 l0 -955 600 0 600 0 -2 953 -3 952 -597 3 -598 2 0 -955z
m1180 485 l0 -450 -455 0 -455 0 0 120 0 120 -25 0 c-24 0 -25 3 -25 60 0 33
-4 60 -10 60 -5 0 -47 -27 -91 -60 -45 -34 -87 -59 -93 -57 -8 3 -12 102 -14
330 l-2 327 585 0 585 0 0 -450z m-1014 -226 l89 -7 -2 -292 c-2 -217 1 -296
10 -307 7 -9 46 -40 87 -70 l75 -55 -3 -232 -3 -231 -120 0 -121 0 -57 45
c-32 24 -61 41 -65 38 -3 -4 -6 -24 -6 -45 0 -31 -3 -38 -20 -38 -20 0 -20 7
-20 593 0 327 3 597 7 600 8 9 36 9 149 1z m1014 -409 l0 -175 -333 0 c-184 0
-389 -3 -455 -7 l-122 -6 0 181 0 182 455 0 455 0 0 -175z m0 -495 l0 -290
-365 0 -365 0 0 50 0 50 40 0 c22 0 40 3 40 7 0 3 -18 30 -40 59 l-40 53 0
181 0 180 365 0 365 0 0 -290z"/>
<path d="M5059 1602 c-29 -26 -34 -37 -34 -75 0 -81 71 -126 148 -93 34 14 37
18 37 55 l0 41 -45 0 c-33 0 -45 -4 -45 -15 0 -9 9 -15 25 -15 34 0 33 -28 -1
-41 -35 -13 -58 -4 -72 27 -18 38 -14 68 11 92 29 28 51 28 76 1 14 -15 24
-18 36 -12 27 16 -11 53 -61 60 -36 5 -46 1 -75 -25z"/>
<path d="M5950 1593 c0 -26 -3 -28 -42 -28 -37 0 -44 -4 -56 -28 -8 -16 -11
-39 -8 -52 11 -41 32 -54 91 -54 l55 1 0 94 c0 87 -1 94 -20 94 -15 0 -20 -7
-20 -27z"/>
<path d="M6858 1608 c-2 -7 -3 -49 -3 -93 1 -75 2 -80 23 -83 20 -3 22 1 20
30 -3 30 -1 33 34 39 20 3 44 11 52 19 19 15 21 71 4 88 -16 16 -125 16 -130
0z"/>
<path d="M5367 1552 c-10 -10 -17 -35 -17 -55 0 -41 27 -67 70 -67 14 0 36 7
48 16 28 20 31 83 4 107 -25 23 -85 22 -105 -1z"/>
<path d="M6357 1552 c-23 -25 -22 -85 1 -105 25 -23 85 -22 105 1 23 25 22 85
-1 105 -25 23 -85 22 -105 -1z"/>
<path d="M6517 1552 c-23 -25 -22 -85 1 -105 25 -23 78 -21 102 3 26 26 26 81
2 103 -25 23 -85 22 -105 -1z"/>
<path d="M4872 1193 c3 -84 6 -98 21 -101 15 -3 17 6 18 70 1 75 6 70 24 -26
7 -38 13 -46 30 -46 17 0 23 8 30 46 18 96 23 101 24 26 1 -64 3 -73 19 -70
14 3 17 17 20 101 l3 97 -30 0 c-32 0 -34 -4 -59 -110 l-9 -35 -7 40 c-16 87
-25 105 -57 105 l-30 0 3 -97z"/>
<path d="M6850 1190 l0 -100 60 0 c73 0 106 24 95 68 -3 15 -6 36 -6 47 1 11
1 29 1 40 1 30 -28 45 -92 45 l-58 0 0 -100z"/>
<path d="M5902 1228 c-22 -22 -12 -30 28 -23 53 9 53 -11 1 -25 -21 -5 -42
-18 -45 -27 -17 -42 30 -77 73 -53 14 7 21 7 21 0 0 -5 8 -10 18 -10 15 0 17
7 12 63 -3 34 -9 68 -13 75 -10 15 -79 16 -95 0z"/>
<path d="M6620 1220 c-46 -46 -8 -138 51 -126 22 4 29 2 29 -11 0 -13 -8 -15
-50 -9 -27 4 -50 5 -50 2 0 -17 37 -36 70 -36 59 0 70 17 70 116 0 82 -5 95
-27 73 -8 -8 -13 -8 -17 0 -11 18 -54 13 -76 -9z"/>
<path d="M7129 1219 c-14 -14 -19 -30 -17 -56 6 -74 100 -97 133 -33 21 40 19
57 -10 85 -30 31 -77 33 -106 4z"/>
<path d="M5186 947 c-14 -15 -26 -31 -26 -37 0 -18 48 -60 68 -60 10 0 27 -6
37 -14 16 -12 17 -16 6 -30 -19 -22 -47 -20 -65 5 -9 13 -21 19 -30 16 -42
-16 7 -67 64 -67 27 0 47 7 60 20 39 39 19 84 -50 109 -24 9 -44 21 -44 26 -1
14 44 19 57 6 13 -13 47 -15 47 -3 0 21 -28 43 -62 48 -30 5 -41 2 -62 -19z"/>
<path d="M6413 955 c-44 -31 -17 -105 37 -105 9 0 25 -6 35 -14 16 -12 17 -16
6 -30 -18 -22 -48 -20 -63 4 -7 11 -18 20 -25 20 -23 0 -25 -22 -2 -46 29 -31
90 -33 119 -4 39 39 19 84 -50 109 -24 9 -44 21 -44 26 -1 14 44 19 57 6 13
-13 47 -15 47 -3 0 40 -79 65 -117 37z"/>
<path d="M5530 860 c0 -82 3 -100 15 -100 11 0 15 11 15 40 0 39 1 40 33 40
48 0 77 24 77 65 0 43 -20 55 -89 55 l-51 0 0 -100z"/>
<path d="M6917 899 c-28 -16 -40 -58 -27 -90 30 -72 140 -51 140 28 0 59 -61
92 -113 62z"/>
<path d="M7071 884 c-24 -30 -26 -43 -10 -78 34 -73 139 -44 139 38 0 63 -89
90 -129 40z"/>
</g>
</svg>
