<?xml version="1.0" standalone="no"?>
<!DOCTYPE svg PUBLIC "-//W3C//DTD SVG 20010904//EN"
 "http://www.w3.org/TR/2001/REC-SVG-20010904/DTD/svg10.dtd">
<svg version="1.0" xmlns="http://www.w3.org/2000/svg"
 width="1280.000000pt" height="905.000000pt" viewBox="0 0 1280.000000 905.000000"
 preserveAspectRatio="xMidYMid meet">
<metadata>
Created by potrace 1.16, written by Peter Selinger 2001-2019
</metadata>
<g transform="translate(0.000000,905.000000) scale(0.100000,-0.100000)"
fill="#000000" stroke="none">
<path d="M2980 8046 l0 -534 -134 -114 c-74 -62 -225 -189 -336 -283 -112 -93
-269 -225 -349 -292 l-145 -123 -568 0 -568 0 0 -355 0 -355 -60 0 c-33 0 -60
-4 -60 -9 0 -4 27 -39 60 -76 l60 -68 -29 -36 c-16 -20 -43 -49 -60 -65 -47
-45 -41 -56 29 -56 l60 0 0 -295 0 -295 588 0 c323 0 856 0 1185 0 l597 0 0
-225 0 -225 -22 0 c-968 1 -2172 -2 -2183 -6 -13 -5 -15 -277 -15 -2200 l0
-2194 1820 0 1820 0 0 400 0 400 3900 0 3900 0 -2 2293 -3 2292 -603 3 -603 2
3 93 3 92 103 3 102 3 0 1358 0 1359 -1530 1 -1530 0 0 -1359 0 -1360 150 0
150 0 0 -95 0 -95 -2037 -2 -2038 -3 -6 -265 c-3 -146 -5 519 -3 1478 l3 1742
-824 0 -825 0 0 -534z m410 294 l0 -219 66 -3 65 -3 -60 -83 c-34 -45 -61 -84
-61 -87 0 -3 29 -5 65 -5 l65 0 0 -205 0 -205 -265 0 -265 0 0 515 0 515 195
0 195 0 0 -220z m470 4 c0 -168 -3 -215 -12 -212 -8 3 -14 25 -15 57 -1 29 -4
56 -7 59 -4 3 -47 -22 -96 -56 -50 -34 -93 -62 -95 -62 -3 0 -5 97 -5 215 l0
215 115 0 115 0 0 -216z m750 -299 l0 -515 -365 0 -365 0 0 205 0 205 65 0
c36 0 65 3 65 8 0 4 -29 45 -65 90 l-65 82 0 220 0 220 365 0 365 0 0 -515z
m4710 220 l0 -255 -60 0 c-33 0 -60 -3 -60 -7 0 -5 27 -52 60 -106 52 -85 60
-106 60 -148 l0 -49 -445 -2 -445 -3 0 413 0 412 445 0 445 0 0 -255z m710 40
l0 -215 -245 0 -246 0 -89 60 c-49 33 -91 60 -94 60 -3 0 -7 -28 -9 -62 -2
-35 -4 35 -5 155 l-2 217 345 0 345 0 0 -215z m1425 -225 l0 -435 -350 0 -350
0 -3 65 c-1 36 -3 69 -5 73 -1 5 -43 -25 -92 -67 l-90 -76 -62 0 -63 0 0 440
0 440 508 -2 507 -3 0 -435z m-1036 -173 c1 -128 -1 -241 -5 -250 -13 -34 -24
-16 -24 38 0 30 -3 55 -6 55 -4 0 -40 -25 -80 -56 l-74 -57 -68 57 c-38 31
-72 56 -76 56 -3 0 -6 -25 -6 -55 0 -42 -3 -55 -15 -55 -13 0 -15 33 -15 240
0 185 3 240 13 241 10 0 10 2 0 6 -36 14 4 18 171 15 l184 -3 1 -232z m-6559
-679 l0 -893 33 -26 c17 -14 80 -63 140 -108 l107 -82 0 -162 -1 -162 -140
-97 -141 -98 -88 0 c-79 0 -88 2 -93 20 -5 18 -14 20 -86 20 l-81 0 0 -125 0
-125 -120 0 -120 0 0 130 0 130 -905 0 -905 0 0 160 0 160 969 0 969 0 27 48
c89 154 119 202 126 202 5 0 9 428 9 950 l0 950 150 0 150 0 0 -892z m5710
617 l0 -225 635 0 635 0 0 -495 0 -495 -752 -2 c-414 -2 -795 -2 -845 0 l-93
3 0 120 0 119 95 0 95 0 0 600 0 600 115 0 115 0 0 -225z m220 125 l0 -100
-100 0 c-69 0 -100 4 -100 12 0 6 16 39 35 74 19 34 35 67 35 72 0 5 -16 8
-35 5 -30 -4 -35 -2 -35 16 0 20 5 21 100 21 l100 0 0 -100z m240 -115 l0
-215 -27 0 c-16 0 -54 18 -88 40 l-60 40 -3 -40 c-3 -32 -7 -40 -23 -40 -18 0
-19 9 -19 215 l0 215 110 0 110 0 0 -215z m-240 -110 l0 -105 -100 0 c-119 0
-120 2 -65 103 19 35 35 67 35 70 0 4 -16 7 -35 7 -24 0 -35 5 -35 15 0 12 18
15 100 15 l100 0 0 -105z m-660 -490 l0 -415 -55 0 c-30 0 -55 -4 -55 -8 0 -4
14 -29 30 -55 17 -26 30 -50 30 -53 0 -3 11 -22 25 -42 14 -20 25 -40 25 -44
0 -5 -157 -8 -350 -8 l-350 0 0 520 0 520 350 0 350 0 0 -415z m190 400 c0
-11 -13 -15 -53 -15 -57 0 -72 -6 -58 -24 17 -20 111 -187 111 -197 0 -5 -38
-9 -85 -9 l-85 0 0 130 0 130 85 0 c69 0 85 -3 85 -15z m2138 -532 l2 -493
-300 0 -300 0 0 25 c0 14 27 65 60 116 33 50 60 92 60 95 0 2 -27 4 -60 4
l-60 0 0 50 0 50 140 0 c139 0 140 0 140 23 0 20 4 23 34 19 23 -3 35 1 39 12
3 8 2 18 -4 22 -6 4 -6 11 1 19 7 8 9 19 5 25 -5 7 -12 5 -21 -7 -13 -16 -14
-16 -8 0 3 9 2 17 -3 17 -18 0 -22 -13 -12 -33 7 -13 8 -17 1 -13 -6 4 -15 -2
-21 -11 -8 -13 -10 20 -11 120 l0 137 -140 0 -140 0 0 30 c0 21 19 59 59 119
33 49 57 91 54 95 -4 3 -30 6 -60 6 l-53 0 0 35 0 35 298 -2 297 -3 3 -492z
m-7918 -238 c0 -344 -2 -625 -5 -625 -3 0 -23 11 -45 25 -51 32 -62 32 -55 -2
3 -16 12 -60 19 -99 l12 -70 -93 -33 c-51 -18 -93 -36 -93 -40 0 -4 17 -17 38
-29 l37 -22 -837 0 -838 0 0 65 0 65 154 0 c85 0 161 3 170 6 14 5 16 39 16
280 l0 273 68 58 c37 32 89 76 116 98 27 22 126 105 221 185 94 80 250 210
345 290 95 80 187 157 204 172 l31 27 268 1 267 0 0 -625z m1070 305 l0 -320
-273 0 c-151 0 -315 3 -365 6 l-92 7 0 168 0 169 49 0 c28 0 53 5 56 10 4 6
-19 43 -49 84 -54 70 -56 75 -56 134 l0 62 365 0 365 0 0 -320z m4597 187 c0
-7 25 -56 56 -109 32 -53 57 -99 57 -102 0 -3 -38 -6 -85 -6 l-85 0 0 115 0
115 28 0 c17 0 29 -5 29 -13z m113 -252 c0 -12 -13 -15 -55 -15 -35 0 -55 -4
-55 -12 0 -6 25 -53 55 -103 30 -51 55 -95 55 -99 0 -3 -38 -6 -85 -6 l-85 0
0 125 0 125 85 0 c69 0 85 -3 85 -15z m1733 -71 c32 -34 57 -64 57 -68 0 -3
-54 -6 -120 -6 -66 0 -120 3 -120 6 0 9 114 134 121 131 3 -1 31 -30 62 -63z
m-6535 -200 l92 -7 0 -188 0 -189 -365 0 -365 0 0 195 0 195 273 0 c151 0 315
-3 365 -6z m-2518 -444 l0 -270 -170 0 -170 0 0 -75 c0 -47 -4 -75 -11 -75 -6
0 -46 27 -88 60 -43 33 -81 60 -84 60 -3 0 -8 -28 -10 -62 -2 -35 -4 -8 -5 60
l-2 122 -285 0 -285 0 0 218 c0 120 3 222 7 225 3 4 253 7 555 7 l548 0 0
-270z m7414 155 c37 -25 79 -48 92 -51 l24 -6 -2 -332 -3 -331 -547 -1 -548
-1 0 384 0 383 458 0 457 0 69 -45z m346 -23 l70 -64 -2 -316 -3 -317 -140 0
-140 0 -3 314 -2 313 67 69 c37 38 70 68 74 67 5 -2 40 -31 79 -66z m570 -9
l0 -78 -67 3 -68 3 3 -225 c3 -226 3 -226 25 -226 l22 0 -3 220 c-2 195 -1
220 13 220 14 0 15 -25 13 -220 -3 -204 -2 -220 15 -220 16 0 17 17 17 221 0
172 3 220 13 217 9 -4 13 -76 15 -306 l2 -302 -240 0 -240 0 0 85 c0 61 3 85
13 85 9 0 11 49 9 220 -2 192 -1 220 13 220 13 0 15 -29 15 -220 0 -213 1
-220 20 -220 19 0 20 7 20 220 0 191 2 220 15 220 14 0 15 -28 13 -220 -3
-204 -2 -220 15 -220 16 0 17 17 17 220 0 191 2 220 15 220 14 0 15 -28 13
-220 -3 -204 -2 -220 15 -220 16 0 17 17 17 220 0 145 4 220 10 220 7 0 10
-73 8 -220 -3 -214 -2 -220 17 -220 19 0 20 6 17 220 -2 192 -1 220 13 220 13
0 15 -29 15 -220 0 -203 1 -220 18 -220 16 0 17 17 17 225 l0 225 -162 0 -163
0 0 75 0 75 240 0 240 0 0 -77z m150 7 l0 -70 -65 0 -65 0 0 70 0 70 65 0 65
0 0 -70z m150 0 l0 -70 -65 0 -65 0 0 70 0 70 65 0 65 0 0 -70z m828 -317 l2
-383 -555 0 -555 0 0 305 0 305 144 0 c164 0 156 -5 156 91 l0 59 28 -17 c15
-10 54 -37 87 -60 32 -24 63 -43 67 -43 4 0 8 29 8 65 l0 65 308 -2 307 -3 3
-382z m-6849 56 l0 -169 -24 0 c-21 0 -25 -5 -25 -30 0 -27 2 -29 24 -20 l25
9 0 -133 1 -134 -32 -4 c-18 -2 -57 -2 -85 0 l-53 4 0 54 c0 30 -2 54 -5 54
-3 0 -39 -25 -79 -55 -70 -53 -75 -55 -134 -55 l-62 0 0 163 0 163 -52 39
c-29 22 -55 42 -58 46 -3 3 -42 34 -87 68 l-83 63 0 54 0 54 243 2 c133 2 297
2 364 0 l122 -3 0 -170z m-3421 -189 l-3 -120 128 0 127 0 0 -25 c0 -24 -3
-25 -60 -25 -33 0 -60 -4 -60 -8 0 -4 22 -25 49 -45 79 -60 78 -58 11 -112
-33 -26 -60 -52 -60 -57 0 -4 27 -8 60 -8 53 0 60 -2 60 -20 0 -20 -7 -20
-275 -20 l-275 0 0 280 0 280 151 0 150 0 -3 -120z m8570 -333 c54 -54 72 -79
72 -100 l0 -27 -146 0 -145 0 3 29 c2 18 26 53 68 99 36 39 67 71 70 72 3 0
38 -33 78 -73z m-228 -32 l0 -95 -400 0 -400 0 0 95 0 95 400 0 400 0 0 -95z
m1710 0 l0 -95 -655 0 c-360 0 -655 3 -655 6 0 3 9 18 21 32 l21 27 -61 3 -61
3 0 59 0 60 695 0 695 0 0 -95z m-6630 -492 c0 -408 3 -548 12 -563 7 -10 9
-22 6 -25 -4 -5 -398 -8 -660 -5 -5 0 -8 106 -8 235 l0 235 -45 0 -45 0 0 235
c0 129 3 235 8 235 4 0 20 -21 36 -46 16 -25 32 -42 36 -37 4 4 17 46 29 92
19 76 34 106 51 96 14 -8 170 -15 170 -7 0 5 -13 28 -30 50 -16 23 -30 43 -30
45 0 1 106 3 235 3 l235 1 0 -544z m-3140 342 c0 -34 4 -55 11 -55 7 0 44 25
84 55 l71 55 202 0 202 0 0 -260 0 -260 -572 2 -573 3 -3 258 -2 257 290 0
290 0 0 -55z m1562 -15 c45 -38 85 -67 89 -64 5 3 9 34 9 70 l0 64 60 0 60 0
0 -260 0 -260 -595 0 -595 0 0 260 0 260 446 0 446 0 80 -70z m9426 -2225 c0
-2111 -1 -2275 -16 -2279 -34 -9 -332 -4 -332 5 0 6 -7 6 -17 1 -23 -12 -473
-12 -473 0 0 5 -9 4 -19 -2 -25 -13 -101 -13 -101 0 0 7 -6 7 -17 1 -23 -11
-1323 -11 -1323 1 0 5 -8 5 -17 0 -23 -12 -1323 -12 -1323 0 0 5 -7 5 -17 0
-24 -12 -953 -12 -953 0 0 5 -9 4 -19 -2 -25 -13 -88 -13 -96 0 -4 6 -13 7
-23 1 -23 -11 -592 -11 -592 1 0 5 -7 5 -17 0 -23 -12 -713 -12 -713 0 0 5 -7
5 -17 -1 -24 -12 -593 -12 -593 1 0 5 -7 5 -17 0 -23 -12 -582 -12 -589 -1 -3
5 -14 5 -24 -1 -25 -13 -100 -13 -100 0 0 7 -6 7 -17 2 -19 -10 -310 -14 -355
-6 l-28 6 0 2274 0 2274 3904 0 3904 0 0 -2275z m-8798 1905 l0 -130 -195 0
-195 0 0 79 c0 67 3 81 18 85 9 3 46 26 82 50 l65 45 113 0 112 1 0 -130z
m200 0 l0 -130 -90 0 -90 0 0 130 0 130 90 0 90 0 0 -130z m78 -375 c-2 -124
-6 -225 -10 -225 -5 0 -154 0 -333 0 l-325 0 0 225 0 225 335 0 335 0 -2 -225z
m692 -2035 c0 -1187 3 -1790 10 -1790 6 0 10 -137 10 -390 l0 -390 -1800 -2
-1800 -3 0 2183 0 2182 1790 0 1790 0 0 -1790z"/>
<path d="M9630 7125 l0 -295 463 2 462 3 0 290 0 290 -462 3 -463 2 0 -295z
m357 203 l93 -63 0 -208 0 -207 -217 2 -218 3 -3 268 -2 267 126 0 127 0 94
-62z m551 -205 l-3 -268 -217 -3 -218 -2 0 215 c0 119 4 214 8 211 5 -3 49 22
98 54 l89 60 123 0 122 0 -2 -267z"/>
</g>
</svg>
