<?xml version="1.0" standalone="no"?>
<!DOCTYPE svg PUBLIC "-//W3C//DTD SVG 20010904//EN"
 "http://www.w3.org/TR/2001/REC-SVG-20010904/DTD/svg10.dtd">
<svg version="1.0" xmlns="http://www.w3.org/2000/svg"
 width="1280.000000pt" height="905.000000pt" viewBox="0 0 1280.000000 905.000000"
 preserveAspectRatio="xMidYMid meet">
<metadata>
Created by potrace 1.16, written by Peter Selinger 2001-2019
</metadata>
<g transform="translate(0.000000,905.000000) scale(0.100000,-0.100000)"
fill="#000000" stroke="none">
<path d="M5298 7543 l-2928 -3 0 -2475 0 -2474 32 -5 c18 -3 71 -12 118 -20
47 -9 148 -25 225 -36 77 -12 154 -24 170 -26 48 -9 343 -52 570 -84 116 -16
222 -32 236 -35 54 -12 682 -86 1059 -125 52 -5 196 -17 320 -25 124 -9 250
-18 280 -20 30 -2 213 -10 405 -16 193 -7 351 -13 353 -14 2 -2 -8 -26 -22
-54 -14 -28 -26 -53 -26 -56 0 -3 12 -5 28 -5 l27 0 -3 -207 c-2 -133 1 -210
8 -217 7 -7 10 57 10 207 l0 217 25 0 c31 0 31 8 0 70 l-25 50 72 0 c76 0 509
19 588 25 25 2 142 11 260 19 118 9 258 21 310 26 284 28 592 61 645 70 33 5
139 19 236 30 98 12 188 23 200 25 13 2 116 16 229 30 113 14 216 28 230 31
14 2 113 16 220 29 107 14 209 28 225 31 41 7 373 52 515 69 63 8 116 15 118
15 1 0 2 288 2 640 l0 640 328 0 329 0 7 776 c3 427 3 1052 0 1390 l-7 614
-369 0 -368 0 0 445 0 445 -772 0 c-425 0 -809 2 -853 3 -44 2 -1397 2 -3007
0z m-2828 -453 l0 -440 -30 0 -30 0 0 433 c0 239 3 437 7 440 3 4 17 7 30 7
l23 0 0 -440z m140 0 l0 -440 -30 0 -30 0 0 433 c0 239 3 437 7 440 3 4 17 7
30 7 l23 0 0 -440z m160 0 l0 -440 -30 0 -30 0 0 433 c0 239 3 437 7 440 3 4
17 7 30 7 l23 0 0 -440z m150 0 l0 -440 -25 0 -25 0 0 440 0 440 25 0 25 0 0
-440z m148 -2 l2 -438 -25 0 -25 0 0 441 0 440 23 -3 22 -3 3 -437z m152 2 l0
-440 -30 0 -30 0 0 440 0 440 30 0 30 0 0 -440z m153 403 c-1 -18 -2 -215 -2
-438 l-1 -405 -30 0 -30 0 0 433 c0 239 3 437 7 441 4 4 18 6 32 4 21 -3 25
-8 24 -35z m1357 -397 l0 -434 -54 -4 c-81 -5 -86 -2 -86 43 l0 39 -175 0
-175 0 0 -40 0 -40 -380 -2 -380 -3 0 438 0 437 625 0 625 0 0 -434z m584 426
c3 -5 -4 -71 -14 -148 -11 -76 -31 -220 -44 -319 -14 -99 -27 -195 -31 -213
-3 -17 -14 -98 -25 -178 -11 -81 -22 -149 -24 -152 -3 -2 -100 -7 -216 -10
l-210 -5 0 322 0 321 45 0 46 0 -3 143 -3 142 -42 3 -43 3 0 50 0 49 279 0
c154 0 282 -4 285 -8z m1821 -39 c12 -86 57 -115 200 -128 39 -3 94 -8 123
-11 160 -15 237 -49 282 -127 16 -28 34 -65 39 -82 5 -16 24 -77 42 -135 37
-123 68 -189 106 -226 47 -45 142 -83 234 -95 46 -6 99 -13 117 -15 l32 -5 0
-512 0 -512 -91 -22 c-156 -37 -249 -98 -301 -195 -21 -40 -23 -60 -29 -278
-8 -264 -10 -281 -40 -350 -40 -92 -131 -152 -315 -204 -82 -24 -136 -37 -364
-86 -205 -44 -317 -123 -387 -272 l-23 -48 -302 0 c-660 -1 -1112 1 -1116 5
-3 2 -18 48 -34 102 -16 54 -48 159 -70 233 l-41 135 2 945 c1 551 7 974 12
1015 6 39 12 81 14 95 2 14 13 95 25 180 12 85 23 164 25 175 3 22 55 398 60
430 1 11 3 23 4 28 0 4 403 7 895 7 l894 0 7 -47z m1093 -85 l3 -128 -53 -2
c-47 -1 -49 -2 -13 -5 45 -5 57 -13 62 -43 2 -17 -3 -20 -40 -20 l-42 0 33 20
c17 11 32 22 32 25 0 7 -13 0 -55 -29 l-30 -21 50 -5 50 -5 3 -77 c2 -49 -1
-78 -8 -78 -5 0 -10 11 -10 25 0 23 -4 25 -42 24 -44 -1 -43 -3 5 -13 41 -9
35 -36 -8 -36 -27 0 -35 -4 -34 -17 0 -11 3 -13 6 -5 6 15 45 16 61 0 9 -9 12
-9 12 2 0 10 3 11 11 3 19 -19 -1 -34 -42 -31 -21 1 -42 -1 -45 -5 -4 -4 7 -7
24 -7 33 0 52 -17 33 -30 -7 -4 -23 -5 -37 -2 -14 2 -24 0 -24 -7 0 -8 14 -11
38 -9 31 3 37 7 36 26 0 12 5 22 13 22 8 0 13 -6 12 -12 -1 -7 -1 -28 0 -45 1
-32 3 -33 41 -33 l40 0 0 -100 0 -100 -37 0 c-66 1 -186 27 -243 53 -107 48
-133 86 -195 282 -26 83 -58 170 -70 195 -56 110 -135 142 -388 159 -181 12
-226 38 -227 129 l0 32 538 -2 537 -3 3 -127z m600 -320 l2 -448 85 0 85 0 2
-577 3 -578 302 -3 302 -2 -2 -290 -2 -290 -302 0 -303 0 0 -840 0 -840 -2460
0 -2460 0 0 265 0 264 -122 3 -123 3 -3 202 -2 202 157 6 c87 3 292 8 456 11
l297 5 0 -271 0 -270 980 0 980 0 0 150 0 150 815 0 815 0 0 103 c0 56 0 863
0 1793 0 930 3 1694 7 1698 4 3 115 5 247 4 l241 -3 3 -447z m82 12 l0 -440
-35 0 -35 0 0 433 c0 239 3 437 7 440 3 4 19 7 35 7 l28 0 0 -440z m140 0 l0
-440 -30 0 -30 0 0 440 0 440 30 0 30 0 0 -440z m158 -2 l2 -438 -30 0 -30 0
-1 403 c-1 221 -2 416 -3 432 -2 42 2 47 32 43 l27 -3 3 -437z m150 0 l2 -438
-30 0 -30 0 0 433 c0 239 3 437 7 441 4 4 16 6 28 4 20 -3 20 -9 23 -440z
m142 2 l0 -440 -25 0 -25 0 0 433 c0 239 3 437 7 440 3 4 15 7 25 7 17 0 18
-20 18 -440z m160 0 l0 -440 -30 0 -30 0 0 440 0 440 30 0 30 0 0 -440z m150
0 l0 -440 -30 0 -30 0 0 433 c0 239 3 437 7 440 3 4 17 7 30 7 l23 0 0 -440z
m-4990 190 l0 -130 -35 0 -35 0 0 128 0 129 35 1 35 1 0 -129z m3490 -65 l0
-195 -35 0 -35 0 0 188 c0 104 3 192 7 195 3 4 19 7 35 7 l28 0 0 -195z
m-3740 -519 l0 -35 -132 -3 c-179 -4 -178 -4 -178 38 l0 34 155 0 155 0 0 -34z
m-660 -78 c0 -13 -5 -50 -10 -83 -7 -41 -7 -92 1 -160 13 -121 24 -165 94
-365 71 -206 82 -244 96 -330 19 -124 7 -191 -95 -537 -43 -149 -45 -162 -53
-335 l-6 -138 -773 0 -774 0 0 980 0 980 543 3 c298 1 640 3 760 5 l217 2 0
-22z m820 -778 c0 -437 3 -879 7 -982 l6 -188 -391 0 -392 0 0 103 c0 141 21
266 75 442 61 202 75 270 75 376 0 123 -19 207 -100 432 -38 107 -74 223 -80
258 -14 73 -17 253 -6 316 l7 41 400 -1 399 -2 0 -795z m5930 405 l0 -385
-820 0 -820 0 0 155 0 155 40 0 40 0 0 140 0 140 -40 0 -40 0 0 90 0 90 820 0
820 0 0 -385z m-5570 110 l0 -135 -125 0 -125 0 0 135 0 135 125 0 125 0 0
-135z m90 5 l0 -130 -35 0 -35 0 0 130 0 130 35 0 35 0 0 -130z m-360 -10 l0
-130 -35 0 -35 0 0 130 0 130 35 0 35 0 0 -130z m4260 -40 l0 -130 -30 0 -30
0 0 130 0 130 30 0 30 0 0 -130z m-3900 -320 l0 -220 -215 0 -215 0 0 220 0
220 215 0 215 0 0 -220z m3901 -162 c0 -7 1 -62 0 -123 l0 -110 -30 -3 -31 -3
0 125 0 126 30 0 c17 0 30 -5 31 -12z m529 -163 l0 -175 -295 0 -295 0 0 45 0
45 40 0 40 0 0 130 0 130 255 0 255 0 0 -175z m1060 -300 l0 -475 -520 0 -520
0 0 40 c0 39 1 40 35 40 l35 0 0 140 0 140 -35 0 -35 0 0 295 0 295 520 0 520
0 0 -475z m-5482 -22 l2 -413 -143 0 c-79 0 -178 3 -220 6 l-77 7 0 409 0 408
218 -2 217 -3 3 -412z m3122 42 l0 -235 -40 0 -40 0 0 -210 0 -210 40 0 40 0
0 -277 0 -278 -32 2 c-18 1 -363 2 -766 2 l-732 1 29 59 c71 139 185 207 441
261 451 95 570 151 621 293 19 55 23 90 29 307 6 217 9 250 27 291 47 104 130
163 291 204 48 12 88 23 90 24 1 0 2 -105 2 -234z m0 -451 l0 -195 -32 3 -33
3 -3 193 -2 192 35 0 35 0 0 -196z m-3480 -149 l0 -125 -35 0 -35 0 0 125 0
125 35 0 35 0 0 -125z m250 0 l0 -125 -115 0 -115 0 0 125 0 125 115 0 115 0
0 -125z m98 3 l-3 -123 -35 0 -35 0 -3 123 -3 122 41 0 41 0 -3 -122z m5480
-410 l-3 -493 -795 -2 c-437 -2 -805 0 -817 2 -20 5 -23 12 -23 60 l0 55 40 0
40 0 0 140 0 140 -40 0 -40 0 0 295 0 295 820 0 820 0 -2 -492z m-6938 -78 l0
-350 -665 0 -665 0 0 350 0 350 665 0 665 0 0 -350z m348 308 c-19 -24 -59
-73 -88 -111 -43 -53 -56 -65 -66 -55 -6 7 -46 57 -88 111 l-77 97 177 0 176
0 -34 -42z m172 -8 l0 -50 175 0 175 0 0 50 0 50 80 0 80 0 0 -230 0 -230 -80
0 -80 0 0 44 c0 24 -4 46 -10 48 -5 2 -84 2 -175 0 l-165 -3 0 -44 0 -45 -55
0 -55 0 0 230 0 230 55 0 55 0 0 -50z m330 10 l0 -40 -155 0 -155 0 0 40 0 40
155 0 155 0 0 -40z m643 -72 c67 -220 106 -352 104 -354 -1 -1 -125 -4 -274
-7 l-273 -5 0 54 0 54 40 0 40 0 0 145 0 145 -39 0 c-37 0 -39 2 -43 35 -2 20
-2 38 1 40 2 3 96 5 207 5 l203 0 34 -112z m-1391 -10 c41 -51 78 -99 82 -105
4 -8 -5 -28 -23 -50 -17 -21 -56 -69 -86 -106 l-55 -69 0 211 c0 116 2 211 4
211 2 0 37 -42 78 -92z m288 -119 l0 -211 -85 107 c-56 70 -83 111 -77 118 38
52 155 197 158 197 2 0 4 -95 4 -211z m730 16 l0 -125 -35 0 -35 0 0 125 0
125 35 0 35 0 0 -125z m-821 -143 l92 -114 -181 3 c-99 2 -179 6 -178 10 4 8
172 217 174 215 1 0 43 -52 93 -114z m551 -52 l0 -40 -155 0 -155 0 0 40 0 40
155 0 155 0 0 -40z m3750 -175 l0 -105 -312 0 c-172 0 -360 -1 -418 -1 -58 -1
-282 0 -497 0 l-393 1 0 105 0 105 810 0 810 0 0 -105z m-2952 88 l-48 -4 0
-145 0 -144 45 0 45 0 0 -100 0 -100 -325 0 -325 0 0 250 0 250 328 -2 c180
-1 306 -3 280 -5z m362 -243 c0 -160 -4 -250 -10 -250 -5 0 -10 20 -10 46 l0
45 -145 -3 -145 -3 0 208 0 207 155 0 155 0 0 -250z m390 0 l0 -250 -185 0
-185 0 0 100 0 100 45 0 45 0 0 144 0 145 -47 4 c-27 2 36 4 140 5 l187 2 0
-250z m560 0 c0 -216 -2 -250 -15 -250 -11 0 -15 12 -15 45 l0 46 -142 -3
-143 -3 -3 -42 -3 -43 -110 0 -109 0 0 250 0 250 270 0 270 0 0 -250z m-1270
95 l0 -125 -40 0 -40 0 0 125 0 125 40 0 40 0 0 -125z m420 0 l0 -125 -40 0
-40 0 0 125 0 125 40 0 40 0 0 -125z m-2110 -290 l0 -225 -665 0 -665 0 0 228
0 227 665 -3 665 -2 0 -225z m100 130 l0 -95 -40 0 -40 0 0 95 0 95 40 0 40 0
0 -95z m5640 -145 l0 -180 -220 0 -220 0 0 40 0 40 40 0 41 0 -3 123 -3 122
-37 3 c-25 2 -38 8 -38 18 0 12 35 14 220 14 l220 0 0 -180z m530 -454 l0
-634 -72 -7 c-75 -7 -127 -14 -503 -65 -121 -17 -301 -41 -400 -54 -99 -14
-193 -27 -210 -30 -16 -3 -124 -17 -240 -32 -115 -14 -219 -27 -230 -29 -25
-4 -278 -35 -287 -35 -4 0 -8 189 -8 420 l0 419 33 6 c17 3 232 5 477 3 l445
-3 3 -177 c1 -108 6 -178 12 -178 6 0 10 67 10 174 l0 173 40 7 40 6 0 140 0
139 -42 4 c-24 2 59 4 185 5 l227 2 0 183 c0 101 3 187 7 190 3 4 120 7 260 7
l253 0 0 -634z m-6080 444 l0 -50 75 0 75 0 0 -75 0 -75 -160 0 -160 0 0 125
0 125 85 0 85 0 0 -50z m1790 5 l0 -35 -130 0 -130 0 0 35 0 35 130 0 130 0 0
-35z m930 0 l0 -35 -125 0 -125 0 0 35 0 35 125 0 125 0 0 -35z m-2660 -335
l0 -110 45 0 45 0 0 -440 c0 -375 -2 -440 -14 -440 -14 0 -141 16 -201 25 -16
3 -111 16 -210 30 -99 14 -193 28 -210 31 -16 3 -104 16 -195 29 -154 23 -349
52 -697 106 l-143 22 0 429 0 428 790 0 790 0 0 -110z m268 -197 l3 -43 120 0
119 0 0 40 c0 22 5 40 10 40 7 0 10 -153 10 -440 l0 -440 -22 0 c-13 0 -61 5
-108 11 -47 5 -130 15 -185 22 l-100 12 -3 410 c-1 226 0 414 2 420 2 5 37 10
77 10 l74 0 3 -42z m220 5 l3 -38 -100 0 -101 0 0 33 c0 19 3 36 6 39 3 3 46
5 97 4 l92 -1 3 -37z m280 33 c8 -5 12 -21 10 -37 l-3 -29 -100 0 -100 0 -3
29 c-5 39 10 46 103 46 44 0 86 -4 93 -9z m144 3 c17 -5 18 -28 18 -465 l0
-460 -57 5 c-32 2 -120 10 -195 17 l-138 13 0 443 c0 244 4 443 9 443 4 0 7
-12 5 -28 -6 -50 3 -53 127 -50 l114 3 3 41 3 41 46 2 c26 1 55 -1 65 -5z
m266 -36 l3 -38 -100 0 -101 0 0 33 c0 19 3 37 7 41 4 4 48 6 98 4 l90 -3 3
-37z m280 -446 l2 -484 -72 6 c-40 3 -152 11 -248 17 -96 5 -181 12 -187 14
-17 6 -19 925 -3 925 6 0 10 -18 10 -40 l0 -40 120 0 120 0 0 39 c0 22 6 42
13 45 6 3 64 4 127 3 l115 -2 3 -483z m240 446 l3 -38 -100 0 -101 0 0 33 c0
19 3 37 7 41 4 4 48 6 98 4 l90 -3 3 -37z m309 35 c11 -4 13 -94 13 -494 l0
-489 -147 5 c-82 2 -205 7 -275 11 l-128 6 0 439 0 439 125 0 125 0 0 38 c0
21 2 41 5 44 7 6 264 8 282 1z m348 -33 l0 -35 -160 0 -160 0 -3 32 c-4 39 -5
39 178 38 l145 0 0 -35z m133 30 c1 0 2 -101 2 -225 l0 -225 110 0 110 0 0
-145 c0 -109 -3 -145 -12 -146 -7 0 -60 -1 -118 -1 -58 0 -111 -3 -117 -5 -9
-4 -13 -36 -13 -113 0 -116 -2 -120 -56 -120 -21 0 -24 4 -24 40 l0 40 -170 0
-170 0 0 410 0 410 170 0 170 0 0 39 c0 33 4 40 23 44 17 4 61 2 95 -3z m450
-87 l3 -93 -64 0 c-35 0 -132 -3 -215 -7 l-152 -6 0 102 0 101 213 -2 212 -3
3 -92z m280 49 l3 -42 124 0 124 0 4 43 c2 23 3 -163 3 -413 l-1 -455 -65 -7
c-68 -7 -425 -38 -441 -38 -11 0 -13 943 -1 954 4 4 61 6 127 4 l120 -4 3 -42z
m218 41 c8 -3 14 -20 14 -39 l0 -34 -105 0 -105 0 0 33 c0 19 2 36 4 38 6 6
177 8 192 2z m622 -420 l2 -422 -32 -5 c-152 -23 -457 -56 -514 -56 l-24 0 0
448 c0 247 3 451 6 455 3 3 130 5 282 4 l277 -2 3 -422z m-1118 -437 l0 -93
-46 -7 c-26 -3 -75 -6 -110 -6 l-64 0 0 100 0 100 110 0 110 0 0 -94z m-582
-93 l3 -33 -165 0 -166 0 0 28 c0 16 3 31 6 35 3 3 76 5 162 4 l157 -2 3 -32z"/>
<path d="M5220 6325 c0 -11 53 -85 60 -85 4 0 10 7 14 15 4 11 66 -22 263
-141 142 -86 325 -197 406 -247 82 -49 151 -86 155 -83 3 4 1 10 -5 14 -6 4
-189 115 -406 247 -336 204 -394 242 -386 257 14 27 12 28 -46 28 -30 0 -55
-2 -55 -5z"/>
<path d="M5995 5198 c-49 -28 -108 -61 -130 -73 -22 -13 -130 -73 -240 -135
-333 -188 -304 -174 -311 -156 -3 9 -10 16 -14 16 -7 0 -60 -74 -60 -85 0 -3
25 -5 55 -5 54 0 65 6 45 26 -16 16 -69 -15 632 378 113 63 146 86 121 86 -5
0 -48 -23 -98 -52z"/>
<path d="M5282 804 c-26 -18 -29 -56 -7 -78 9 -9 34 -20 55 -26 29 -8 40 -16
40 -30 0 -33 -61 -37 -74 -4 -6 16 -46 19 -46 4 0 -20 49 -60 74 -60 43 0 75
18 82 45 11 44 -9 71 -60 84 -49 12 -61 35 -25 46 13 4 27 1 39 -10 10 -9 27
-15 37 -13 16 3 15 7 -9 31 -31 31 -72 35 -106 11z"/>
<path d="M4410 715 c0 -78 3 -95 15 -95 12 0 15 15 16 73 1 76 3 73 29 -30 14
-57 45 -60 59 -5 25 100 26 101 29 30 2 -51 6 -68 17 -68 12 0 15 19 15 95 l0
95 -29 0 c-32 0 -36 -7 -46 -74 -9 -57 -20 -59 -30 -3 -5 23 -9 45 -10 50 -1
4 -3 12 -4 17 0 6 -14 10 -31 10 l-30 0 0 -95z"/>
<path d="M5777 742 c-23 -25 -22 -85 1 -105 25 -23 85 -22 105 1 23 25 22 85
-1 105 -25 23 -85 22 -105 -1z"/>
<path d="M5937 742 c-23 -25 -22 -85 1 -105 28 -25 87 -22 106 5 22 30 20 81
-2 101 -25 23 -85 22 -105 -1z"/>
<path d="M7167 742 c-25 -28 -22 -87 5 -106 30 -21 81 -20 101 2 24 26 25 77
3 101 -25 27 -86 28 -109 3z"/>
<path d="M7347 747 c-28 -20 -32 -78 -7 -104 27 -30 82 -31 110 -3 45 45 11
120 -53 120 -18 0 -41 -6 -50 -13z"/>
</g>
</svg>
