<?xml version="1.0" standalone="no"?>
<!DOCTYPE svg PUBLIC "-//W3C//DTD SVG 20010904//EN"
 "http://www.w3.org/TR/2001/REC-SVG-20010904/DTD/svg10.dtd">
<svg version="1.0" xmlns="http://www.w3.org/2000/svg"
 width="1280.000000pt" height="905.000000pt" viewBox="0 0 1280.000000 905.000000"
 preserveAspectRatio="xMidYMid meet">
<metadata>
Created by potrace 1.16, written by Peter Selinger 2001-2019
</metadata>
<g transform="translate(0.000000,905.000000) scale(0.100000,-0.100000)"
fill="#000000" stroke="none">
<path d="M2770 5390 c0 -2355 1 -2480 18 -2481 9 0 24 -2 32 -4 30 -7 648
-101 885 -136 77 -11 181 -26 230 -34 50 -8 162 -24 250 -36 88 -11 169 -22
180 -24 11 -1 126 -15 255 -30 129 -15 246 -29 260 -30 48 -7 237 -25 415 -40
795 -67 1672 -73 2185 -15 47 5 148 14 225 20 77 6 205 19 285 28 80 9 171 16
203 17 31 0 57 3 57 6 0 4 37 10 83 13 45 4 132 14 192 22 61 8 196 26 300 39
345 43 655 85 678 90 12 3 110 17 217 31 528 68 646 83 663 84 16 0 17 38 17
645 l0 645 333 2 332 3 3 1388 2 1387 -375 0 -375 0 0 439 c0 391 -2 440 -16
445 -9 3 -1707 6 -3775 6 l-3759 0 0 -2480z m95 2020 l0 -435 -27 0 c-16 0
-28 3 -28 8 0 4 0 201 0 438 l0 430 28 -3 27 -3 0 -435z m145 0 l0 -440 -30 0
-30 0 0 440 0 440 30 0 30 0 0 -440z m160 0 l0 -440 -35 0 -35 0 0 440 0 440
35 0 35 0 0 -440z m140 0 l0 -440 -25 0 -25 0 0 440 0 440 25 0 25 0 0 -440z
m148 3 l-3 -438 -22 -3 -23 -3 0 440 0 441 25 0 25 0 -2 -437z m157 -3 l0
-435 -27 -3 -28 -3 0 441 0 441 28 -3 27 -3 0 -435z m155 0 l0 -440 -30 0 -30
0 0 440 0 440 30 0 30 0 0 -440z m830 390 l0 -50 175 0 175 0 0 50 0 50 70 0
70 0 0 -390 0 -390 -170 0 -170 0 0 -45 0 -45 -440 0 -440 0 0 435 0 435 365
0 365 0 0 -50z m336 8 l2 -38 -159 0 -159 0 0 40 0 41 157 -3 158 -3 1 -37z
m564 -493 l0 -535 -197 2 -198 3 -2 320 -2 320 42 5 42 5 0 140 0 140 -40 5
c-40 5 -40 5 -43 54 -5 80 -16 76 203 76 l195 0 0 -535z m260 0 l0 -535 -120
0 -120 0 0 325 0 325 40 0 40 0 0 145 0 145 -40 0 -40 0 0 65 0 65 120 0 120
0 0 -535z m1360 531 c0 -2 -12 -59 -26 -127 -70 -336 -105 -512 -119 -594 -8
-49 -17 -101 -20 -115 -14 -67 -65 -450 -74 -563 -19 -230 -13 -642 13 -887 7
-63 45 -340 51 -370 2 -14 7 -38 10 -55 14 -86 58 -319 87 -462 l34 -163 -573
0 -573 0 0 148 0 147 -205 -3 -205 -3 0 831 c0 456 -1 833 -2 838 -2 4 30 8
70 10 l72 3 0 139 0 140 55 0 55 0 0 545 0 545 675 0 c371 0 675 -2 675 -4z
m1280 -61 l0 -65 -40 0 -40 0 0 -210 0 -210 40 0 40 0 0 -1325 0 -1325 -339 0
c-330 0 -339 0 -344 -20 -5 -19 -14 -20 -161 -20 -149 0 -156 1 -156 20 0 18
-7 20 -70 20 l-70 0 0 -70 0 -70 -83 0 -82 0 -19 88 c-10 48 -27 130 -37 182
-10 52 -21 106 -24 120 -3 14 -17 90 -30 170 -14 80 -28 156 -30 170 -3 14
-11 74 -19 135 -75 551 -70 947 20 1525 21 138 85 483 109 590 3 14 12 61 21
105 8 44 24 119 35 168 l21 87 629 0 629 0 0 -65z m190 15 l0 -50 248 2 247 3
0 45 0 45 68 3 67 3 0 -446 0 -445 85 0 85 0 0 -1620 0 -1620 -2435 0 -2435 0
0 640 0 640 -870 0 -870 0 0 139 0 140 43 3 42 3 3 258 2 257 -45 0 -45 0 0
144 0 145 43 3 42 3 3 292 2 292 -42 3 -43 3 -3 138 -3 137 1156 0 1155 0 0
-1235 0 -1235 998 -2 c548 -2 1068 -2 1155 0 l157 3 0 55 0 55 158 -3 157 -3
0 -53 0 -52 353 0 352 0 0 1680 0 1680 85 0 85 0 0 -50z m480 10 l0 -40 -230
0 -230 0 0 40 0 40 230 0 230 0 0 -40z m230 -400 l0 -440 -30 0 -30 0 0 440 0
440 30 0 30 0 0 -440z m148 3 l-3 -438 -32 -3 -33 -3 0 440 0 441 35 0 35 0
-2 -437z m152 -3 l0 -440 -30 0 -30 0 0 440 0 440 30 0 30 0 0 -440z m150 0
l0 -440 -30 0 -30 0 0 440 0 440 30 0 30 0 0 -440z m145 0 l0 -435 -22 -3 -23
-3 0 441 0 441 23 -3 22 -3 0 -435z m155 0 l0 -440 -30 0 -30 0 0 440 0 440
30 0 30 0 0 -440z m160 0 l0 -440 -35 0 -35 0 0 440 0 440 35 0 35 0 0 -440z
m-5040 165 l0 -125 -35 0 -35 0 0 125 0 125 35 0 35 0 0 -125z m3230 -70 l0
-195 -29 0 c-16 0 -31 6 -34 14 -3 7 -6 95 -7 195 l-1 181 36 0 35 0 0 -195z
m-3310 -495 l0 -40 -160 0 -160 0 0 40 0 40 160 0 160 0 0 -40z m5960 -735 l0
-685 -820 0 -820 0 0 455 0 455 40 0 40 0 0 140 0 140 -40 0 -40 0 0 90 0 90
820 0 820 0 0 -685z m-1580 359 l0 -124 -30 0 -30 0 0 124 c0 121 1 125 23
128 12 2 25 2 30 0 4 -2 7 -59 7 -128z m-4300 0 l0 -125 -32 3 -33 3 -3 109
c-1 61 0 116 2 123 3 7 19 13 36 13 l30 0 0 -126z m71 74 c1 -29 4 -43 6 -30
3 15 11 22 27 22 28 0 50 24 42 45 -3 9 0 15 9 15 17 0 25 -25 21 -67 -2 -18
0 -33 5 -33 5 0 9 23 9 50 l0 50 140 0 140 0 0 -130 0 -130 -130 0 c-121 0
-130 1 -130 19 0 11 6 22 13 25 9 5 9 7 -1 12 -6 3 -10 10 -6 15 3 5 0 9 -5 9
-12 0 -14 -10 -11 -52 l2 -28 -91 0 -91 0 0 130 0 130 25 0 c23 0 25 -4 26
-52z m-2391 -319 l0 -280 -32 3 -33 3 -3 265 c-1 146 0 270 3 277 2 7 18 13
35 13 l30 0 0 -281z m2460 47 c0 -28 26 -42 46 -25 8 6 14 20 14 30 0 12 7 19
20 19 23 0 24 -4 10 -31 -7 -13 -7 -19 -1 -19 6 0 13 11 17 25 5 21 12 25 45
25 l39 0 0 -245 0 -245 -35 -1 c-19 -1 -46 -1 -60 -1 -14 0 -88 0 -166 1
l-141 1 4 88 3 87 43 3 43 3 -3 137 -3 137 -42 3 c-29 2 -43 8 -43 18 0 11 20
14 105 14 104 0 105 0 105 -24z m-140 -152 l0 -125 -32 3 -33 3 -3 109 c-1 61
0 116 2 123 3 7 19 13 36 13 l30 0 0 -126z m330 -569 l0 -225 -199 0 -198 0 1
23 c1 19 7 22 44 25 l42 3 0 139 0 139 -42 3 -43 3 -3 58 -3 57 201 0 200 0 0
-225z m-330 -35 c0 -121 -1 -130 -19 -130 -47 0 -49 6 -50 126 -1 63 1 119 4
124 4 6 19 10 36 10 l29 0 0 -130z m-2320 -140 l0 -240 -35 0 -35 0 0 240 0
240 35 0 35 0 0 -240z m8200 -640 l0 -680 -820 0 -820 0 0 50 0 50 40 0 40 0
0 145 0 145 -40 0 -40 0 0 95 0 95 105 0 105 0 0 215 0 215 -105 0 -105 0 0
175 0 175 820 0 820 0 0 -680z m-5552 238 l-3 -333 -152 -1 -153 -2 0 134 0
134 -39 0 c-24 0 -41 5 -44 14 -3 7 -6 97 -7 200 l-1 186 201 0 200 0 -2 -332z
m4102 -118 l0 -200 -95 0 -95 0 0 193 c0 107 3 197 7 200 3 4 46 7 95 7 l88 0
0 -200z m-4432 -87 l-3 -128 -30 0 -30 0 -3 114 c-1 63 0 121 2 128 3 7 19 13
36 13 l31 0 -3 -127z m-1408 7 l0 -50 119 0 120 0 3 48 3 47 50 0 50 0 3 -240
2 -240 -662 0 -663 0 -3 230 c-1 126 0 235 2 242 4 10 107 13 491 13 l485 0 0
-50z m225 5 l0 -40 -102 -3 -103 -3 0 46 0 46 103 -3 102 -3 0 -40z m505 40
c0 -8 -160 -209 -169 -213 -8 -3 -158 178 -167 202 -5 14 14 16 165 16 94 0
171 -2 171 -5z m-247 -158 c31 -39 57 -74 57 -78 0 -3 -38 -55 -85 -114 l-85
-108 1 219 0 219 27 -33 c15 -19 53 -66 85 -105z m265 -187 l-3 -110 -88 110
-89 109 89 108 88 107 3 -106 c1 -59 1 -157 0 -218z m684 103 l3 -48 113 -3
112 -3 0 -89 0 -90 -159 0 -160 0 0 132 c0 73 3 136 5 140 3 4 23 8 44 8 l39
0 3 -47z m228 7 l0 -40 -105 0 -105 0 0 33 c0 19 3 37 7 40 3 4 51 7 105 7
l98 0 0 -40z m493 -103 l2 -137 -42 0 -43 0 0 50 c0 29 -5 50 -11 50 -5 0 -7
5 -4 10 3 6 2 10 -4 10 -5 0 -13 -4 -16 -10 -9 -15 -41 -12 -55 5 -7 8 -10 25
-6 40 5 19 13 25 34 25 15 0 34 -6 42 -12 8 -7 6 -3 -4 10 -11 12 -27 22 -36
22 -28 0 -53 -36 -48 -70 4 -25 1 -30 -15 -30 -15 0 -18 5 -13 23 16 57 15 79
-2 33 l-18 -49 -12 41 c-17 56 -29 60 -43 12 -7 -22 -15 -40 -19 -40 -3 0 -12
17 -18 38 -8 27 -10 29 -6 7 2 -16 7 -60 11 -97 l6 -68 -82 0 -81 0 0 63 c0
35 3 98 6 141 l7 76 234 -2 234 -3 2 -138z m-1521 -6 c24 -31 51 -65 61 -76
51 -56 54 -55 -138 -55 l-175 0 87 109 c100 125 88 123 165 22z m3956 -10 l52
-1 0 -65 0 -65 -35 0 c-19 0 -35 4 -35 9 0 4 -11 6 -25 3 -18 -3 -25 0 -25 12
0 11 9 16 30 16 28 0 30 2 20 20 -22 42 -78 13 -66 -35 5 -18 2 -25 -9 -25
-19 0 -21 66 -2 73 7 3 5 6 -5 6 -17 1 -20 -6 -22 -53 -1 -11 -7 -21 -13 -23
-7 -3 -10 8 -10 28 2 35 -20 56 -47 46 -10 -4 -16 -18 -16 -41 0 -27 -3 -34
-15 -30 -17 7 -21 64 -5 64 6 0 5 6 -2 14 -18 20 -22 12 -19 -39 1 -36 -1 -45
-15 -45 -11 0 -14 5 -10 16 8 21 -11 44 -35 44 -23 0 -34 19 -20 33 9 9 17 8
32 -1 25 -16 36 -10 14 8 -9 7 -25 10 -41 6 -19 -5 -25 -12 -22 -29 2 -12 12
-23 23 -25 26 -5 46 -22 39 -33 -9 -16 -53 -10 -64 9 -9 15 -10 14 -5 -6 l7
-23 -134 3 -133 3 -3 59 c-2 33 1 62 7 65 7 5 414 6 609 2z m-2528 -81 l0 -40
-105 0 -105 0 0 40 0 40 105 0 105 0 0 -40z m-2058 -107 l3 -48 117 -3 117 -3
3 48 3 48 53 3 52 3 0 -246 0 -246 123 3 122 3 -2 43 -3 42 80 0 80 0 0 -705
c0 -665 -1 -705 -17 -705 -44 0 -479 61 -1003 139 -107 16 -274 41 -370 55
-96 15 -195 30 -220 36 -25 5 -62 12 -82 15 l-38 6 0 773 c0 425 3 776 7 779
3 4 224 7 489 7 l483 0 3 -47z m228 7 l0 -40 -105 0 -105 0 0 40 0 40 105 0
105 0 0 -40z m483 33 l-43 -4 0 -145 0 -144 40 0 c40 0 40 0 40 -40 l0 -40
-187 3 -188 2 -3 188 -2 187 192 -2 c106 -1 174 -3 151 -5z m37 -148 l0 -125
-35 0 -35 0 0 125 0 125 35 0 35 0 0 -125z m5878 -772 l2 -632 -45 -5 c-89
-12 -140 -18 -165 -22 -42 -6 -387 -52 -550 -73 -85 -12 -170 -23 -187 -26
l-33 -6 0 491 0 490 40 0 40 0 0 145 0 145 -40 0 -40 0 0 65 0 65 488 -2 487
-3 3 -632z m-5788 87 l0 -50 120 0 120 0 0 50 0 50 245 0 245 0 0 -555 c0
-522 -1 -555 -17 -555 -20 0 -208 18 -263 25 -19 2 -143 16 -274 30 -132 14
-243 28 -248 31 -4 3 -8 234 -8 515 l0 509 40 0 40 0 0 -50z m228 13 l-3 -38
-102 -3 -103 -3 0 41 0 40 106 0 105 0 -3 -37z m1162 -13 l0 -51 118 3 117 3
3 48 3 47 90 0 89 0 0 -583 0 -584 -152 4 c-262 7 -835 38 -885 49 l-23 4 0
555 0 555 320 0 320 0 0 -50z m220 10 l0 -40 -105 0 -105 0 0 40 0 40 105 0
105 0 0 -40z m530 0 l0 -40 -155 0 -155 0 0 40 0 40 155 0 155 0 0 -40z m134
-225 l-7 -265 117 0 116 0 0 -175 0 -174 -127 -3 -128 -3 -3 -137 -3 -138 -39
0 -40 0 0 45 0 45 -165 0 -165 0 0 485 0 485 165 0 165 0 0 50 0 50 61 0 61 0
-8 -265z m446 161 l0 -104 -206 -7 c-113 -4 -207 -5 -210 -2 -3 3 -6 53 -7
111 l-2 106 213 0 212 0 0 -104z m180 54 l0 -51 118 3 117 3 3 48 3 47 245 0
244 0 0 -525 c0 -289 -2 -525 -4 -525 -8 0 -283 -30 -321 -35 -54 -7 -510 -45
-541 -45 l-24 0 0 565 0 565 80 0 80 0 0 -50z m220 10 l0 -41 -102 3 -103 3
-3 38 -3 37 105 0 106 0 0 -40z m1350 -10 l0 -50 120 0 120 0 0 50 0 50 40 0
40 0 0 -449 0 -449 -22 -5 c-13 -3 -93 -15 -178 -26 -85 -12 -202 -28 -260
-36 -58 -8 -184 -24 -280 -35 -96 -12 -186 -23 -200 -25 -14 -2 -52 -6 -85
-10 -33 -3 -72 -9 -87 -11 l-28 -6 0 526 0 526 410 0 410 0 0 -50z m220 10 l0
-40 -100 0 c-73 0 -100 3 -101 13 0 6 -2 24 -4 40 l-4 27 105 0 104 0 0 -40z
m-1970 -230 l0 -40 -105 0 -105 0 0 33 c0 19 3 37 7 40 3 4 51 7 105 7 l98 0
0 -40z m-220 -110 l0 -41 -102 3 -103 3 -1 30 c-1 17 0 33 3 38 2 4 49 7 104
7 l99 0 0 -40z m220 -90 l0 -40 -105 0 -105 0 0 40 0 40 105 0 105 0 0 -40z
m0 -180 l0 -40 -105 0 -105 0 0 33 c0 19 3 37 7 40 3 4 51 7 105 7 l98 0 0
-40z m0 -190 l0 -40 -105 0 -105 0 0 40 0 40 105 0 105 0 0 -40z m0 -174 c0
-93 -3 -115 -15 -120 -9 -3 -58 -9 -110 -12 l-95 -7 0 127 0 126 110 0 110 0
0 -114z m-582 -113 l-3 -38 -152 -3 -153 -3 0 41 0 40 156 0 155 0 -3 -37z"/>
<path d="M2668 6537 c-51 -35 -59 -52 -28 -62 21 -7 6 -39 -175 -384 -36 -69
-65 -129 -65 -136 0 -9 84 -146 208 -340 l32 -50 -22 -17 c-27 -20 -28 -17 42
-56 l55 -31 -3 57 c-4 74 -9 89 -24 74 -7 -7 -17 -12 -24 -12 -12 0 -244 359
-244 377 0 8 124 250 213 415 37 69 45 78 65 73 19 -5 22 -1 22 22 0 16 3 45
6 66 4 20 3 37 -2 36 -5 0 -30 -15 -56 -32z"/>
<path d="M5633 1185 c-46 -32 -24 -87 42 -105 32 -9 45 -18 45 -31 0 -33 -61
-36 -74 -3 -3 8 -12 14 -20 14 -27 0 -28 -19 -2 -45 49 -49 136 -26 136 38 0
33 -21 54 -70 67 -47 13 -55 40 -12 40 15 0 33 -5 39 -11 6 -6 19 -9 28 -7 16
3 16 5 -1 26 -25 30 -82 39 -111 17z"/>
<path d="M6632 1184 c-85 -59 -52 -194 47 -194 22 0 52 5 66 12 21 9 25 18 25
55 l0 43 -45 0 c-33 0 -45 -4 -45 -15 0 -9 9 -15 25 -15 16 0 25 -6 25 -15 0
-24 -45 -40 -74 -27 -33 15 -45 72 -22 107 19 29 60 33 86 10 20 -18 51 -10
43 11 -7 19 -56 44 -85 44 -13 0 -34 -7 -46 -16z"/>
<path d="M4752 1093 c2 -79 6 -98 18 -98 11 0 16 17 20 70 l5 70 14 -68 c13
-66 31 -91 51 -71 5 5 11 18 13 29 2 11 8 40 13 65 l9 45 5 -70 c4 -53 9 -70
20 -70 11 0 15 20 17 98 l2 97 -33 0 c-33 0 -34 -1 -41 -48 -9 -65 -22 -85
-30 -46 -19 83 -25 94 -56 94 l-30 0 3 -97z"/>
<path d="M7500 1162 c0 -26 -2 -28 -34 -24 -28 3 -37 -1 -51 -21 -38 -59 12
-145 70 -119 15 7 25 8 25 2 0 -6 7 -10 15 -10 12 0 15 18 15 100 0 93 -1 100
-20 100 -15 0 -20 -7 -20 -28z"/>
<path d="M6126 1124 c-39 -39 -28 -106 20 -125 74 -27 136 62 84 119 -25 26
-81 30 -104 6z"/>
<path d="M6288 1130 c-10 -6 -20 -26 -24 -45 -12 -67 46 -111 105 -80 64 33
43 127 -30 132 -19 2 -42 -2 -51 -7z"/>
<path d="M6928 1130 c-10 -6 -20 -26 -24 -45 -12 -67 46 -111 105 -80 64 33
43 127 -30 132 -19 2 -42 -2 -51 -7z"/>
<path d="M7916 1124 c-39 -39 -28 -106 20 -125 74 -28 139 68 82 121 -26 24
-80 27 -102 4z"/>
<path d="M8081 1114 c-35 -44 -23 -96 26 -115 72 -27 135 63 83 119 -30 32
-82 30 -109 -4z"/>
<path d="M11546 584 c-16 -15 -22 -78 -10 -108 9 -24 66 -21 82 4 7 12 10 26
6 32 -5 8 -1 9 10 5 10 -4 29 -7 43 -7 21 0 24 -2 13 -15 -7 -8 -23 -15 -36
-15 -13 0 -24 -4 -24 -10 0 -17 62 -11 76 8 17 21 18 94 2 110 -17 17 -45 15
-67 -7 -18 -18 -18 -18 -30 0 -14 23 -44 24 -65 3z"/>
</g>
</svg>
