<?xml version="1.0" standalone="no"?>
<!DOCTYPE svg PUBLIC "-//W3C//DTD SVG 20010904//EN"
 "http://www.w3.org/TR/2001/REC-SVG-20010904/DTD/svg10.dtd">
<svg version="1.0" xmlns="http://www.w3.org/2000/svg"
 width="1280.000000pt" height="905.000000pt" viewBox="0 0 1280.000000 905.000000"
 preserveAspectRatio="xMidYMid meet">
<metadata>
Created by potrace 1.16, written by Peter Selinger 2001-2019
</metadata>
<g transform="translate(0.000000,905.000000) scale(0.100000,-0.100000)"
fill="#000000" stroke="none">
<path d="M2380 8420 c0 -19 7 -20 190 -20 183 0 190 1 190 20 0 19 -7 20 -190
20 -183 0 -190 -1 -190 -20z"/>
<path d="M6930 7403 c0 -189 0 -193 20 -193 20 0 21 4 19 193 -1 179 -3 193
-20 193 -16 0 -18 -14 -19 -193z"/>
<path d="M7110 7404 c0 -187 1 -194 20 -194 19 0 20 7 20 189 0 180 -1 189
-20 194 -19 5 -20 0 -20 -189z"/>
<path d="M7170 7404 c0 -187 1 -194 20 -194 19 0 20 7 20 189 0 180 -1 189
-20 194 -19 5 -20 0 -20 -189z"/>
<path d="M7230 7404 c0 -187 1 -194 20 -194 19 0 20 7 20 189 0 180 -1 189
-20 194 -19 5 -20 0 -20 -189z"/>
<path d="M7290 7403 c0 -186 1 -193 20 -193 19 0 20 7 20 193 0 186 -1 193
-20 193 -19 0 -20 -7 -20 -193z"/>
<path d="M7410 7404 c0 -187 1 -194 20 -194 19 0 20 7 20 189 0 180 -1 189
-20 194 -19 5 -20 0 -20 -189z"/>
<path d="M7470 7403 c0 -186 1 -193 20 -193 19 0 20 7 20 193 0 186 -1 193
-20 193 -19 0 -20 -7 -20 -193z"/>
<path d="M8400 7403 c0 -186 1 -193 20 -193 19 0 20 7 20 193 0 186 -1 193
-20 193 -19 0 -20 -7 -20 -193z"/>
<path d="M8520 7404 c0 -187 1 -194 20 -194 19 0 20 7 20 189 0 180 -1 189
-20 194 -19 5 -20 0 -20 -189z"/>
<path d="M8580 7403 c0 -186 1 -193 20 -193 19 0 20 7 20 193 0 186 -1 193
-20 193 -19 0 -20 -7 -20 -193z"/>
<path d="M8640 7403 c0 -186 1 -193 20 -193 19 0 20 7 20 193 0 186 -1 193
-20 193 -19 0 -20 -7 -20 -193z"/>
<path d="M8765 7592 c-3 -3 -5 -90 -5 -194 0 -181 1 -188 20 -188 19 0 20 7
20 193 0 166 -2 194 -15 194 -8 0 -17 -3 -20 -5z"/>
<path d="M8838 7593 c-16 -4 -18 -22 -18 -194 0 -182 1 -189 20 -189 19 0 20
7 20 195 0 107 -1 194 -2 194 -2 -1 -11 -3 -20 -6z"/>
<path d="M8880 7404 c0 -188 1 -194 20 -194 20 0 20 5 18 192 -3 173 -5 191
-20 194 -17 2 -18 -13 -18 -192z"/>
<path d="M8958 7593 c-16 -4 -18 -22 -18 -194 0 -182 1 -189 20 -189 19 0 20
7 20 195 0 107 -1 194 -2 194 -2 -1 -11 -3 -20 -6z"/>
<path d="M9000 7403 c0 -186 1 -193 20 -193 19 0 20 7 20 193 0 186 -1 193
-20 193 -19 0 -20 -7 -20 -193z"/>
<path d="M9083 7593 c-23 -4 -23 -5 -23 -194 l0 -189 23 0 22 0 0 195 c0 107
0 194 0 194 0 -1 -10 -4 -22 -6z"/>
<path d="M6800 7400 l0 -190 23 0 22 0 0 190 0 190 -22 0 -23 0 0 -190z"/>
<path d="M6870 7400 c0 -183 1 -190 20 -190 19 0 20 7 20 190 0 183 -1 190
-20 190 -19 0 -20 -7 -20 -190z"/>
<path d="M7050 7400 c0 -184 1 -190 20 -190 20 0 20 6 20 190 -1 181 -2 190
-21 190 -18 0 -19 -9 -19 -190z"/>
<path d="M7350 7400 c0 -183 1 -190 20 -190 19 0 20 7 20 190 0 183 -1 190
-20 190 -19 0 -20 -7 -20 -190z"/>
<path d="M7530 7400 c0 -183 1 -190 20 -190 19 0 20 7 20 190 0 183 -1 190
-20 190 -19 0 -20 -7 -20 -190z"/>
<path d="M8340 7400 c0 -183 1 -190 20 -190 19 0 20 7 20 190 0 183 -1 190
-20 190 -19 0 -20 -7 -20 -190z"/>
<path d="M8460 7400 c0 -183 1 -190 20 -190 19 0 20 7 20 190 0 183 -1 190
-20 190 -19 0 -20 -7 -20 -190z"/>
<path d="M8700 7400 c0 -183 1 -190 20 -190 19 0 20 7 20 190 0 183 -1 190
-20 190 -19 0 -20 -7 -20 -190z"/>
<path d="M8250 3754 c0 -30 -3 -35 -12 -26 -32 32 -68 -2 -68 -63 0 -34 5 -47
20 -55 11 -6 25 -8 32 -4 6 4 24 7 40 6 l29 -1 -3 87 c-3 73 -6 87 -20 90 -15
3 -18 -4 -18 -34z"/>
<path d="M6247 3774 c-4 -4 -7 -43 -7 -86 0 -71 2 -78 20 -78 18 0 20 7 20 58
l1 57 30 -57 c24 -47 34 -58 54 -58 25 0 25 1 25 85 0 69 -3 85 -15 85 -12 0
-15 -14 -15 -62 l-1 -63 -32 60 c-30 57 -60 79 -80 59z"/>
<path d="M7747 3773 c-4 -3 -7 -42 -7 -85 l0 -78 48 0 c26 0 53 5 60 12 14 14
16 68 2 68 -5 0 -7 13 -4 30 4 18 1 36 -6 45 -12 15 -81 21 -93 8z"/>
<path d="M8548 3730 c-12 -8 -17 -22 -16 -48 0 -20 -2 -52 -7 -71 -5 -24 -3
-36 6 -42 22 -14 73 -10 95 5 26 20 9 48 -35 57 -41 9 -52 19 -18 19 29 0 61
26 51 42 -4 6 0 14 7 19 7 4 11 10 9 13 -12 11 -77 15 -92 6z"/>
</g>
</svg>
