<?xml version="1.0" standalone="no"?>
<!DOCTYPE svg PUBLIC "-//W3C//DTD SVG 20010904//EN"
 "http://www.w3.org/TR/2001/REC-SVG-20010904/DTD/svg10.dtd">
<svg version="1.0" xmlns="http://www.w3.org/2000/svg"
 width="1280.000000pt" height="905.000000pt" viewBox="0 0 1280.000000 905.000000"
 preserveAspectRatio="xMidYMid meet">
<metadata>
Created by potrace 1.16, written by Peter Selinger 2001-2019
</metadata>
<g transform="translate(0.000000,905.000000) scale(0.100000,-0.100000)"
fill="#000000" stroke="none">
<path d="M2020 8020 c0 -19 7 -20 194 -20 189 0 195 1 193 20 -1 19 -8 20
-194 20 -186 0 -193 -1 -193 -20z"/>
<path d="M2020 7900 c0 -20 4 -20 193 -18 163 3 192 5 192 18 0 13 -29 15
-192 18 -189 2 -193 2 -193 -18z"/>
<path d="M2020 7840 c0 -20 5 -20 192 -18 173 3 191 5 194 21 2 16 -13 17
-192 17 -188 0 -194 -1 -194 -20z"/>
<path d="M2020 7780 c0 -19 6 -20 194 -20 179 0 194 1 192 18 -3 15 -21 17
-194 20 -187 2 -192 2 -192 -18z"/>
<path d="M2020 7720 c0 -19 7 -20 188 -20 104 0 191 3 195 6 3 3 3 12 0 20 -4
11 -41 14 -194 14 -182 0 -189 -1 -189 -20z"/>
<path d="M2020 7660 c0 -19 7 -20 189 -20 153 0 190 3 194 14 3 8 3 17 0 20
-4 3 -91 6 -195 6 -181 0 -188 -1 -188 -20z"/>
<path d="M2020 7600 c0 -20 5 -20 192 -18 173 3 191 5 194 21 2 16 -13 17
-192 17 -188 0 -194 -1 -194 -20z"/>
<path d="M2020 7540 c0 -19 6 -20 194 -20 179 0 194 1 192 18 -3 15 -21 17
-194 20 -187 2 -192 2 -192 -18z"/>
<path d="M2020 7480 c0 -20 4 -20 193 -18 163 3 192 5 192 18 0 13 -29 15
-192 18 -189 2 -193 2 -193 -18z"/>
<path d="M1560 7459 c-14 -17 -24 -37 -24 -45 1 -7 -2 -11 -7 -8 -15 9 -49
-16 -49 -36 0 -12 -8 -20 -22 -22 -33 -4 -39 -63 -8 -73 25 -8 50 10 50 37 0
14 5 18 15 14 20 -7 48 23 42 46 -4 15 -3 17 8 8 22 -18 30 8 9 31 -19 22 -13
25 16 7 22 -14 39 -3 22 14 -7 7 -12 19 -12 27 0 11 4 10 20 -4 26 -24 39 -11
15 15 -25 28 -46 24 -75 -11z"/>
<path d="M2020 7420 c0 -19 7 -20 190 -20 105 0 190 2 190 4 0 2 3 11 6 20 5
14 -15 16 -190 16 -189 0 -196 -1 -196 -20z"/>
<path d="M2020 7360 c0 -20 5 -20 192 -18 173 3 191 5 194 21 2 16 -13 17
-192 17 -188 0 -194 -1 -194 -20z"/>
<path d="M2020 7239 c0 -18 9 -19 189 -19 153 0 190 3 194 14 3 8 3 17 -1 20
-3 4 -91 6 -194 6 -178 -2 -188 -3 -188 -21z"/>
<path d="M8730 6965 c0 -186 1 -195 19 -195 18 0 20 10 21 195 1 190 0 195
-20 195 -19 0 -20 -6 -20 -195z"/>
<path d="M8790 6965 c0 -188 1 -195 20 -195 19 0 20 7 20 195 0 188 -1 195
-20 195 -19 0 -20 -7 -20 -195z"/>
<path d="M8850 6965 c0 -188 1 -195 20 -195 19 0 20 7 20 195 0 188 -1 195
-20 195 -19 0 -20 -7 -20 -195z"/>
<path d="M8910 6965 c0 -188 1 -195 20 -195 19 0 20 7 20 195 0 188 -1 195
-20 195 -19 0 -20 -7 -20 -195z"/>
<path d="M8970 6965 c0 -188 1 -195 20 -195 19 0 20 7 20 195 0 188 -1 195
-20 195 -19 0 -20 -7 -20 -195z"/>
<path d="M9030 6965 c0 -188 1 -195 20 -195 19 0 20 7 20 195 0 188 -1 195
-20 195 -19 0 -20 -7 -20 -195z"/>
<path d="M9090 6965 c0 -188 1 -195 20 -195 19 0 20 7 20 195 0 188 -1 195
-20 195 -19 0 -20 -7 -20 -195z"/>
<path d="M9160 6965 c0 -188 1 -195 20 -195 19 0 20 7 20 195 0 188 -1 195
-20 195 -19 0 -20 -7 -20 -195z"/>
<path d="M9220 6965 c0 -188 1 -195 20 -195 19 0 20 7 20 195 0 188 -1 195
-20 195 -19 0 -20 -7 -20 -195z"/>
<path d="M9280 6965 c0 -188 1 -195 20 -195 19 0 20 7 20 195 0 188 -1 195
-20 195 -19 0 -20 -7 -20 -195z"/>
<path d="M9340 6965 c0 -188 1 -195 20 -195 19 0 20 7 20 195 0 188 -1 195
-20 195 -19 0 -20 -7 -20 -195z"/>
<path d="M9400 6965 c0 -188 1 -195 20 -195 19 0 20 7 20 195 0 188 -1 195
-20 195 -19 0 -20 -7 -20 -195z"/>
<path d="M9460 6965 c0 -188 1 -195 20 -195 19 0 20 7 20 195 0 188 -1 195
-20 195 -19 0 -20 -7 -20 -195z"/>
<path d="M9520 6965 c0 -188 1 -195 20 -195 19 0 20 7 20 195 0 188 -1 195
-20 195 -19 0 -20 -7 -20 -195z"/>
<path d="M1070 6969 c-14 -17 -24 -37 -24 -45 1 -8 -3 -13 -10 -11 -6 2 -19 0
-30 -5 -15 -8 -17 -17 -12 -49 7 -46 -14 -63 -42 -35 -16 16 -16 18 2 32 23
17 12 33 -12 18 -25 -16 -26 -57 -3 -78 25 -22 67 -15 76 14 3 10 15 22 25 25
22 7 35 39 24 57 -6 10 -4 10 8 0 24 -19 34 5 12 29 -9 10 -12 19 -7 19 6 0
16 -7 23 -15 9 -11 16 -13 23 -6 7 7 5 17 -8 31 -20 23 -14 26 15 8 27 -17 37
-2 15 22 -25 28 -46 24 -75 -11z"/>
<path d="M11433 6323 c-140 -3 -143 -4 -143 -26 0 -22 1 -22 140 -19 93 2 140
0 140 -7 0 -7 -49 -11 -140 -11 -139 0 -140 0 -140 -22 0 -23 1 -23 145 -23
l145 0 0 58 c0 31 -1 56 -2 55 -2 -1 -67 -4 -145 -5z"/>
<path d="M11650 6208 l0 -53 145 0 145 0 0 53 0 52 -145 0 -145 0 0 -52z"/>
<path d="M9885 5961 c-9 -8 -5 -50 5 -56 6 -4 10 5 10 19 0 23 4 26 33 25 29
0 30 -1 10 -9 -13 -5 -23 -16 -23 -24 0 -35 -141 -116 -200 -116 -17 0 -20 7
-20 55 l0 55 -742 -2 -743 -3 -3 -52 -3 -53 -397 0 c-218 0 -407 0 -419 0 -19
0 -22 -6 -25 -52 -2 -41 -6 -52 -18 -49 -8 2 -34 4 -57 5 -24 0 -38 3 -32 5 6
2 -12 16 -39 32 -28 16 -57 38 -66 51 -13 18 -16 19 -22 5 -9 -24 -91 -73
-153 -91 -30 -9 -56 -16 -58 -16 -2 0 -3 26 -3 58 l0 57 -813 -2 c-446 -2
-819 -3 -827 -3 -12 0 -15 -9 -12 -40 7 -66 1 -71 -58 -55 -28 7 -66 23 -86
34 -27 16 -40 19 -54 11 -10 -6 -21 -6 -24 -1 -8 13 4 20 22 14 13 -5 12 -1
-4 20 -21 29 -34 34 -34 15 -1 -28 -118 -89 -190 -99 -24 -4 -25 -1 -28 49
l-3 52 -187 0 c-103 0 -646 1 -1207 1 l-1020 0 -3 -52 -3 -52 -45 7 c-53 7
-130 45 -163 80 l-25 26 -30 -29 c-34 -32 -95 -64 -141 -75 -16 -4 -38 -9 -47
-12 -16 -5 -18 2 -18 50 0 38 -4 56 -12 57 -7 0 -44 1 -83 2 l-70 2 -3 31 c-3
29 -6 31 -43 30 -21 0 -39 -4 -39 -9 0 -5 -7 -4 -15 3 -23 19 -45 4 -45 -30 0
-16 -5 -30 -11 -30 -7 0 -9 9 -5 24 4 15 0 28 -9 36 -22 18 -48 -6 -40 -37 3
-13 1 -23 -4 -23 -11 0 -24 47 -16 60 7 11 -32 33 -45 25 -6 -3 -10 -24 -10
-45 l0 -40 -228 0 c-125 1 -233 1 -239 0 -10 0 -13 -98 -13 -455 l0 -455 548
-1 c301 0 568 0 595 1 l47 1 0 -1063 c0 -585 0 -1080 0 -1100 l0 -38 55 0 c52
0 55 -1 55 -26 0 -36 -44 -125 -79 -158 l-30 -29 40 -46 c21 -26 39 -52 39
-59 0 -6 5 -14 12 -18 8 -5 9 -2 4 12 -4 10 -4 15 0 11 4 -4 9 -34 11 -67 l3
-60 -55 0 -54 0 -3 -52 c-2 -29 -1 -363 2 -743 l5 -690 215 0 215 0 3 2308 2
2307 4680 0 4680 0 0 213 0 214 -30 -5 c-25 -4 -30 -9 -30 -33 0 -38 -31 -39
-65 -3 l-23 25 -43 -46 c-37 -40 -93 -75 -120 -75 -5 0 -9 30 -9 68 l0 67
-700 -3 -700 -2 0 55 0 55 -52 1 c-55 0 -117 17 -70 18 26 1 28 13 6 31 -12
11 -18 10 -31 -3 -19 -19 -10 -47 17 -54 17 -4 20 -14 20 -55 l0 -51 -41 7
c-47 7 -111 38 -152 72 -27 22 -27 24 -7 24 18 0 21 5 18 32 -3 31 -6 33 -41
33 -21 1 -40 -1 -42 -4z m-5525 -435 l0 -64 -40 0 c-30 -1 -40 4 -45 19 -5 14
-15 19 -38 18 l-32 -1 30 -7 c17 -3 30 -11 30 -16 0 -14 -71 -24 -73 -11 -1 6
-4 23 -7 37 -12 47 60 86 72 39 6 -21 6 -21 20 0 10 14 22 20 34 17 14 -4 19
0 19 14 0 10 7 19 15 19 12 0 15 -14 15 -64z m-2440 -181 l0 -65 -39 0 c-32 0
-41 4 -48 23 -7 19 -13 22 -38 16 l-30 -7 28 -1 c17 -1 27 -7 27 -17 0 -21
-59 -15 -73 7 -14 22 -1 66 22 74 25 8 51 -4 51 -23 0 -12 4 -11 16 7 11 15
23 21 36 18 13 -4 18 -1 14 8 -6 15 2 25 21 25 9 0 13 -17 13 -65z m525 -1475
c-11 -12 -14 -20 -7 -21 17 -2 23 -4 56 -18 16 -6 35 -10 43 -7 7 3 12 2 12
-2 -4 -22 2 -52 9 -48 4 2 13 1 20 -3 9 -5 7 -13 -9 -27 -13 -10 -19 -14 -15
-7 11 19 -31 55 -52 44 -9 -5 -28 -14 -42 -19 -24 -10 -23 -11 12 -11 20 -1
40 4 43 9 8 13 25 3 25 -13 0 -7 -4 -6 -10 3 -8 12 -10 10 -10 -10 0 -15 6
-32 13 -39 7 -9 7 -11 1 -8 -7 4 -14 0 -18 -8 -9 -25 -43 -18 -55 13 l-11 27
5 -27 c4 -19 1 -28 -7 -29 -7 -1 5 -7 27 -13 50 -16 59 -46 18 -64 l-28 -12
26 4 c22 2 26 -1 25 -22 -1 -19 -9 -28 -36 -38 -40 -14 -90 -18 -90 -6 0 16
24 32 50 33 21 0 20 2 -13 14 -39 15 -81 10 -56 -6 8 -4 10 -11 7 -15 -4 -3
-13 0 -21 8 -12 11 -8 17 25 38 35 22 51 50 28 50 -5 0 -10 7 -10 15 0 8 6 15
13 15 10 0 13 15 11 54 -1 30 -5 60 -10 67 -4 8 -3 10 5 5 6 -4 21 -4 34 0
l22 8 -25 6 c-30 7 -37 48 -12 68 24 18 27 15 7 -8z m18 -520 c11 0 17 -9 18
-27 l2 -28 4 28 c6 36 33 36 33 -1 0 -34 -16 -52 -48 -52 -13 0 -20 -4 -17
-10 3 -5 19 -10 36 -10 20 0 29 -5 30 -17 3 -36 -3 -88 -12 -99 -5 -6 -6 -13
-3 -17 3 -3 -11 -2 -31 3 -20 5 -43 17 -50 27 -8 10 -15 13 -15 6 0 -16 37
-39 78 -48 45 -9 44 -41 -3 -61 -46 -19 -62 -18 -68 6 -3 11 -1 18 3 15 4 -3
18 -1 31 3 23 9 23 9 -4 16 -17 4 -27 13 -27 25 0 10 -6 24 -14 30 -11 9 -9
17 14 41 38 40 60 39 62 -2 l1 -33 4 33 c3 24 8 32 19 28 8 -3 14 -1 14 4 0 5
-21 10 -47 12 l-48 3 0 65 c-1 36 -5 72 -10 80 -6 11 -3 10 12 -2 11 -10 27
-18 36 -18z m52 -421 c0 -68 -2 -74 -26 -88 -22 -12 -29 -12 -54 0 -37 18 -53
68 -27 87 15 12 18 9 22 -20 4 -27 9 -33 30 -33 20 0 25 5 25 25 0 18 -6 26
-23 28 -26 4 -48 42 -39 67 10 24 49 35 72 20 17 -11 20 -23 20 -86z"/>
<path d="M5040 1187 l0 -433 1013 2 c556 1 1022 2 1035 3 l22 1 0 430 0 430
-1035 0 -1035 0 0 -433z m657 165 c18 1 39 -4 46 -10 8 -7 18 -8 23 -4 4 4 2
-2 -6 -12 -14 -18 -14 -19 7 -8 17 10 22 9 28 -6 6 -16 7 -16 17 1 5 10 7 24
4 32 -7 19 17 25 39 9 10 -8 13 -14 7 -14 -7 0 -12 -5 -12 -11 0 -6 6 -9 14
-6 16 6 16 -21 -1 -31 -15 -10 -12 -44 4 -38 17 7 17 -21 1 -27 -10 -4 -9 -8
2 -16 10 -7 11 -11 3 -11 -24 0 -53 35 -54 65 l-2 30 -6 -33 c-3 -18 -9 -33
-13 -32 -5 0 -12 0 -16 0 -5 0 -7 14 -4 30 2 17 0 30 -5 30 -5 0 -10 -12 -11
-27 -3 -34 -12 -39 -73 -42 -38 -1 -49 2 -49 14 0 8 -6 15 -12 15 -9 0 -9 3
-3 8 6 4 11 23 12 42 1 42 13 76 22 61 4 -5 21 -9 38 -9z m448 -41 c5 13 13
15 33 10 35 -10 41 -31 7 -31 -20 0 -26 -4 -23 -17 2 -10 10 -19 18 -19 8 -1
19 -2 24 -3 5 0 2 -9 -7 -19 -10 -10 -14 -22 -10 -25 3 -4 -1 -7 -11 -7 -9 0
-15 4 -11 9 3 6 -3 15 -14 21 -13 7 -22 7 -26 0 -11 -18 -25 0 -25 31 0 16 -4
29 -10 29 -18 0 -10 -52 11 -69 l21 -16 -22 -20 c-20 -18 -21 -18 -43 3 -12
12 -16 22 -10 22 6 0 19 -7 27 -16 9 -8 16 -11 16 -5 0 19 -5 25 -18 28 -18 2
-20 4 -22 33 -5 60 -1 70 28 71 25 1 23 2 -17 15 -11 3 -11 7 -1 19 11 13 17
10 45 -22 27 -31 34 -35 40 -22z m10 -141 c3 -5 -1 -10 -9 -10 -9 0 -16 -5
-16 -11 0 -5 10 -9 23 -7 16 2 23 -3 25 -19 2 -13 10 -23 17 -23 9 0 12 7 9
18 -3 9 2 6 10 -8 21 -34 22 -112 1 -104 -9 4 -15 19 -15 35 0 40 -18 37 -22
-3 -3 -36 -38 -55 -38 -21 -1 16 -2 16 -10 1 -8 -12 -17 -14 -38 -9 -22 6 -28
14 -30 44 -3 32 0 37 23 43 15 4 31 2 37 -4 12 -12 1 -35 -12 -27 -13 8 -24
-15 -12 -27 7 -7 16 -7 29 1 10 6 14 11 9 11 -5 0 -4 6 1 13 12 14 13 48 3 42
-4 -3 -15 4 -24 13 -14 17 -14 20 2 40 19 24 28 27 37 12z m-740 -70 c4 -16
10 -30 14 -30 3 0 12 14 18 30 8 20 18 30 32 30 22 0 25 -7 22 -77 -1 -24 2
-43 7 -43 5 0 8 10 8 23 -1 16 5 23 22 25 12 2 22 8 22 13 0 6 -9 7 -21 4 -16
-5 -20 -3 -17 6 3 8 19 14 39 14 l34 0 -3 -46 c-2 -35 2 -49 17 -63 19 -17 19
-20 4 -42 l-15 -24 -19 24 c-20 26 -25 41 -10 32 5 -3 11 0 14 8 10 24 -21 26
-39 3 -10 -13 -14 -15 -11 -5 4 12 -3 18 -29 22 -30 6 -34 11 -35 39 l-1 32
-10 -32 c-6 -18 -19 -35 -29 -38 -12 -4 -16 -12 -12 -23 5 -15 4 -15 -13 1
-13 12 -16 20 -7 25 7 4 9 19 5 37 l-6 30 -6 -33 c-9 -55 -25 -41 -28 26 -3
60 -2 62 22 62 19 0 26 -7 31 -30z"/>
</g>
</svg>
