<?xml version="1.0" standalone="no"?>
<!DOCTYPE svg PUBLIC "-//W3C//DTD SVG 20010904//EN"
 "http://www.w3.org/TR/2001/REC-SVG-20010904/DTD/svg10.dtd">
<svg version="1.0" xmlns="http://www.w3.org/2000/svg"
 width="1280.000000pt" height="905.000000pt" viewBox="0 0 1280.000000 905.000000"
 preserveAspectRatio="xMidYMid meet">
<metadata>
Created by potrace 1.16, written by Peter Selinger 2001-2019
</metadata>
<g transform="translate(0.000000,905.000000) scale(0.100000,-0.100000)"
fill="#000000" stroke="none">
<path d="M2290 8330 c0 -19 7 -20 190 -20 183 0 190 1 190 20 0 19 -7 20 -190
20 -183 0 -190 -1 -190 -20z"/>
<path d="M2290 8270 c0 -19 7 -20 190 -20 183 0 190 1 190 20 0 19 -7 20 -190
20 -183 0 -190 -1 -190 -20z"/>
<path d="M2290 8210 c0 -19 7 -20 190 -20 183 0 190 1 190 20 0 19 -7 20 -190
20 -183 0 -190 -1 -190 -20z"/>
<path d="M2290 8150 c0 -19 7 -20 190 -20 183 0 190 1 190 20 0 19 -7 20 -190
20 -183 0 -190 -1 -190 -20z"/>
<path d="M2290 8090 c0 -19 7 -20 190 -20 183 0 190 1 190 20 0 19 -7 20 -190
20 -183 0 -190 -1 -190 -20z"/>
<path d="M2290 8030 c0 -19 7 -20 190 -20 183 0 190 1 190 20 0 19 -7 20 -190
20 -183 0 -190 -1 -190 -20z"/>
<path d="M2290 7970 c0 -19 7 -20 190 -20 183 0 190 1 190 20 0 19 -7 20 -190
20 -183 0 -190 -1 -190 -20z"/>
<path d="M2290 7910 c0 -19 7 -20 190 -20 183 0 190 1 190 20 0 19 -7 20 -190
20 -183 0 -190 -1 -190 -20z"/>
<path d="M2290 7850 c0 -19 7 -20 190 -20 183 0 190 1 190 20 0 19 -7 20 -190
20 -183 0 -190 -1 -190 -20z"/>
<path d="M6660 7320 c0 -183 1 -190 20 -190 19 0 20 7 20 190 0 183 -1 190
-20 190 -19 0 -20 -7 -20 -190z"/>
<path d="M6720 7320 c0 -183 1 -190 20 -190 19 0 20 7 20 190 0 183 -1 190
-20 190 -19 0 -20 -7 -20 -190z"/>
<path d="M6780 7320 c0 -183 1 -190 20 -190 19 0 20 7 20 190 0 183 -1 190
-20 190 -19 0 -20 -7 -20 -190z"/>
<path d="M6840 7320 c0 -183 1 -190 20 -190 19 0 20 7 20 190 0 183 -1 190
-20 190 -19 0 -20 -7 -20 -190z"/>
<path d="M6900 7320 c0 -183 1 -190 20 -190 19 0 20 7 20 190 0 183 -1 190
-20 190 -19 0 -20 -7 -20 -190z"/>
<path d="M6960 7320 c0 -183 1 -190 20 -190 19 0 20 7 20 190 0 183 -1 190
-20 190 -19 0 -20 -7 -20 -190z"/>
<path d="M7020 7320 c0 -183 1 -190 20 -190 19 0 20 7 20 190 0 183 -1 190
-20 190 -19 0 -20 -7 -20 -190z"/>
<path d="M7080 7320 c0 -183 1 -190 20 -190 19 0 20 7 20 190 0 183 -1 190
-20 190 -19 0 -20 -7 -20 -190z"/>
<path d="M7140 7320 c0 -183 1 -190 20 -190 19 0 20 7 20 190 0 183 -1 190
-20 190 -19 0 -20 -7 -20 -190z"/>
<path d="M7200 7320 c0 -183 1 -190 20 -190 19 0 20 7 20 190 0 183 -1 190
-20 190 -19 0 -20 -7 -20 -190z"/>
<path d="M7260 7320 c0 -183 1 -190 20 -190 19 0 20 7 20 190 0 183 -1 190
-20 190 -19 0 -20 -7 -20 -190z"/>
<path d="M7320 7320 c0 -183 1 -190 20 -190 19 0 20 7 20 190 0 183 -1 190
-20 190 -19 0 -20 -7 -20 -190z"/>
<path d="M7380 7320 c-1 -185 0 -190 20 -190 19 0 20 6 20 190 0 181 -1 190
-19 190 -18 0 -19 -10 -21 -190z"/>
<path d="M7440 7320 c0 -183 1 -190 20 -190 19 0 20 7 20 190 0 183 -1 190
-20 190 -19 0 -20 -7 -20 -190z"/>
<path d="M8250 7321 c0 -180 1 -189 20 -194 19 -5 20 0 20 189 0 187 -1 194
-20 194 -19 0 -20 -7 -20 -189z"/>
<path d="M8370 7320 c0 -183 1 -190 20 -190 19 0 20 7 20 190 0 183 -1 190
-20 190 -19 0 -20 -7 -20 -190z"/>
<path d="M8430 7320 l-1 -190 25 0 25 0 -1 190 0 190 -23 0 -23 0 -2 -190z"/>
<path d="M8678 7320 c3 -182 4 -190 23 -190 19 0 20 6 19 190 -2 188 -2 190
-23 190 -22 0 -22 -1 -19 -190z"/>
<path d="M8738 7320 c3 -182 4 -190 23 -190 19 0 19 7 19 190 -1 188 -2 190
-23 190 -22 0 -22 0 -19 -190z"/>
<path d="M8798 7320 c3 -181 4 -190 22 -190 19 0 20 8 20 190 l0 190 -22 0
-23 0 3 -190z"/>
<path d="M8918 7320 c3 -181 4 -190 22 -190 19 0 20 8 20 190 l0 190 -22 0
-23 0 3 -190z"/>
<path d="M9038 7320 c3 -181 4 -190 22 -190 19 0 20 8 20 190 l0 190 -22 0
-23 0 3 -190z"/>
<path d="M11301 6478 l-1 -28 150 0 c139 0 177 -7 133 -25 -17 -7 -195 -7
-238 -1 -11 2 -14 1 -7 -1 6 -3 12 -8 12 -13 0 -5 -7 -7 -15 -4 -8 4 -15 1
-15 -5 0 -7 44 -11 140 -11 81 0 140 -4 140 -9 0 -12 -245 -19 -277 -9 -20 6
-23 4 -23 -16 l0 -24 155 -1 155 -2 0 86 0 86 -147 -2 c-90 0 -141 -4 -132
-10 11 -7 11 -9 -3 -9 -9 0 -19 6 -21 13 -3 6 -6 0 -6 -15z"/>
<path d="M11300 6295 l0 -25 150 0 c93 0 150 -4 150 -10 0 -6 -47 -10 -120
-10 -78 0 -120 -4 -120 -11 0 -7 36 -9 105 -8 57 2 108 0 111 -4 4 -4 -54 -7
-129 -7 -75 0 -137 4 -137 9 0 5 9 7 20 4 12 -3 20 0 20 6 0 7 -5 9 -10 6 -6
-4 -17 -1 -25 5 -13 10 -15 8 -15 -14 l0 -26 155 0 155 0 0 53 0 52 -132 -5
c-73 -3 -143 -2 -155 2 -20 6 -23 4 -23 -17z"/>
<path d="M8165 3670 c3 -27 2 -29 -24 -24 -38 8 -61 -17 -61 -66 0 -29 6 -43
22 -54 12 -8 26 -12 31 -9 5 3 23 6 38 5 l29 -1 0 90 c0 82 -2 89 -20 89 -15
0 -18 -6 -15 -30z"/>
<path d="M6160 3605 c0 -69 3 -85 15 -85 12 0 15 14 15 63 l1 62 32 -60 c22
-42 39 -61 55 -63 21 -3 22 -1 22 82 0 69 -3 86 -15 86 -10 0 -15 -15 -17 -57
l-3 -58 -30 57 c-23 45 -35 58 -52 58 -22 0 -23 -4 -23 -85z"/>
<path d="M7657 3683 c-4 -3 -7 -42 -7 -85 l0 -78 48 0 c68 0 107 47 67 80 -8
7 -12 17 -8 24 15 23 12 46 -6 56 -22 11 -84 14 -94 3z"/>
<path d="M8458 3640 c-12 -8 -17 -23 -16 -54 0 -23 -3 -52 -7 -65 -9 -29 10
-51 47 -51 82 0 96 79 14 81 l-31 0 34 12 c25 9 37 20 43 41 4 17 6 31 5 32
-9 9 -75 12 -89 4z"/>
<path d="M7390 3346 c0 -34 -1 -35 -28 -30 -36 7 -62 -17 -62 -57 0 -55 15
-69 71 -67 l50 1 -3 90 c-2 61 -7 92 -15 95 -9 2 -13 -8 -13 -32z"/>
</g>
</svg>
