<?xml version="1.0" standalone="no"?>
<!DOCTYPE svg PUBLIC "-//W3C//DTD SVG 20010904//EN"
 "http://www.w3.org/TR/2001/REC-SVG-20010904/DTD/svg10.dtd">
<svg version="1.0" xmlns="http://www.w3.org/2000/svg"
 width="1280.000000pt" height="905.000000pt" viewBox="0 0 1280.000000 905.000000"
 preserveAspectRatio="xMidYMid meet">
<metadata>
Created by potrace 1.16, written by Peter Selinger 2001-2019
</metadata>
<g transform="translate(0.000000,905.000000) scale(0.100000,-0.100000)"
fill="#000000" stroke="none">
<path d="M6636 7483 c-3 -4 -6 -92 -6 -195 1 -178 3 -188 21 -188 18 0 19 9
19 195 0 156 -3 195 -13 195 -8 0 -17 -3 -21 -7z"/>
<path d="M6690 7295 c0 -188 1 -195 20 -195 19 0 20 7 20 195 0 188 -1 195
-20 195 -19 0 -20 -7 -20 -195z"/>
<path d="M6750 7296 c1 -187 2 -196 21 -196 19 0 19 8 17 192 -3 176 -5 193
-21 196 -16 3 -18 -9 -17 -192z"/>
<path d="M6810 7295 l0 -195 28 0 c26 1 26 1 8 15 -11 8 -14 15 -8 15 10 0 12
41 12 170 -1 93 1 174 5 180 4 6 -4 10 -19 10 l-26 0 0 -195z"/>
<path d="M6935 7293 l0 -193 23 0 23 0 -1 193 c-1 191 -2 193 -23 193 -22 0
-22 -1 -22 -193z"/>
<path d="M7115 7480 c4 -6 6 -94 5 -195 -1 -177 0 -185 19 -185 19 0 20 8 21
195 l1 195 -26 0 c-16 0 -24 -4 -20 -10z"/>
<path d="M7182 7300 c2 -120 -1 -192 -7 -194 -5 -3 3 -5 18 -5 l28 -1 -1 195
c-1 187 -2 195 -21 195 -19 0 -20 -7 -17 -190z"/>
<path d="M7240 7295 c0 -188 1 -195 20 -195 19 0 20 7 20 195 0 188 -1 195
-20 195 -19 0 -20 -7 -20 -195z"/>
<path d="M7300 7294 c0 -187 1 -194 20 -194 19 0 20 7 20 193 0 186 -1 193
-20 194 -19 2 -20 -4 -20 -193z"/>
<path d="M7358 7293 c3 -184 4 -193 22 -193 19 0 20 8 20 195 l0 195 -22 -2
-23 -2 3 -193z"/>
<path d="M7420 7294 c0 -187 1 -194 20 -194 19 0 20 7 20 193 0 186 -1 193
-20 194 -19 2 -20 -4 -20 -193z"/>
<path d="M8230 7295 c0 -188 1 -195 20 -195 19 0 20 7 20 195 0 188 -1 195
-20 195 -19 0 -20 -7 -20 -195z"/>
<path d="M8290 7295 c0 -188 1 -195 20 -195 19 0 20 7 20 195 0 188 -1 195
-20 195 -19 0 -20 -7 -20 -195z"/>
<path d="M8350 7294 c0 -187 1 -194 20 -194 19 0 20 7 20 193 0 186 -1 193
-20 194 -19 2 -20 -4 -20 -193z"/>
<path d="M8410 7295 c0 -188 1 -195 20 -195 19 0 20 7 20 195 0 188 -1 195
-20 195 -19 0 -20 -7 -20 -195z"/>
<path d="M8470 7295 c0 -188 1 -195 20 -195 19 0 20 7 20 195 0 188 -1 195
-20 195 -19 0 -20 -7 -20 -195z"/>
<path d="M8530 7295 c0 -188 1 -195 20 -195 19 0 20 7 20 195 0 188 -1 195
-20 195 -19 0 -20 -7 -20 -195z"/>
<path d="M8590 7295 c0 -188 1 -195 20 -195 19 0 20 7 20 195 0 188 -1 195
-20 195 -19 0 -20 -7 -20 -195z"/>
<path d="M8650 7295 c0 -188 1 -195 20 -195 19 0 20 7 20 195 0 188 -1 195
-20 195 -19 0 -20 -7 -20 -195z"/>
<path d="M8710 7295 c0 -188 1 -195 20 -195 19 0 20 7 20 195 0 188 -1 195
-20 195 -19 0 -20 -7 -20 -195z"/>
<path d="M8770 7295 c0 -188 1 -195 20 -195 19 0 20 7 20 195 0 188 -1 195
-20 195 -19 0 -20 -7 -20 -195z"/>
<path d="M8830 7312 c0 -129 3 -182 13 -191 10 -11 10 -13 0 -7 -7 4 -13 2
-13 -3 0 -6 9 -11 19 -11 19 0 20 10 21 195 1 190 0 195 -20 195 -19 0 -20 -6
-20 -178z"/>
<path d="M8950 7295 c0 -188 1 -195 20 -195 19 0 20 7 20 195 0 188 -1 195
-20 195 -19 0 -20 -7 -20 -195z"/>
<path d="M9017 7483 c-4 -4 -7 -92 -7 -195 1 -179 2 -188 21 -188 19 0 19 8
17 192 -3 181 -8 214 -31 191z"/>
<path d="M8140 3651 c0 -28 -3 -31 -24 -25 -32 8 -56 -19 -56 -64 0 -45 11
-63 36 -63 10 1 34 1 52 1 l33 1 -3 87 c-3 73 -6 87 -20 90 -14 3 -18 -3 -18
-27z"/>
<path d="M6137 3663 c-4 -3 -7 -42 -7 -85 0 -63 3 -78 15 -78 12 0 15 14 15
63 l1 62 36 -63 c28 -50 40 -62 57 -60 19 3 21 9 21 83 0 64 -3 80 -15 80 -11
0 -16 -15 -20 -55 l-5 -55 -20 44 c-28 63 -57 86 -78 64z"/>
<path d="M7637 3663 c-4 -3 -7 -42 -7 -85 l0 -78 48 0 c26 0 53 5 60 12 14 14
16 68 3 68 -6 0 -7 16 -4 36 4 25 2 39 -8 45 -16 10 -83 12 -92 2z"/>
<path d="M8438 3620 c-12 -8 -17 -22 -16 -48 0 -20 -2 -52 -7 -71 -8 -39 3
-51 51 -51 70 0 89 60 21 71 -45 7 -60 19 -24 19 30 0 61 26 53 46 -3 7 0 15
7 17 18 7 6 15 -33 21 -19 3 -43 1 -52 -4z"/>
<path d="M7250 3320 c0 -27 -2 -29 -28 -24 -38 8 -62 -17 -62 -64 0 -45 11
-63 36 -63 10 1 34 1 52 1 l32 1 0 90 c0 72 -3 89 -15 89 -10 0 -15 -10 -15
-30z"/>
<path d="M11519 630 c-22 -13 -32 -70 -19 -104 13 -35 71 -38 88 -3 6 12 11
16 11 10 1 -7 12 -13 26 -13 14 0 25 -4 25 -10 0 -17 25 -11 37 10 8 12 9 21
3 25 -6 3 -10 24 -10 46 0 56 -31 54 -62 -3 l-23 -43 -3 35 c-4 50 -36 72 -73
50z"/>
</g>
</svg>
