<svg id="_3rd" data-name="3rd" xmlns="http://www.w3.org/2000/svg" viewBox="0 0 1922 1082">
  <title>SPSMAP_3rd</title>
  <rect x="1" y="1" width="1920" height="1080" fill="#fff" stroke="#000" stroke-miterlimit="10" stroke-width="2"/>
  <polygon points="802 327 601.25 327 601 604.5 652.75 604.5 652.75 612.5 645.75 612.5 646 644.5 636.75 644.5 637 670.5 677.25 670.5 678.25 667.5 694 667.75 695.75 670.5 762.25 670.5 763.25 673.5 802 673.25 802 327" fill="#789abf" stroke="#000" stroke-miterlimit="10" stroke-width="2"/>
  <polygon points="802 357.25 860 357.25 859.25 590.25 1005.89 591.49 1006 670.25 855.75 670.25 843.25 694.25 812.75 673.75 802 673.25 802 357.25" fill="#789abf" stroke="#000" stroke-miterlimit="10" stroke-width="2"/>
  <polyline points="849.63 611.13 849.63 601.38 836.63 601.38 836.5 611.13 859.17 611.13 859.24 590.25 859.79 422.25 828.25 422.25 828.25 443 824.75 446 824.75 478.5 859.17 478.5 828.75 478.5 828.63 494.5 824.75 497 824.75 530 859.17 530 828.75 530 828.63 546.13 824.75 549.38 824.75 601.38" fill="#fff" stroke="#000" stroke-miterlimit="10" stroke-width="2"/>
  <polygon points="859.79 422.25 828.25 422.25 828.25 443 824.75 446 824.75 478.5 828.75 478.5 828.63 494.5 824.75 497 824.75 530 828.75 530 828.63 546.13 824.75 549.38 824.75 601.38 836.63 601.38 836.5 611.13 877.75 611.13 877.75 604 1006 604.38 1006 670.25 878.25 670.25 878.13 662.75 840.88 662.38 832 672.5 802 673.25 777.33 673.41 777.33 633.92 802 633.92 802 396.5 859.87 396.5 859.79 422.25" fill="#fff" stroke="#000" stroke-miterlimit="10" stroke-width="2"/>
  <polygon points="816.5 186.5 816.5 301 1005.5 301 1005.5 326 1131 326 1131 345.5 1155.5 345.5 1155.5 354.5 1147.5 354.5 1147.5 446 1155.5 446 1155.5 459.5 1255 459.5 1255 345 1258.44 345.25 1258.44 329 1261.5 319.5 1261.5 295.5 1257 286.25 1257 266 1219.75 266 1201 251.5 1200.5 202.75 1185.25 202.5 1176.5 198.25 1158.75 198 1149.25 202.5 1131.25 202.5 1131.5 299.75 1100.25 299.25 1099 186.5 816.5 186.5" fill="#789abf" stroke="#000" stroke-miterlimit="10" stroke-width="2"/>
  <polygon points="1155.25 504 1254.25 504 1254.25 630.75 1155.5 630.75 1155.25 504" fill="none" stroke="#000" stroke-miterlimit="10" stroke-width="2"/>
  <rect x="1194" y="549.67" width="20" height="36.5" fill="none" stroke="#000" stroke-miterlimit="10" stroke-width="2"/>
  <polyline points="1155.34 547.33 1185.83 547.33 1185.83 504" fill="none" stroke="#000" stroke-miterlimit="10" stroke-width="2"/>
  <polyline points="1222.33 504 1222.33 572.33 1254.25 572.33" fill="none" stroke="#000" stroke-miterlimit="10" stroke-width="2"/>
  <polyline points="1155.25 564.67 1186.83 564.67 1186.83 630.75" fill="none" stroke="#000" stroke-miterlimit="10" stroke-width="2"/>
  <polyline points="1254.25 587.5 1220.17 587.5 1220.17 630.75" fill="none" stroke="#000" stroke-miterlimit="10" stroke-width="2"/>
  <line x1="1185.83" y1="532.5" x2="1222.33" y2="532.5" fill="none" stroke="#000" stroke-miterlimit="10" stroke-width="2"/>
  <line x1="1222.33" y1="545.33" x2="1254.25" y2="545.33" fill="none" stroke="#000" stroke-miterlimit="10" stroke-width="2"/>
  <line x1="1186.83" y1="601" x2="1220.17" y2="601" fill="none" stroke="#000" stroke-miterlimit="10" stroke-width="2"/>
  <line x1="1186.83" y1="583" x2="1155.44" y2="583" fill="none" stroke="#000" stroke-miterlimit="10" stroke-width="2"/>
  <polyline points="1163.33 564.67 1163.33 583 1175.5 583 1175.5 564.67" fill="none" stroke="#006837" stroke-miterlimit="10" stroke-width="2"/>
  <line x1="1194" y1="556.83" x2="1214" y2="556.83" fill="none" stroke="#000" stroke-miterlimit="10" stroke-width="2"/>
  <line x1="1204" y1="586.17" x2="1204.08" y2="556.83" fill="none" stroke="#000" stroke-miterlimit="10" stroke-width="2"/>
  <line x1="824.75" y1="582.33" x2="859.17" y2="582.33" fill="none" stroke="#000" stroke-miterlimit="10" stroke-width="2"/>
  <line x1="834.75" y1="422.25" x2="834.75" y2="414.58" fill="none" stroke="#000" stroke-miterlimit="10" stroke-width="2"/>
  <rect x="802" y="467.25" width="12.58" height="58.5" fill="none" stroke="#006837" stroke-miterlimit="10" stroke-width="2"/>
  <polyline points="802 545.58 814.58 545.58 814.58 525.75" fill="none" stroke="#000" stroke-miterlimit="10" stroke-width="2"/>
  <polyline points="819.92 396.5 819.92 409.92 824.67 409.92 802 409.92" fill="none" stroke="#000" stroke-miterlimit="10" stroke-width="2"/>
  <polyline points="777.33 655.17 791.83 655.25 791.83 648.5 822.67 648.5 822.67 634.17 854.17 634.17 860.83 638.5 878.13 638.66 878.13 641.33 897 641.33 901.83 636.17 940 636 978.5 635.83 982 639.5 1005.5 639.33" fill="none" stroke="#000" stroke-miterlimit="10" stroke-width="2"/>
  <line x1="940.33" y1="670.25" x2="940" y2="636" fill="none" stroke="#000" stroke-miterlimit="10" stroke-width="2"/>
  <line x1="878.13" y1="662.75" x2="878.13" y2="641.33" fill="none" stroke="#000" stroke-miterlimit="10" stroke-width="2"/>
  <polyline points="860.66 662.57 860.76 649.17 860.83 638.5" fill="none" stroke="#000" stroke-miterlimit="10" stroke-width="2"/>
  <polyline points="822.67 645.08 836.63 645.08 836.63 649.67 860.76 649.17" fill="none" stroke="#000" stroke-miterlimit="10" stroke-width="2"/>
  <line x1="834" y1="634.17" x2="834" y2="645.08" fill="none" stroke="#000" stroke-miterlimit="10" stroke-width="2"/>
  <line x1="845.34" y1="649.49" x2="845.34" y2="662.42" fill="none" stroke="#000" stroke-miterlimit="10" stroke-width="2"/>
  <line x1="791.83" y1="655.25" x2="791.83" y2="673.32" fill="none" stroke="#000" stroke-miterlimit="10" stroke-width="2"/>
  <polygon points="1131.25 202.5 1131.25 320.67 1144.33 320.67 1144.33 330.67 1149.75 337.13 1163.75 337.13 1163.75 343.75 1258.44 343.75 1257 266 1219.75 266 1201 251.5 1200.5 202.75 1167.13 202.63 1131.25 202.5" fill="#fff" stroke="#000" stroke-miterlimit="10" stroke-width="2"/>
  <polyline points="1149.25 202.5 1149.28 308.31 1164.13 327.75 1258.13 327.25" fill="none" stroke="#000" stroke-miterlimit="10" stroke-width="2"/>
  <line x1="1149.28" y1="308.31" x2="1131.25" y2="308.31" fill="none" stroke="#000" stroke-miterlimit="10" stroke-width="2"/>
  <line x1="1164.13" y1="327.75" x2="1163.75" y2="337.13" fill="none" stroke="#000" stroke-miterlimit="10" stroke-width="2"/>
  <line x1="1192.17" y1="327.6" x2="1192.17" y2="343.75" fill="none" stroke="#000" stroke-miterlimit="10" stroke-width="2"/>
  <line x1="1217.33" y1="327.47" x2="1217.33" y2="343.75" fill="none" stroke="#000" stroke-miterlimit="10" stroke-width="2"/>
  <polyline points="1236.67 343.75 1236.67 327.37 1236.67 311.83 1257.85 311.83" fill="none" stroke="#000" stroke-miterlimit="10" stroke-width="2"/>
  <line x1="1149.28" y1="227.67" x2="1200.76" y2="227.67" fill="none" stroke="#000" stroke-miterlimit="10" stroke-width="2"/>
  <line x1="1170" y1="202.64" x2="1170" y2="227.67" fill="none" stroke="#000" stroke-miterlimit="10" stroke-width="2"/>
  <line x1="1131.25" y1="295.33" x2="1149.25" y2="295.33" fill="none" stroke="#000" stroke-miterlimit="10" stroke-width="2"/>
  <polyline points="1131.25 278.33 1141 278.33 1141 250.83 1149.28 250.83" fill="none" stroke="#000" stroke-miterlimit="10" stroke-width="2"/>
  <line x1="1131.25" y1="239.5" x2="1149.25" y2="239.5" fill="none" stroke="#000" stroke-miterlimit="10" stroke-width="2"/>
  <line x1="1144.33" y1="320.67" x2="1144.33" y2="308.31" fill="none" stroke="#000" stroke-miterlimit="10" stroke-width="2"/>
  <polyline points="1160.58 202.61 1160.58 216.25 1149.28 216.25" fill="none" stroke="#006837" stroke-miterlimit="10" stroke-width="2"/>
  <rect x="1236.67" y="311.83" width="10.59" height="7.58" fill="none" stroke="#006837" stroke-miterlimit="10" stroke-width="2"/>
  <path d="M446,107.5l42,1v19h60.26l.24,23.5,15-.5V165l-17-.5-.5,17,15.14-1.39L563.5,302.5h-19L545,318h18.5v29h-151v-6.5h-32v-22h18l-1-16h-17V183H398V166l-17.5.5V156l17.5-1-1-26.5,50.5.5Z" transform="translate(1 1)" fill="#789abf" stroke="#000" stroke-miterlimit="10" stroke-width="2"/>
  <rect x="660.5" y="186.5" width="140.5" height="114.5" fill="#789abf" stroke="#000" stroke-miterlimit="10" stroke-width="2"/>
  <rect x="1312" y="23.33" width="193.56" height="100.33" fill="#789abf" stroke="#000" stroke-miterlimit="10" stroke-width="2"/>
  <polygon points="1307.67 119.67 1307.67 5 1111 5 1111 119.28 1307.67 119.67" fill="#789abf" stroke="#000" stroke-miterlimit="10" stroke-width="2"/>
  <polygon points="919 27.33 919 79.67 936.67 79.67 936.67 110.33 958.33 119.67 984 126.67 1029.08 126.88 1058.67 121.67 1082.67 111 1082.67 101.5 1103 101.5 1103 27.33 1082.33 27.33 1082.33 5 937 5 937 26.67 919 27.33" fill="#789abf" stroke="#000" stroke-miterlimit="10" stroke-width="2"/>
  <polygon points="624 47.33 624 95.67 708.67 95.67 708.67 104 804 104 804 97 816.5 97 816.5 46 806.67 46 806.33 39.67 795 39.67 795 45 789 45 789 39.67 714.33 39.67 714.33 45.33 708.06 45.33 708 39.67 690 39.67 689.88 47.08 624 47.33" fill="#789abf" stroke="#000" stroke-miterlimit="10" stroke-width="2"/>
  <polygon points="1011.33 670.17 1006 670.25 1005.5 326 1131 326 1131 345.5 1136.13 345.5 1134.5 669.83 1011.33 670.17" fill="#789abf" stroke="#000" stroke-miterlimit="10" stroke-width="2"/>
  <polygon points="349.67 454.33 364.33 516.67 385 511.33 391 536.33 399.33 536.33 412 591.33 482.18 574.33 473.67 536.33 488.67 534.67 471.67 457 413.67 473.9 405.43 435.95 349.67 454.33" fill="#789abf" stroke="#000" stroke-miterlimit="10" stroke-width="2"/>
  <path d="M212,106.67V169s91.58,1.25,91.67,0,0-61.5,0-61.5Z" transform="translate(1 1)" fill="#789abf" stroke="#000" stroke-miterlimit="10" stroke-width="2"/>
  <path d="M178.5,131l17.33,40.33L176.33,182s6.67,16.67,6.34,17.17S57.5,258.83,57.5,258.83l-19-43.5,123.33-60.5-5.5-12.5Z" transform="translate(1 1)" fill="#789abf" stroke="#000" stroke-miterlimit="10" stroke-width="2"/>
  <polygon points="1155.25 504 1254.25 504 1254.25 630.75 1155.5 630.75 1155.25 504" fill="none" stroke="#000" stroke-miterlimit="10" stroke-width="2"/>
  <rect x="824.67" y="396.5" width="24.83" height="18.08" fill="none" stroke="#006837" stroke-miterlimit="10" stroke-width="2"/>
  <rect x="777.33" y="623.25" width="24.67" height="10.92" fill="none" stroke="#006837" stroke-miterlimit="10" stroke-width="2"/>
</svg>
